<svg xmlns="http://www.w3.org/2000/svg" xmlns:xlink="http://www.w3.org/1999/xlink" width="1024" zoomAndPan="magnify" viewBox="0 0 768 767.999994" height="1024" preserveAspectRatio="xMidYMid meet" version="1.0"><defs><clipPath id="32db9a009d"><path d="M 82.558594 140 L 472 140 L 472 551 L 82.558594 551 Z M 82.558594 140 " clip-rule="nonzero"/></clipPath><clipPath id="9020578c4c"><path d="M 563 304 L 685.558594 304 L 685.558594 329 L 563 329 Z M 563 304 " clip-rule="nonzero"/></clipPath><clipPath id="25f8291c80"><path d="M 563 348 L 685.558594 348 L 685.558594 433 L 563 433 Z M 563 348 " clip-rule="nonzero"/></clipPath></defs><g clip-path="url(#32db9a009d)"><path fill="#11114e" d="M 197.476562 550.996094 L 356.550781 550.996094 L 356.550781 518.667969 C 356.550781 514.828125 358.789062 511.304688 362.152344 509.707031 C 429.523438 476.898438 471.453125 409.84375 471.453125 334.949219 C 471.453125 227.726562 384.234375 140.507812 277.011719 140.507812 C 225.164062 140.507812 176.351562 160.671875 139.542969 197.480469 C 102.898438 234.128906 82.574219 282.9375 82.574219 334.949219 C 82.574219 409.84375 124.339844 476.898438 191.875 509.707031 C 195.234375 511.304688 197.476562 514.828125 197.476562 518.667969 Z M 200.996094 340.710938 L 235.882812 210.445312 C 237.003906 206.121094 241.003906 203.082031 245.488281 203.082031 L 312.539062 203.082031 C 315.742188 203.082031 318.78125 204.683594 320.703125 207.242188 C 322.621094 209.804688 323.101562 213.164062 321.984375 216.203125 L 298.617188 284.699219 L 343.425781 284.699219 C 347.109375 284.699219 350.46875 286.78125 352.230469 289.980469 C 353.988281 293.179688 353.828125 297.183594 351.75 300.222656 L 256.367188 441.53125 C 254.449219 444.414062 251.40625 445.851562 248.046875 445.851562 C 246.925781 445.851562 245.808594 445.691406 244.6875 445.210938 C 240.367188 443.613281 237.644531 439.453125 238.125 434.8125 L 245.808594 353.035156 L 210.597656 353.035156 C 207.558594 353.035156 204.519531 351.59375 202.757812 349.191406 C 200.835938 346.953125 200.195312 343.75 200.996094 340.710938 Z M 200.996094 340.710938 " fill-opacity="1" fill-rule="nonzero"/></g><path fill="#11114e" d="M 197.476562 571 L 356.550781 571 L 356.550781 594.042969 L 197.476562 594.042969 Z M 197.476562 571 " fill-opacity="1" fill-rule="nonzero"/><path fill="#11114e" d="M 356.550781 616.929688 L 356.550781 613.886719 L 197.476562 613.886719 L 197.476562 616.929688 C 197.476562 627.652344 206.117188 636.292969 216.839844 636.292969 L 337.027344 636.292969 C 347.746094 636.292969 356.550781 627.652344 356.550781 616.929688 Z M 356.550781 616.929688 " fill-opacity="1" fill-rule="nonzero"/><path fill="#11114e" d="M 277.011719 689.742188 C 297.976562 689.742188 315.421875 675.660156 320.542969 656.296875 L 233.644531 656.296875 C 238.445312 675.660156 255.890625 689.742188 277.011719 689.742188 Z M 277.011719 689.742188 " fill-opacity="1" fill-rule="nonzero"/><path fill="#11114e" d="M 679.816406 240.050781 C 679.816406 234.609375 675.335938 230.128906 669.894531 230.128906 C 664.453125 230.128906 659.972656 234.609375 659.972656 240.050781 L 659.972656 284.058594 L 679.976562 284.058594 L 679.976562 240.050781 Z M 679.816406 240.050781 " fill-opacity="1" fill-rule="nonzero"/><path fill="#11114e" d="M 156.988281 560.917969 C 156.988281 566.359375 161.46875 570.839844 166.910156 570.839844 L 177.3125 570.839844 L 177.3125 550.835938 L 166.910156 550.835938 C 161.46875 550.996094 156.988281 555.476562 156.988281 560.917969 Z M 156.988281 560.917969 " fill-opacity="1" fill-rule="nonzero"/><path fill="#11114e" d="M 277.011719 92.019531 C 282.453125 92.019531 286.933594 87.539062 286.933594 82.097656 L 286.933594 9.921875 C 286.933594 4.480469 282.453125 0 277.011719 0 C 271.570312 0 267.089844 4.480469 267.089844 9.921875 L 267.089844 81.9375 C 266.929688 87.539062 271.410156 92.019531 277.011719 92.019531 Z M 277.011719 92.019531 " fill-opacity="1" fill-rule="nonzero"/><path fill="#11114e" d="M 386.957031 594.042969 L 376.394531 594.042969 L 376.394531 614.046875 L 386.957031 614.046875 C 392.398438 614.046875 396.878906 609.566406 396.878906 604.125 C 396.878906 598.363281 392.398438 594.042969 386.957031 594.042969 Z M 386.957031 594.042969 " fill-opacity="1" fill-rule="nonzero"/><path fill="#11114e" d="M 187.234375 115.542969 C 189.15625 118.265625 192.355469 119.863281 195.394531 119.863281 C 197.316406 119.863281 199.398438 119.226562 200.996094 118.105469 C 205.476562 114.902344 206.597656 108.824219 203.558594 104.183594 L 160.1875 41.769531 C 156.988281 37.289062 150.746094 36.167969 146.265625 39.207031 C 141.785156 42.410156 140.664062 48.648438 143.707031 53.132812 Z M 187.234375 115.542969 " fill-opacity="1" fill-rule="nonzero"/><path fill="#11114e" d="M 614.363281 451.933594 L 614.363281 694.542969 C 614.363281 710.707031 609.722656 723.992188 600.921875 732.953125 C 593.398438 740.632812 583.476562 744.796875 572.914062 744.796875 C 554.832031 744.796875 536.746094 732.632812 536.746094 705.425781 L 536.746094 641.574219 C 536.746094 641.09375 536.746094 640.613281 536.585938 640.132812 C 530.824219 602.207031 502.980469 588.601562 478.816406 588.441406 L 478.496094 588.441406 C 450.648438 588.441406 418.324219 606.207031 412.5625 639.492188 C 387.917969 726.710938 347.109375 752.316406 319.582031 747.675781 C 301.339844 744.636719 288.855469 729.273438 286.933594 708.949219 C 283.574219 709.429688 280.214844 709.746094 276.851562 709.746094 C 273.492188 709.746094 270.132812 709.429688 266.929688 708.949219 C 269.011719 738.875 288.535156 762.558594 316.222656 767.199219 C 319.421875 767.679688 322.621094 768 325.984375 768 C 361.992188 768 406.160156 735.832031 431.765625 644.132812 C 431.925781 643.8125 431.925781 643.335938 432.085938 643.015625 C 435.605469 621.25 458.332031 608.125 478.335938 608.125 L 478.496094 608.125 C 488.257812 608.125 511.621094 611.648438 516.582031 642.214844 L 516.582031 705.265625 C 516.582031 744.316406 544.75 764.640625 572.753906 764.640625 C 588.917969 764.640625 603.800781 758.238281 615.164062 746.714844 C 623.804688 737.753906 634.207031 721.429688 634.207031 694.382812 L 634.207031 451.933594 C 631.007812 452.414062 627.644531 452.574219 624.285156 452.574219 C 620.925781 452.574219 617.722656 452.414062 614.363281 451.933594 Z M 614.363281 451.933594 " fill-opacity="1" fill-rule="nonzero"/><path fill="#11114e" d="M 386.957031 550.996094 L 376.394531 550.996094 L 376.394531 571 L 386.957031 571 C 392.398438 571 396.878906 566.519531 396.878906 561.078125 C 396.878906 555.476562 392.398438 550.996094 386.957031 550.996094 Z M 386.957031 550.996094 " fill-opacity="1" fill-rule="nonzero"/><path fill="#11114e" d="M 352.867188 118.105469 C 354.628906 119.386719 356.550781 119.863281 358.46875 119.863281 C 361.671875 119.863281 364.710938 118.425781 366.632812 115.542969 L 410 53.132812 C 413.203125 48.648438 412.082031 42.410156 407.441406 39.207031 C 402.960938 36.007812 396.71875 37.128906 393.515625 41.769531 L 350.148438 104.183594 C 347.109375 108.664062 348.226562 114.902344 352.867188 118.105469 Z M 352.867188 118.105469 " fill-opacity="1" fill-rule="nonzero"/><path fill="#11114e" d="M 156.988281 603.964844 C 156.988281 609.40625 161.46875 613.886719 166.910156 613.886719 L 177.3125 613.886719 L 177.3125 594.042969 L 166.910156 594.042969 C 161.46875 594.042969 156.988281 598.363281 156.988281 603.964844 Z M 156.988281 603.964844 " fill-opacity="1" fill-rule="nonzero"/><path fill="#11114e" d="M 588.757812 240.050781 C 588.757812 234.609375 584.277344 230.128906 578.835938 230.128906 C 573.394531 230.128906 568.914062 234.609375 568.914062 240.050781 L 568.914062 284.058594 L 588.917969 284.058594 L 588.917969 240.050781 Z M 588.757812 240.050781 " fill-opacity="1" fill-rule="nonzero"/><g clip-path="url(#9020578c4c)"><path fill="#11114e" d="M 563.3125 304.0625 L 685.417969 304.0625 L 685.417969 328.226562 L 563.3125 328.226562 Z M 563.3125 304.0625 " fill-opacity="1" fill-rule="nonzero"/></g><g clip-path="url(#25f8291c80)"><path fill="#11114e" d="M 563.3125 371.597656 C 563.3125 405.203125 590.679688 432.730469 624.285156 432.730469 C 657.890625 432.730469 685.417969 405.363281 685.417969 371.597656 L 685.417969 348.234375 L 563.3125 348.234375 Z M 563.3125 371.597656 " fill-opacity="1" fill-rule="nonzero"/></g><path fill="#11114e" d="M 264.050781 336.550781 C 265.972656 338.628906 266.929688 341.351562 266.609375 344.230469 L 261.488281 398.003906 L 324.382812 304.703125 L 284.535156 304.703125 C 281.335938 304.703125 278.292969 303.101562 276.375 300.542969 C 274.453125 297.980469 273.972656 294.621094 275.09375 291.582031 L 298.457031 223.085938 L 253.167969 223.085938 L 223.5625 333.347656 L 256.6875 333.347656 C 259.570312 333.347656 262.289062 334.46875 264.050781 336.550781 Z M 264.050781 336.550781 " fill-opacity="1" fill-rule="nonzero"/></svg>