<svg xmlns="http://www.w3.org/2000/svg" xmlns:xlink="http://www.w3.org/1999/xlink" width="1024" zoomAndPan="magnify" viewBox="0 0 768 767.999994" height="1024" preserveAspectRatio="xMidYMid meet" version="1.0"><defs><clipPath id="b7b994ebb3"><path d="M 48.199219 101 L 549 101 L 549 763.773438 L 48.199219 763.773438 Z M 48.199219 101 " clip-rule="nonzero"/></clipPath></defs><path stroke-linecap="round" transform="matrix(0.436151, 0, 0, 0.436151, 11.002008, 19.595996)" fill="none" stroke-linejoin="round" d="M 428.86259 130.710456 L 548.382956 130.710456 C 548.382956 -15.033637 769.797904 -15.033637 769.797904 130.710456 C 944.75709 130.710456 921.703855 105.606253 921.703855 280.037024 C 921.703855 297.841931 907.141089 312.413654 889.336182 312.413654 L 428.871547 312.413654 C 382.021713 312.413654 396.512829 236.366638 396.512829 163.069173 C 396.512829 145.273222 411.066639 130.710456 428.871547 130.710456 Z M 428.86259 130.710456 " stroke="#000000" stroke-width="40" stroke-opacity="1" stroke-miterlimit="2.613"/><path fill="#11114e" d="M 428.066406 648.183594 C 422.554688 648.183594 418.363281 643.085938 419.535156 637.617188 L 446.183594 515.941406 L 632.230469 193.699219 C 652.523438 158.558594 705.90625 164.984375 716.578125 204.820312 C 719.765625 216.734375 718.160156 229.148438 712.019531 239.769531 C 694.660156 269.820312 527.242188 561.40625 524.277344 564.109375 L 433.925781 645.925781 C 432.277344 647.417969 430.171875 648.183594 428.066406 648.183594 Z M 461.980469 523.476562 L 442.296875 614.792969 L 511.550781 552.082031 L 696.917969 231.035156 C 715.539062 198.804688 666.359375 169.484375 647.351562 202.410156 L 461.988281 523.472656 Z M 461.980469 523.476562 " fill-opacity="1" fill-rule="evenodd"/><path fill="#11114e" d="M 518.414062 566.363281 C 513.238281 566.363281 458.285156 532.980469 449.382812 527.851562 C 439.429688 522.113281 448.167969 507.007812 458.105469 512.746094 L 522.78125 550.085938 C 530.511719 554.539062 527.257812 566.367188 518.410156 566.367188 Z M 518.414062 566.363281 " fill-opacity="1" fill-rule="evenodd"/><path fill="#11114e" d="M 696.109375 258.597656 C 690.929688 258.597656 635.976562 225.222656 627.074219 220.085938 C 617.125 214.351562 625.851562 199.238281 635.796875 204.980469 L 700.476562 242.320312 C 708.203125 246.773438 704.957031 258.597656 696.109375 258.597656 Z M 696.109375 258.597656 " fill-opacity="1" fill-rule="evenodd"/><path fill="#11114e" d="M 486.074219 547.695312 C 479.457031 547.695312 475.136719 540.480469 478.53125 534.613281 L 656.222656 226.835938 C 661.957031 216.910156 677.078125 225.601562 671.328125 235.558594 L 493.636719 543.324219 C 492.023438 546.125 489.089844 547.695312 486.078125 547.695312 Z M 486.074219 547.695312 " fill-opacity="1" fill-rule="evenodd"/><g clip-path="url(#b7b994ebb3)"><path fill="#11114e" d="M 498.75 763.957031 L 98.179688 763.957031 C 70.613281 763.957031 48.1875 741.53125 48.1875 713.964844 L 48.1875 151.617188 C 48.1875 124.050781 70.613281 101.621094 98.179688 101.621094 L 183.9375 101.621094 C 195.417969 101.621094 195.417969 119.070312 183.9375 119.070312 L 98.179688 119.070312 C 80.230469 119.070312 65.632812 133.667969 65.632812 151.617188 L 65.632812 713.964844 C 65.632812 731.914062 80.230469 746.507812 98.179688 746.507812 L 498.75 746.507812 C 516.695312 746.507812 531.289062 731.914062 531.289062 713.964844 L 531.289062 520.246094 C 531.289062 508.761719 548.738281 508.765625 548.738281 520.246094 L 548.738281 713.964844 C 548.738281 741.53125 526.3125 763.957031 498.75 763.957031 Z M 540.015625 379.589844 C 535.199219 379.589844 531.289062 375.683594 531.289062 370.867188 L 531.289062 151.613281 C 531.289062 133.664062 516.695312 119.066406 498.75 119.066406 L 412.988281 119.066406 C 401.503906 119.066406 401.507812 101.617188 412.988281 101.617188 L 498.742188 101.617188 C 526.304688 101.617188 548.730469 124.046875 548.730469 151.613281 L 548.730469 370.867188 C 548.730469 375.6875 544.824219 379.589844 540.007812 379.589844 Z M 540.015625 379.589844 " fill-opacity="1" fill-rule="evenodd"/></g><path fill="#11114e" d="M 398.875 164.585938 L 198.046875 164.585938 C 185.449219 164.585938 175.207031 154.34375 175.207031 141.746094 L 175.207031 90.726562 C 175.207031 78.136719 185.449219 67.890625 198.046875 67.890625 L 242.113281 67.890625 C 251.957031 4.007812 344.949219 4.011719 354.796875 67.890625 L 398.875 67.890625 C 411.46875 67.890625 421.714844 78.136719 421.714844 90.726562 L 421.714844 141.746094 C 421.722656 154.335938 411.46875 164.585938 398.875 164.585938 Z M 198.046875 85.335938 C 195.128906 85.335938 192.65625 87.808594 192.65625 90.726562 L 192.65625 141.746094 C 192.65625 144.671875 195.128906 147.140625 198.046875 147.140625 L 398.875 147.140625 C 401.792969 147.140625 404.265625 144.667969 404.265625 141.746094 L 404.265625 90.726562 C 404.265625 87.808594 401.800781 85.335938 398.875 85.335938 L 346.738281 85.335938 C 341.921875 85.335938 338.015625 81.429688 338.015625 76.613281 C 338.015625 24.542969 258.894531 24.546875 258.894531 76.621094 C 258.894531 81.4375 254.984375 85.347656 250.167969 85.347656 L 198.039062 85.335938 Z M 198.046875 85.335938 " fill-opacity="1" fill-rule="evenodd"/><path fill="#11114e" d="M 298.460938 105.796875 C 262.652344 105.796875 262.660156 51.394531 298.460938 51.394531 C 334.257812 51.394531 334.269531 105.796875 298.460938 105.796875 Z M 298.460938 68.839844 C 285.621094 68.839844 285.617188 88.351562 298.460938 88.351562 C 311.300781 88.351562 311.304688 68.839844 298.460938 68.839844 Z M 298.460938 68.839844 " fill-opacity="1" fill-rule="evenodd"/><path fill="#11114e" d="M 427.328125 272.773438 L 214.855469 272.773438 C 203.371094 272.773438 203.371094 255.328125 214.855469 255.328125 L 427.335938 255.328125 C 438.816406 255.328125 438.8125 272.773438 427.328125 272.773438 Z M 427.328125 272.773438 " fill-opacity="1" fill-rule="evenodd"/><path fill="#11114e" d="M 141.460938 295.308594 C 134.675781 295.308594 121.75 278.0625 113.585938 269.207031 C 105.804688 260.765625 118.621094 248.941406 126.417969 257.382812 L 141.722656 273.988281 L 180.367188 235.347656 C 188.492188 227.222656 200.824219 239.5625 192.703125 247.679688 L 147.636719 292.75 C 145.996094 294.386719 143.769531 295.304688 141.464844 295.304688 Z M 141.460938 295.308594 " fill-opacity="1" fill-rule="evenodd"/><path fill="#11114e" d="M 427.328125 400.4375 L 214.855469 400.4375 C 203.371094 400.4375 203.371094 382.992188 214.855469 382.992188 L 427.335938 382.992188 C 438.816406 382.992188 438.8125 400.4375 427.328125 400.4375 Z M 427.328125 400.4375 " fill-opacity="1" fill-rule="evenodd"/><path fill="#11114e" d="M 141.460938 422.96875 C 134.707031 422.96875 121.664062 405.640625 113.574219 396.867188 C 105.789062 388.417969 118.625 376.597656 126.40625 385.042969 L 141.710938 401.65625 L 180.359375 363.011719 C 188.484375 354.886719 200.808594 367.230469 192.695312 375.347656 L 147.625 420.414062 C 145.992188 422.050781 143.765625 422.96875 141.460938 422.96875 Z M 141.460938 422.96875 " fill-opacity="1" fill-rule="evenodd"/><path fill="#11114e" d="M 401.101562 528.101562 L 214.855469 528.101562 C 203.371094 528.101562 203.371094 510.652344 214.855469 510.652344 L 401.109375 510.652344 C 412.59375 510.652344 412.59375 528.101562 401.101562 528.101562 Z M 401.101562 528.101562 " fill-opacity="1" fill-rule="evenodd"/><path fill="#11114e" d="M 141.460938 550.632812 C 134.707031 550.632812 121.679688 533.3125 113.585938 524.523438 C 105.804688 516.078125 118.640625 504.253906 126.417969 512.707031 L 141.722656 529.3125 L 180.367188 490.664062 C 188.496094 482.53125 200.820312 494.894531 192.703125 503.003906 L 147.636719 548.070312 C 145.996094 549.710938 143.769531 550.632812 141.464844 550.632812 Z M 141.460938 550.632812 " fill-opacity="1" fill-rule="evenodd"/><path fill="#11114e" d="M 382.027344 655.769531 L 214.855469 655.769531 C 203.371094 655.769531 203.371094 638.324219 214.855469 638.324219 L 382.027344 638.324219 C 393.507812 638.324219 393.507812 655.769531 382.027344 655.769531 Z M 382.027344 655.769531 " fill-opacity="1" fill-rule="evenodd"/><path fill="#11114e" d="M 141.460938 678.296875 C 134.707031 678.296875 121.679688 660.972656 113.585938 652.1875 C 105.804688 643.746094 118.640625 631.921875 126.417969 640.375 L 141.722656 656.976562 L 180.367188 618.332031 C 188.496094 610.195312 200.820312 622.5625 192.703125 630.667969 L 147.636719 675.738281 C 145.996094 677.375 143.769531 678.296875 141.464844 678.296875 Z M 141.460938 678.296875 " fill-opacity="1" fill-rule="evenodd"/></svg>