<svg xmlns="http://www.w3.org/2000/svg" xmlns:xlink="http://www.w3.org/1999/xlink" width="1024" zoomAndPan="magnify" viewBox="0 0 768 767.999994" height="1024" preserveAspectRatio="xMidYMid meet" version="1.0"><defs><clipPath id="8146f6652b"><path d="M 119 361 L 336 361 L 336 653.488281 L 119 653.488281 Z M 119 361 " clip-rule="nonzero"/></clipPath><clipPath id="089246e26a"><path d="M 373 114.238281 L 768 114.238281 L 768 598 L 373 598 Z M 373 114.238281 " clip-rule="nonzero"/></clipPath></defs><path fill="#11114e" d="M 444.855469 310.027344 C 462.566406 302.609375 477.882812 292.460938 489.449219 280.101562 L 473.703125 265.363281 C 452.5625 287.949219 415.640625 301.8125 374.929688 302.445312 C 337.746094 303.023438 302.253906 292.019531 279.988281 273.007812 L 265.980469 289.410156 C 278.800781 300.351562 295.394531 309.285156 313.96875 315.242188 C 333.148438 321.394531 353.773438 324.34375 375.265625 324.007812 C 400.273438 323.625 424.195312 318.683594 444.855469 310.027344 Z M 444.855469 310.027344 " fill-opacity="1" fill-rule="nonzero"/><path fill="#11114e" d="M 371.722656 156.226562 C 411.632812 153.953125 449.082031 164.765625 471.90625 185.148438 L 486.273438 169.058594 C 459.277344 144.949219 415.996094 132.101562 370.496094 134.691406 C 348.167969 135.960938 326.230469 140.9375 307.054688 149.085938 C 288.160156 157.109375 271.9375 168.1875 260.144531 181.113281 L 276.082031 195.648438 C 296.550781 173.207031 332.300781 158.46875 371.722656 156.226562 Z M 371.722656 156.226562 " fill-opacity="1" fill-rule="nonzero"/><path fill="#11114e" d="M 127.207031 433.277344 C 127.511719 430.019531 130.105469 427.480469 133.371094 427.246094 L 163.441406 425.085938 L 202.207031 388.667969 C 204.140625 386.949219 206.925781 386.5 209.300781 387.511719 C 242.3125 401.601562 280.574219 394.867188 306.78125 370.351562 C 318.171875 359.695312 326.191406 346.761719 330.796875 332.90625 C 323.726562 331.484375 316.800781 329.691406 310.035156 327.523438 C 297.152344 323.390625 285.113281 317.910156 274.417969 311.355469 C 265.089844 312.941406 255.164062 309.976562 248.230469 302.566406 C 237.269531 290.847656 237.882812 272.390625 249.601562 261.429688 C 261.320312 250.464844 279.777344 251.082031 290.738281 262.800781 C 292.269531 264.433594 293.574219 266.203125 294.65625 268.0625 C 305.351562 275.53125 318.644531 281.28125 333.378906 284.949219 C 330.039062 269.488281 322.617188 254.714844 311.046875 242.347656 C 276.933594 205.878906 219.511719 203.96875 183.046875 238.085938 C 156.785156 262.652344 147.539062 300.445312 159.492188 334.371094 C 160.355469 336.816406 159.757812 339.480469 157.917969 341.34375 L 3.644531 485.691406 L 0.378906 511.285156 L 11.101562 522.835938 L 54.792969 523.035156 L 58.683594 496.585938 C 59.140625 493.476562 61.652344 491.140625 64.785156 490.90625 L 90.699219 488.953125 L 92.929688 465.109375 C 93.234375 461.859375 95.816406 459.324219 99.070312 459.078125 L 124.984375 457.125 Z M 109.296875 426.4375 C 109.289062 426.441406 109.28125 426.445312 109.277344 426.453125 L 33.691406 496.617188 C 32.382812 497.828125 30.683594 498.460938 28.90625 498.394531 C 27.125 498.328125 25.476562 497.570312 24.265625 496.265625 C 23.847656 495.816406 23.496094 495.3125 23.21875 494.777344 C 21.863281 492.136719 22.433594 488.890625 24.597656 486.863281 C 24.605469 486.859375 24.609375 486.851562 24.617188 486.84375 L 100.203125 416.683594 C 101.507812 415.46875 103.207031 414.839844 104.988281 414.902344 C 106.773438 414.96875 108.421875 415.726562 109.628906 417.03125 C 110.046875 417.480469 110.398438 417.980469 110.675781 418.523438 C 112.027344 421.15625 111.460938 424.40625 109.296875 426.4375 Z M 116.644531 410.515625 C 116.230469 410.066406 115.875 409.566406 115.59375 409.019531 C 114.238281 406.382812 114.808594 403.132812 116.976562 401.105469 C 116.980469 401.101562 116.988281 401.09375 116.996094 401.085938 L 120.359375 397.960938 C 123.054688 395.464844 127.28125 395.621094 129.78125 398.3125 C 130.203125 398.761719 130.554688 399.265625 130.832031 399.808594 C 132.1875 402.445312 131.617188 405.699219 129.449219 407.726562 C 129.445312 407.730469 129.4375 407.738281 129.433594 407.742188 L 126.070312 410.863281 C 123.378906 413.367188 119.148438 413.207031 116.644531 410.515625 Z M 116.644531 410.515625 " fill-opacity="1" fill-rule="nonzero"/><g clip-path="url(#8146f6652b)"><path fill="#11114e" d="M 318.007812 382.355469 C 297.796875 401.265625 271.507812 411.222656 244.839844 411.222656 C 232.746094 411.222656 220.570312 409.171875 208.847656 404.984375 L 186.035156 426.414062 L 119.96875 624.65625 L 129.300781 648.710938 L 144.230469 653.75 L 182.734375 633.097656 L 173.546875 607.992188 C 172.46875 605.042969 173.558594 601.792969 176.203125 600.089844 L 198.050781 586.019531 L 188.644531 563.996094 C 187.363281 560.992188 188.425781 557.535156 191.167969 555.769531 L 213.015625 541.695312 L 203.609375 519.671875 C 202.324219 516.660156 203.394531 513.195312 206.152344 511.433594 L 231.554688 495.195312 L 248.265625 444.703125 C 249.148438 442.269531 251.382812 440.546875 253.953125 440.304688 C 289.6875 436.953125 320.109375 412.789062 331.457031 378.746094 C 333.386719 372.953125 334.699219 367.097656 335.425781 361.253906 C 330.558594 368.980469 324.707031 376.085938 318.007812 382.355469 Z M 184.601562 522.199219 C 184.597656 522.207031 184.59375 522.214844 184.59375 522.222656 L 151.601562 619.933594 C 151.027344 621.621094 149.835938 622.988281 148.242188 623.777344 C 146.644531 624.566406 144.835938 624.6875 143.144531 624.117188 C 142.5625 623.921875 142.011719 623.648438 141.515625 623.304688 C 139.066406 621.632812 138.015625 618.503906 138.957031 615.691406 C 138.957031 615.683594 138.960938 615.675781 138.964844 615.667969 L 171.957031 517.957031 C 172.523438 516.269531 173.714844 514.902344 175.316406 514.113281 C 176.914062 513.320312 178.722656 513.199219 180.410156 513.769531 C 180.992188 513.964844 181.542969 514.238281 182.042969 514.582031 C 184.488281 516.257812 185.539062 519.382812 184.601562 522.199219 Z M 193.402344 496.144531 C 193.398438 496.152344 193.398438 496.160156 193.394531 496.164062 L 191.925781 500.511719 C 190.75 503.996094 186.957031 505.875 183.472656 504.699219 C 182.894531 504.507812 182.34375 504.230469 181.839844 503.886719 C 179.390625 502.21875 178.339844 499.085938 179.28125 496.273438 C 179.28125 496.265625 179.285156 496.257812 179.289062 496.25 L 180.753906 491.898438 C 181.933594 488.414062 185.726562 486.539062 189.210938 487.714844 C 189.789062 487.90625 190.339844 488.183594 190.84375 488.527344 C 193.292969 490.195312 194.339844 493.328125 193.402344 496.144531 Z M 193.402344 496.144531 " fill-opacity="1" fill-rule="nonzero"/></g><path fill="#11114e" d="M 537.734375 438.191406 L 560.558594 471.261719 C 560.714844 471.488281 560.9375 471.558594 561.058594 471.582031 C 561.175781 471.601562 561.410156 471.617188 561.636719 471.457031 L 591.820312 450.628906 L 568.554688 416.917969 Z M 537.734375 438.191406 " fill-opacity="1" fill-rule="nonzero"/><path fill="#11114e" d="M 603.226562 374.628906 L 580.402344 341.5625 C 580.160156 341.207031 579.675781 341.121094 579.324219 341.363281 L 549.140625 362.195312 L 572.40625 395.902344 Z M 603.226562 374.628906 " fill-opacity="1" fill-rule="nonzero"/><path fill="#11114e" d="M 611.808594 387.0625 L 580.988281 408.335938 L 604.253906 442.042969 L 634.4375 421.214844 C 634.667969 421.058594 634.738281 420.832031 634.757812 420.714844 C 634.777344 420.597656 634.792969 420.363281 634.632812 420.132812 Z M 611.808594 387.0625 " fill-opacity="1" fill-rule="nonzero"/><path fill="#11114e" d="M 536.707031 370.777344 L 506.527344 391.605469 C 506.296875 391.769531 506.226562 391.988281 506.207031 392.105469 C 506.183594 392.226562 506.171875 392.460938 506.328125 392.6875 L 529.152344 425.757812 L 559.972656 404.484375 Z M 536.707031 370.777344 " fill-opacity="1" fill-rule="nonzero"/><g clip-path="url(#089246e26a)"><path fill="#11114e" d="M 716.042969 350.839844 L 659.097656 268.484375 L 695.921875 243.222656 L 695.496094 242.601562 L 615.574219 229.425781 C 613.117188 228.453125 610.976562 226.769531 609.449219 224.558594 L 553.394531 143.246094 C 550.28125 144.457031 546.621094 143.425781 544.644531 140.558594 C 542.332031 137.207031 543.175781 132.609375 546.527344 130.285156 L 553.425781 125.523438 L 545.625 114.226562 L 489.070312 153.261719 L 496.871094 164.558594 L 523.410156 146.242188 C 526.761719 143.929688 531.367188 144.773438 533.679688 148.125 C 535.910156 151.355469 535.207031 155.753906 532.144531 158.140625 C 532.03125 158.226562 531.914062 158.3125 531.796875 158.394531 L 513.5625 170.984375 L 534.722656 201.640625 L 571.558594 207.605469 C 573.851562 207.976562 575.8125 209.375 576.929688 211.480469 C 577.53125 212.621094 577.816406 213.914062 577.757812 215.199219 C 577.644531 217.566406 576.480469 219.65625 574.570312 220.96875 C 572.996094 222.054688 571.089844 222.484375 569.199219 222.179688 L 427.488281 199.230469 L 409.878906 285.210938 C 422.675781 282.164062 434.480469 277.609375 444.566406 271.820312 C 445.40625 259.441406 453.042969 247.984375 465.265625 242.863281 C 482.507812 235.640625 502.339844 243.761719 509.5625 261.003906 C 516.785156 278.246094 508.664062 298.082031 491.421875 305.304688 C 486.445312 307.390625 481.253906 308.191406 476.207031 307.871094 C 468.136719 313.230469 459.246094 317.964844 449.710938 321.960938 C 448.308594 322.546875 446.890625 323.121094 445.460938 323.675781 C 431.226562 329.199219 415.691406 333.074219 399.652344 335.152344 L 393.445312 365.449219 L 393.175781 365.0625 L 373.210938 462.539062 L 373.636719 463.160156 L 408.957031 438.785156 L 518.460938 597.515625 L 767.609375 425.550781 Z M 643.773438 433.097656 C 643.527344 433.289062 643.277344 433.472656 643.019531 433.652344 L 570.222656 483.894531 C 566.734375 486.300781 562.515625 487.207031 558.335938 486.441406 C 554.15625 485.675781 550.53125 483.332031 548.125 479.84375 L 493.894531 401.269531 C 488.917969 394.0625 490.734375 384.148438 497.945312 379.171875 L 570.742188 328.925781 C 574.230469 326.519531 578.453125 325.617188 582.632812 326.382812 C 586.8125 327.148438 590.4375 329.488281 592.84375 332.976562 L 647.074219 411.550781 C 651.867188 418.503906 650.351562 427.96875 643.773438 433.097656 Z M 643.773438 433.097656 " fill-opacity="1" fill-rule="nonzero"/></g></svg>