<svg xmlns="http://www.w3.org/2000/svg" xmlns:xlink="http://www.w3.org/1999/xlink" width="1024" zoomAndPan="magnify" viewBox="0 0 768 767.999994" height="1024" preserveAspectRatio="xMidYMid meet" version="1.0"><defs><clipPath id="5cbca82bbd"><path d="M 5 10 L 765 10 L 765 760.949219 L 5 760.949219 Z M 5 10 " clip-rule="nonzero"/></clipPath></defs><g clip-path="url(#5cbca82bbd)"><path fill="#11114e" d="M 167.796875 18.28125 C 142.570312 18.28125 122.035156 38.816406 122.035156 64.042969 L 122.035156 210.265625 L 16.9375 293.902344 C 3.601562 304.519531 1.386719 324.019531 11.992188 337.367188 C 22.21875 350.226562 42.597656 352.523438 55.457031 342.328125 L 82.867188 320.515625 L 82.867188 695.984375 L 27.496094 695.984375 C 23.632812 695.984375 20.496094 699.125 20.496094 702.988281 L 20.496094 754.003906 C 20.496094 757.871094 23.632812 761.007812 27.496094 761.007812 L 741.917969 761.007812 C 745.78125 761.007812 748.921875 757.871094 748.921875 754.003906 L 748.921875 702.988281 C 748.921875 699.125 745.78125 695.984375 741.917969 695.984375 L 686.6875 695.984375 L 686.6875 320.617188 L 713.957031 342.328125 C 719.40625 346.667969 726.242188 349.035156 733.203125 349.035156 C 742.6875 349.035156 751.511719 344.777344 757.421875 337.367188 C 768.039062 324.035156 765.828125 304.519531 752.476562 293.890625 L 403.960938 16.570312 C 393.078125 7.871094 376.324219 7.886719 365.441406 16.570312 L 213.558594 137.441406 L 213.558594 64.054688 C 213.558594 38.828125 193.023438 18.292969 167.796875 18.292969 Z M 136.042969 64.042969 C 136.042969 46.53125 150.285156 32.289062 167.796875 32.289062 C 185.304688 32.289062 199.550781 46.53125 199.550781 64.042969 L 199.550781 148.578125 L 136.042969 199.117188 Z M 734.898438 746.957031 L 34.5 746.957031 L 34.5 709.949219 L 734.914062 709.949219 L 734.914062 746.957031 Z M 207.507812 516.257812 C 207.535156 515.261719 207.339844 514.296875 206.960938 513.398438 C 206.890625 513.21875 206.75 513.089844 206.652344 512.921875 C 206.332031 512.292969 205.980469 511.675781 205.476562 511.171875 C 205.222656 510.90625 204.875 510.765625 204.578125 510.554688 C 204.160156 510.246094 203.792969 509.882812 203.304688 509.671875 C 171.492188 495.902344 150.929688 464.5 150.929688 429.675781 C 150.929688 398.664062 167.375 370.46875 193.511719 354.949219 L 193.511719 436.402344 C 193.511719 440.265625 196.652344 443.40625 200.515625 443.40625 L 275.738281 443.40625 C 279.601562 443.40625 282.742188 440.265625 282.742188 436.402344 L 282.742188 354.988281 C 308.878906 370.609375 325.324219 398.804688 325.324219 429.691406 C 325.324219 464.34375 304.789062 495.722656 273.019531 509.660156 C 272.136719 510.039062 271.351562 510.582031 270.695312 511.269531 C 270.554688 511.410156 270.484375 511.605469 270.359375 511.761719 C 269.910156 512.308594 269.503906 512.867188 269.238281 513.523438 C 269.152344 513.734375 269.167969 513.960938 269.113281 514.167969 C 268.929688 514.800781 268.71875 515.417969 268.71875 516.101562 L 268.71875 695.957031 L 229.511719 695.957031 C 229.511719 695.957031 229.46875 695.957031 229.441406 695.957031 L 207.507812 695.957031 Z M 383.945312 414.101562 L 383.945312 361.238281 L 567.523438 361.238281 L 610.695312 414.101562 Z M 499.140625 428.109375 L 499.140625 695.945312 L 456.277344 695.945312 L 456.277344 428.109375 Z M 672.664062 695.957031 L 539.929688 695.957031 C 539.929688 695.957031 539.886719 695.957031 539.859375 695.957031 L 513.148438 695.957031 L 513.148438 428.121094 L 625.472656 428.121094 C 628.175781 428.121094 630.640625 426.566406 631.804688 424.117188 C 632.96875 421.679688 632.617188 418.78125 630.910156 416.691406 L 576.308594 349.820312 C 574.976562 348.195312 572.988281 347.242188 570.886719 347.242188 L 376.96875 347.242188 C 373.101562 347.242188 369.964844 350.382812 369.964844 354.246094 L 369.964844 421.117188 C 369.964844 424.984375 373.101562 428.121094 376.96875 428.121094 L 442.296875 428.121094 L 442.296875 695.957031 L 282.753906 695.957031 L 282.753906 520.320312 C 317.210938 503.300781 339.371094 468.351562 339.371094 429.675781 C 339.371094 389.503906 315.503906 353.113281 278.582031 336.976562 C 278.582031 336.976562 278.566406 336.976562 278.550781 336.976562 C 277.824219 336.667969 277.027344 336.527344 276.199219 336.484375 C 276.085938 336.484375 275.976562 336.414062 275.863281 336.414062 C 275.835938 336.414062 275.808594 336.402344 275.777344 336.402344 C 275.132812 336.402344 274.546875 336.613281 273.957031 336.765625 C 273.707031 336.835938 273.441406 336.820312 273.203125 336.921875 C 272.597656 337.160156 272.09375 337.550781 271.578125 337.941406 C 271.367188 338.097656 271.113281 338.195312 270.917969 338.375 C 270.398438 338.882812 270.023438 339.496094 269.671875 340.15625 C 269.585938 340.324219 269.433594 340.421875 269.363281 340.605469 C 269.363281 340.605469 269.363281 340.617188 269.363281 340.632812 C 269.167969 341.09375 269.140625 341.613281 269.042969 342.117188 C 268.957031 342.539062 268.789062 342.941406 268.789062 343.363281 C 268.789062 343.363281 268.789062 343.390625 268.789062 343.40625 L 268.789062 429.410156 L 207.578125 429.410156 L 207.578125 343.40625 C 207.578125 343.40625 207.578125 343.390625 207.578125 343.378906 C 207.578125 342.929688 207.394531 342.496094 207.3125 342.046875 C 207.210938 341.570312 207.199219 341.082031 207.015625 340.644531 C 207.015625 340.644531 207.015625 340.644531 207.015625 340.632812 C 206.933594 340.4375 206.765625 340.308594 206.667969 340.128906 C 206.332031 339.511719 205.980469 338.894531 205.476562 338.417969 C 205.042969 337.984375 204.507812 337.71875 203.992188 337.410156 C 203.738281 337.269531 203.527344 337.046875 203.261719 336.933594 C 201.890625 336.359375 200.347656 336.347656 198.835938 336.738281 C 198.5 336.820312 198.136719 336.820312 197.828125 336.960938 C 197.828125 336.960938 197.8125 336.960938 197.800781 336.960938 C 160.863281 352.957031 136.992188 389.351562 136.992188 429.675781 C 136.992188 468.464844 159.125 503.410156 193.570312 520.304688 L 193.570312 695.957031 L 96.945312 695.957031 L 96.945312 309.339844 L 384.769531 80.277344 L 672.734375 309.453125 L 672.734375 695.972656 Z M 374.167969 27.511719 C 380.132812 22.777344 389.265625 22.761719 395.234375 27.511719 L 743.738281 304.816406 C 751.035156 310.640625 752.253906 321.316406 746.441406 328.601562 C 740.796875 335.671875 729.773438 336.949219 722.671875 331.304688 L 684.640625 301.03125 C 684.640625 301.03125 684.570312 300.992188 684.542969 300.964844 L 389.054688 65.820312 C 387.78125 64.8125 386.242188 64.308594 384.6875 64.308594 C 383.132812 64.308594 381.605469 64.8125 380.316406 65.820312 L 46.730469 331.332031 C 39.65625 336.949219 28.589844 335.703125 22.960938 328.628906 C 17.144531 321.328125 18.363281 310.671875 25.664062 304.855469 Z M 374.167969 27.511719 " fill-opacity="1" fill-rule="nonzero"/></g><path fill="#11114e" d="M 309.578125 217.519531 C 309.578125 258.941406 343.28125 292.628906 384.699219 292.628906 C 426.121094 292.628906 459.820312 258.941406 459.820312 217.519531 C 459.820312 176.101562 426.121094 142.398438 384.699219 142.398438 C 343.28125 142.398438 309.578125 176.101562 309.578125 217.519531 Z M 445.816406 217.519531 C 445.816406 251.207031 418.402344 278.621094 384.699219 278.621094 C 351 278.621094 323.585938 251.207031 323.585938 217.519531 C 323.585938 183.832031 351 156.40625 384.699219 156.40625 C 418.402344 156.40625 445.816406 183.820312 445.816406 217.519531 Z M 445.816406 217.519531 " fill-opacity="1" fill-rule="nonzero"/></svg>