<svg xmlns="http://www.w3.org/2000/svg" xmlns:xlink="http://www.w3.org/1999/xlink" width="64" zoomAndPan="magnify" viewBox="0 0 48 48" height="64" preserveAspectRatio="xMidYMid meet" version="1.0"><defs><clipPath id="abcfb017ff"><path d="M 4.777344 0 L 42.980469 0 L 42.980469 47 L 4.777344 47 Z M 4.777344 0 " clip-rule="nonzero"/></clipPath><clipPath id="ac83229437"><path d="M 4.777344 0 L 42.980469 0 L 42.980469 47.019531 L 4.777344 47.019531 Z M 4.777344 0 " clip-rule="nonzero"/></clipPath></defs><g clip-path="url(#abcfb017ff)"><path fill="#fa5f03" d="M 24.011719 0.0273438 L 24.179688 0.0273438 L 24.902344 0.402344 C 25.382812 0.652344 25.703125 0.816406 25.859375 0.890625 C 26.011719 0.96875 26.539062 1.222656 27.4375 1.648438 C 28.339844 2.074219 28.804688 2.289062 28.832031 2.292969 C 28.863281 2.296875 29.101562 2.398438 29.550781 2.597656 C 29.996094 2.792969 30.339844 2.941406 30.582031 3.035156 C 30.824219 3.128906 31.171875 3.257812 31.628906 3.421875 C 32.085938 3.585938 32.371094 3.691406 32.492188 3.734375 C 32.613281 3.777344 32.765625 3.828125 32.945312 3.886719 C 33.125 3.949219 33.359375 4.019531 33.640625 4.105469 C 33.925781 4.191406 34.289062 4.296875 34.726562 4.417969 C 35.164062 4.539062 35.589844 4.644531 36.003906 4.738281 C 36.417969 4.835938 36.683594 4.894531 36.804688 4.921875 C 36.925781 4.945312 37.308594 5.019531 37.953125 5.140625 C 38.597656 5.261719 39.003906 5.332031 39.167969 5.359375 C 39.332031 5.386719 39.730469 5.449219 40.367188 5.554688 C 41.003906 5.65625 41.328125 5.707031 41.335938 5.707031 C 41.34375 5.707031 41.65625 5.769531 42.265625 5.886719 C 42.878906 6.007812 43.183594 6.070312 43.1875 6.074219 L 43.195312 6.082031 L 43.15625 8.003906 C 43.132812 9.289062 43.066406 10.945312 42.964844 12.976562 C 42.859375 15.007812 42.777344 16.425781 42.71875 17.234375 C 42.65625 18.046875 42.589844 18.738281 42.511719 19.316406 C 42.433594 19.890625 42.34375 20.4375 42.238281 20.953125 C 42.136719 21.46875 42.023438 21.992188 41.90625 22.515625 C 41.785156 23.042969 41.675781 23.5 41.582031 23.898438 C 41.488281 24.292969 41.375 24.71875 41.246094 25.175781 C 41.117188 25.632812 41.039062 25.90625 41.015625 26 C 40.988281 26.097656 40.949219 26.21875 40.898438 26.363281 C 40.847656 26.507812 40.785156 26.691406 40.714844 26.90625 C 40.648438 27.121094 40.539062 27.429688 40.394531 27.835938 C 40.246094 28.238281 40.128906 28.5625 40.03125 28.804688 C 39.9375 29.042969 39.820312 29.332031 39.683594 29.667969 C 39.546875 30.003906 39.371094 30.410156 39.15625 30.882812 C 38.941406 31.355469 38.808594 31.628906 38.765625 31.707031 C 38.722656 31.785156 38.566406 32.066406 38.296875 32.554688 C 38.023438 33.039062 37.863281 33.328125 37.804688 33.417969 C 37.75 33.507812 37.617188 33.738281 37.40625 34.101562 C 37.195312 34.46875 37.058594 34.699219 36.992188 34.800781 C 36.929688 34.898438 36.828125 35.054688 36.695312 35.265625 C 36.5625 35.476562 36.453125 35.640625 36.371094 35.753906 C 36.289062 35.871094 36.195312 36.007812 36.089844 36.167969 C 35.980469 36.328125 35.878906 36.472656 35.777344 36.605469 C 35.679688 36.742188 35.601562 36.851562 35.546875 36.941406 C 35.492188 37.03125 35.410156 37.148438 35.300781 37.292969 C 35.195312 37.433594 35.089844 37.574219 34.992188 37.71875 C 34.890625 37.859375 34.785156 38.003906 34.667969 38.15625 C 34.550781 38.308594 34.453125 38.4375 34.371094 38.542969 C 34.289062 38.652344 34.117188 38.855469 33.847656 39.15625 C 33.582031 39.457031 33.269531 39.800781 32.90625 40.191406 C 32.546875 40.578125 32.226562 40.910156 31.949219 41.183594 C 31.675781 41.460938 31.492188 41.632812 31.402344 41.707031 C 31.3125 41.78125 31.101562 41.964844 30.769531 42.261719 C 30.4375 42.558594 30.234375 42.738281 30.164062 42.804688 C 30.089844 42.867188 29.910156 43.027344 29.621094 43.28125 C 29.332031 43.535156 29.144531 43.699219 29.054688 43.773438 C 28.960938 43.84375 28.859375 43.929688 28.742188 44.03125 C 28.625 44.128906 28.464844 44.265625 28.257812 44.4375 C 28.050781 44.609375 27.894531 44.734375 27.789062 44.816406 C 27.679688 44.898438 27.578125 44.972656 27.476562 45.039062 C 27.378906 45.101562 27.199219 45.214844 26.9375 45.371094 C 26.671875 45.53125 26.5 45.640625 26.417969 45.695312 C 26.335938 45.75 26.246094 45.808594 26.140625 45.871094 C 26.039062 45.929688 25.929688 46 25.820312 46.078125 C 25.707031 46.152344 25.625 46.210938 25.574219 46.246094 C 25.523438 46.277344 25.410156 46.339844 25.238281 46.425781 C 25.066406 46.511719 24.859375 46.609375 24.617188 46.722656 C 24.378906 46.832031 24.210938 46.90625 24.113281 46.941406 L 23.972656 46.992188 L 23.816406 46.953125 C 23.714844 46.929688 23.601562 46.886719 23.480469 46.824219 C 23.363281 46.765625 23.160156 46.660156 22.875 46.515625 C 22.589844 46.367188 22.429688 46.277344 22.386719 46.246094 C 22.34375 46.210938 22.230469 46.132812 22.054688 46.019531 C 21.878906 45.902344 21.746094 45.816406 21.65625 45.761719 C 21.566406 45.703125 21.390625 45.597656 21.125 45.4375 C 20.863281 45.277344 20.683594 45.167969 20.585938 45.101562 C 20.484375 45.039062 20.382812 44.964844 20.273438 44.882812 C 20.167969 44.800781 20.042969 44.703125 19.90625 44.589844 C 19.769531 44.480469 19.585938 44.328125 19.359375 44.132812 C 19.128906 43.941406 18.929688 43.773438 18.765625 43.628906 C 18.597656 43.488281 18.351562 43.273438 18.027344 42.984375 C 17.707031 42.695312 17.5 42.515625 17.410156 42.441406 C 17.316406 42.371094 17.121094 42.195312 16.8125 41.925781 C 16.507812 41.65625 16.339844 41.503906 16.304688 41.46875 C 16.269531 41.433594 16.117188 41.28125 15.847656 41.007812 C 15.574219 40.738281 15.386719 40.542969 15.277344 40.429688 C 15.171875 40.3125 14.933594 40.054688 14.566406 39.652344 C 14.203125 39.253906 13.984375 39.007812 13.910156 38.917969 C 13.835938 38.828125 13.730469 38.695312 13.585938 38.519531 C 13.445312 38.339844 13.332031 38.199219 13.25 38.089844 C 13.167969 37.984375 13.085938 37.871094 13.007812 37.757812 C 12.925781 37.640625 12.839844 37.519531 12.746094 37.394531 C 12.65625 37.269531 12.574219 37.15625 12.503906 37.058594 C 12.429688 36.960938 12.367188 36.871094 12.316406 36.792969 C 12.265625 36.71875 12.191406 36.617188 12.101562 36.492188 C 12.011719 36.367188 11.933594 36.253906 11.871094 36.15625 C 11.804688 36.054688 11.71875 35.925781 11.613281 35.769531 C 11.503906 35.609375 11.421875 35.484375 11.367188 35.394531 C 11.3125 35.304688 11.21875 35.160156 11.09375 34.96875 C 10.96875 34.773438 10.890625 34.640625 10.851562 34.566406 C 10.8125 34.496094 10.703125 34.308594 10.527344 34.011719 C 10.351562 33.714844 10.234375 33.523438 10.179688 33.429688 C 10.121094 33.339844 9.984375 33.09375 9.757812 32.6875 C 9.535156 32.285156 9.367188 31.980469 9.253906 31.773438 C 9.144531 31.566406 9.046875 31.371094 8.957031 31.191406 C 8.871094 31.011719 8.753906 30.738281 8.597656 30.378906 C 8.441406 30.015625 8.363281 29.832031 8.363281 29.824219 C 8.363281 29.8125 8.289062 29.617188 8.132812 29.230469 C 7.976562 28.84375 7.855469 28.535156 7.769531 28.3125 C 7.683594 28.089844 7.566406 27.75 7.410156 27.292969 C 7.253906 26.835938 7.101562 26.351562 6.945312 25.832031 C 6.789062 25.316406 6.617188 24.6875 6.429688 23.949219 C 6.238281 23.207031 6.105469 22.65625 6.027344 22.296875 C 5.949219 21.933594 5.84375 21.410156 5.707031 20.722656 C 5.566406 20.03125 5.484375 19.582031 5.460938 19.367188 C 5.433594 19.152344 5.378906 18.492188 5.292969 17.390625 C 5.207031 16.289062 5.152344 15.457031 5.125 14.898438 C 5.097656 14.339844 5.070312 13.746094 5.035156 13.117188 C 5 12.488281 4.953125 11.460938 4.890625 10.03125 C 4.832031 8.605469 4.800781 7.59375 4.800781 7 L 4.800781 6.109375 L 4.886719 6.0625 C 4.941406 6.03125 5.09375 5.996094 5.34375 5.953125 C 5.59375 5.910156 5.9375 5.855469 6.375 5.785156 C 6.816406 5.714844 7.484375 5.605469 8.378906 5.449219 C 9.273438 5.292969 9.914062 5.183594 10.300781 5.113281 C 10.6875 5.046875 11.199219 4.9375 11.835938 4.792969 C 12.476562 4.644531 13.027344 4.507812 13.488281 4.378906 C 13.953125 4.25 14.355469 4.128906 14.691406 4.015625 C 15.027344 3.90625 15.289062 3.820312 15.476562 3.757812 C 15.667969 3.699219 15.847656 3.636719 16.019531 3.578125 C 16.191406 3.515625 16.535156 3.386719 17.054688 3.191406 C 17.570312 2.992188 18.054688 2.792969 18.503906 2.589844 C 18.957031 2.386719 19.199219 2.285156 19.230469 2.28125 C 19.257812 2.277344 19.476562 2.179688 19.878906 1.988281 C 20.285156 1.800781 20.652344 1.628906 20.976562 1.472656 C 21.304688 1.320312 21.628906 1.164062 21.945312 1.007812 C 22.265625 0.855469 22.660156 0.652344 23.132812 0.402344 L 23.84375 0.0273438 Z M 24.011719 0.0273438 " fill-opacity="1" fill-rule="evenodd"/></g><g clip-path="url(#ac83229437)"><path stroke-linecap="butt" transform="matrix(0.0258194, 0, 0, 0.0258194, 4.763205, -0.011308)" fill="none" stroke-linejoin="miter" d="M 745.504588 1.497003 L 752.010102 1.497003 L 779.998941 16.020941 C 798.607737 25.703566 811.013601 32.057789 817.065242 34.932319 C 822.965592 37.958139 843.38988 47.792056 878.186816 64.282778 C 913.135043 80.773499 931.138674 89.094505 932.197712 89.245796 C 933.40804 89.397088 942.636792 93.330654 960.03526 101.046496 C 977.282437 108.611048 990.596047 114.360106 999.97609 117.991091 C 1009.356134 121.622076 1022.821035 126.614679 1040.522085 132.968902 C 1058.223135 139.323125 1069.267379 143.407983 1073.957401 145.072184 C 1078.647423 146.736386 1084.547773 148.703169 1091.50716 150.972534 C 1098.466547 153.393191 1107.544008 156.116429 1118.436962 159.444832 C 1129.481207 162.773234 1143.551272 166.858092 1160.495867 171.548114 C 1177.440462 176.238135 1193.931183 180.322993 1209.968032 183.953978 C 1226.00488 187.736253 1236.29267 190.005619 1240.982692 191.064656 C 1245.672714 191.972402 1260.499234 194.846931 1285.462253 199.536953 C 1310.425272 204.226975 1326.159538 206.950213 1332.513761 208.00925 C 1338.867984 209.068288 1354.299669 211.488944 1378.960106 215.573802 C 1403.620543 219.507368 1416.177698 221.474152 1416.48028 221.474152 C 1416.782862 221.474152 1428.886144 223.894808 1452.487543 228.433539 C 1476.240234 233.12356 1488.040934 235.544217 1488.192225 235.695508 L 1488.494807 235.99809 L 1486.981897 310.433274 C 1486.074151 360.208021 1483.502203 424.355415 1479.568637 503.026747 C 1475.483779 581.69808 1472.306668 636.616722 1470.037302 667.933964 C 1467.616646 699.402497 1465.044698 726.181008 1462.018878 748.57208 C 1458.993058 770.81186 1455.513364 791.992603 1451.428506 811.963019 C 1447.49494 831.933434 1443.1075 852.206431 1438.568769 872.479428 C 1433.878748 892.903717 1429.642599 910.604766 1426.011614 926.036451 C 1422.38063 941.316844 1417.99319 957.807566 1413.000586 975.508616 C 1408.007982 993.209666 1404.982162 1003.800037 1404.074416 1007.431022 C 1403.015379 1011.213297 1401.502468 1015.903319 1399.535685 1021.501087 C 1397.568902 1027.098855 1395.148245 1034.209533 1392.425007 1042.530539 C 1389.853059 1050.851546 1385.616911 1062.803537 1380.019143 1078.537803 C 1374.270084 1094.120779 1369.731353 1106.677934 1365.949078 1116.057977 C 1362.318093 1125.28673 1357.779362 1136.482265 1352.484177 1149.493293 C 1347.188991 1162.504322 1340.380895 1178.238588 1332.059888 1196.544802 C 1323.738882 1214.851016 1318.594987 1225.441388 1316.930786 1228.467208 C 1315.266585 1231.493029 1309.214944 1242.385982 1298.775863 1261.29736 C 1288.185491 1280.057447 1281.982559 1291.252983 1279.713194 1294.732677 C 1277.59512 1298.21237 1272.451225 1307.138541 1264.281509 1321.208606 C 1256.111794 1335.429962 1250.816608 1344.356133 1248.244661 1348.289699 C 1245.824005 1352.071975 1241.890438 1358.123616 1236.746543 1366.293331 C 1231.602648 1374.463046 1227.3665 1380.817269 1224.189388 1385.204709 C 1221.012277 1389.74344 1217.381292 1395.038626 1213.296434 1401.241558 C 1209.060286 1407.44449 1205.126719 1413.042257 1201.193152 1418.186152 C 1197.410877 1423.481338 1194.385056 1427.717487 1192.266982 1431.19718 C 1190.148908 1434.676874 1186.971796 1439.215605 1182.735647 1444.813373 C 1178.65079 1450.259849 1174.565932 1455.706326 1170.783657 1461.304094 C 1166.85009 1466.750571 1162.765232 1472.348339 1158.226502 1478.248689 C 1153.687771 1484.149039 1149.905495 1489.141643 1146.728384 1493.2265 C 1143.551272 1497.462649 1136.894467 1505.329782 1126.455387 1516.979191 C 1116.167597 1528.6286 1104.064315 1541.94221 1089.99425 1557.071312 C 1076.075475 1572.049124 1063.669612 1584.908861 1052.927949 1595.499233 C 1042.337577 1606.240895 1035.226899 1612.8977 1031.747205 1615.77223 C 1028.267512 1618.646759 1020.097797 1625.757437 1007.23806 1637.255555 C 994.378322 1648.753673 986.511189 1655.71306 983.787951 1658.285008 C 980.913421 1660.705664 973.954034 1666.908596 962.758498 1676.742513 C 951.562963 1686.576429 944.300993 1692.930652 940.8213 1695.805182 C 937.190315 1698.52842 933.256749 1701.856823 928.718018 1705.790389 C 924.179287 1709.572665 917.976355 1714.867851 909.957931 1721.524656 C 901.939507 1728.181461 895.887866 1733.022773 891.803008 1736.199885 C 887.566859 1739.376996 883.633293 1742.251526 879.699726 1744.823473 C 875.917451 1747.24413 868.958063 1751.631569 858.821565 1757.68321 C 848.533775 1763.886142 841.87697 1768.122291 838.699859 1770.240365 C 835.522747 1772.35844 832.043054 1774.627805 827.958196 1777.048461 C 824.024629 1779.317827 819.788481 1782.041065 815.552332 1785.066886 C 811.164892 1787.941415 807.987781 1790.210781 806.020997 1791.5724 C 804.054214 1792.782728 799.666774 1795.203384 793.009969 1798.531787 C 786.353164 1801.860189 778.33474 1805.642465 768.954697 1810.029905 C 759.725944 1814.266053 753.22043 1817.140583 749.438154 1818.502202 L 743.991678 1820.468985 L 737.940037 1818.956075 C 734.00647 1818.048329 729.61903 1816.384128 724.929009 1813.963471 C 720.390278 1811.694106 712.523145 1807.609248 701.4789 1802.01148 C 690.434655 1796.262422 684.231723 1792.782728 682.567522 1791.5724 C 680.90332 1790.210781 676.515881 1787.18496 669.707785 1782.79752 C 662.899689 1778.25879 657.755794 1774.930387 654.2761 1772.812313 C 650.796407 1770.542947 643.988311 1766.45809 633.700521 1760.255158 C 623.564022 1754.052226 616.604635 1749.816077 612.82236 1747.24413 C 608.888793 1744.823473 604.955226 1741.948944 600.719078 1738.771832 C 596.63422 1735.594721 591.792907 1731.812445 586.497721 1727.425006 C 581.202536 1723.188857 574.091857 1717.288507 565.316978 1709.723956 C 556.390808 1702.310696 548.674965 1695.805182 542.320742 1690.207414 C 535.815228 1684.760937 526.283894 1676.43993 513.726739 1665.244395 C 501.320875 1654.048859 493.302451 1647.089472 489.822757 1644.214942 C 486.191772 1641.491704 478.627221 1634.683608 466.67523 1624.244527 C 454.87453 1613.805446 448.369016 1607.905097 447.007397 1606.543477 C 445.645778 1605.181858 439.745428 1599.281508 429.306347 1588.691136 C 418.715976 1578.252056 411.454007 1570.687505 407.217858 1566.300065 C 403.133 1561.761334 393.904248 1551.776127 379.682891 1536.193151 C 365.612826 1520.761467 357.140529 1511.230132 354.265999 1507.750439 C 351.39147 1504.270745 347.306612 1499.12685 341.708844 1492.318754 C 336.262368 1485.359367 331.874928 1479.91289 328.697816 1475.676741 C 325.520705 1471.591884 322.343593 1467.204444 319.317773 1462.817004 C 316.140661 1458.278274 312.812259 1453.588252 309.181274 1448.746939 C 305.701581 1443.905626 302.524469 1439.518187 299.801231 1435.735911 C 296.926701 1431.953635 294.506045 1428.473942 292.539262 1425.448121 C 290.572478 1422.573592 287.697949 1418.640025 284.218255 1413.798713 C 280.738562 1408.9574 277.712741 1404.56996 275.292085 1400.787685 C 272.720137 1396.854118 269.391735 1391.861514 265.306877 1385.809873 C 261.070729 1379.606941 257.893617 1374.765628 255.775543 1371.285935 C 253.657468 1367.806241 250.026484 1362.208473 245.185171 1354.795213 C 240.343858 1347.230662 237.318038 1342.086767 235.805128 1339.212238 C 234.292217 1336.488999 230.056069 1329.22703 223.247973 1317.728912 C 216.439876 1306.230794 211.901146 1298.817534 209.783071 1295.18655 C 207.513706 1291.706856 202.21852 1282.175522 193.443641 1266.441255 C 184.820052 1250.85828 178.314538 1239.05758 173.927099 1231.039155 C 169.69095 1223.020731 165.908674 1215.45618 162.428981 1208.496793 C 159.100578 1201.537406 154.561848 1190.947034 148.510207 1177.02826 C 142.458566 1162.958195 139.432745 1155.847516 139.432745 1155.544934 C 139.432745 1155.091061 136.558216 1147.52651 130.506575 1132.548699 C 124.454934 1117.570887 119.764912 1105.618896 116.43651 1096.995308 C 113.108107 1088.37172 108.569376 1075.209401 102.517735 1057.508351 C 96.466094 1039.807301 90.565744 1021.047214 84.514103 1000.925508 C 78.462462 980.955093 71.805657 956.597238 64.543688 928.003234 C 57.130428 899.25794 51.986533 877.925905 48.960713 864.007131 C 45.934892 849.937066 41.850035 829.664069 36.554849 803.036848 C 31.108372 776.258337 27.93126 758.859869 27.023514 750.538863 C 25.964477 742.217857 23.846403 716.649673 20.518 673.985605 C 17.189598 631.321536 15.071523 599.096548 14.012486 577.461931 C 12.953449 555.827315 11.894412 532.831079 10.532793 508.473224 C 9.171173 484.115369 7.355681 444.32583 4.935025 388.953315 C 2.665659 333.732091 1.455331 294.547716 1.455331 271.551481 L 1.455331 237.057127 L 4.783734 235.241635 C 6.901808 234.031307 12.802158 232.669687 22.484784 231.005486 C 32.167409 229.341285 45.481019 227.22321 62.425614 224.499972 C 79.5215 221.776734 105.392265 217.540585 140.037909 211.488944 C 174.683554 205.437303 199.495282 201.201154 214.473093 198.477916 C 229.450905 195.905968 249.270029 191.66982 273.930466 186.072052 C 298.742194 180.322993 320.074228 175.027807 337.926569 170.035203 C 355.930201 165.0426 371.513176 160.352578 384.524204 155.965138 C 397.535232 151.728989 407.671731 148.400587 414.9337 145.979931 C 422.34696 143.710565 429.306347 141.289909 435.963152 139.020543 C 442.619958 136.599887 455.933568 131.607283 476.055274 124.042732 C 496.025689 116.32689 514.785776 108.611048 532.184244 100.743914 C 549.734003 92.876781 559.114046 88.943214 560.324374 88.791923 C 561.383411 88.640632 569.855709 84.858357 585.438684 77.445097 C 601.172951 70.183127 615.394307 63.526322 627.951462 57.474681 C 640.659908 51.574331 653.217063 45.522691 665.471636 39.47105 C 677.8775 33.5707 693.157893 25.703566 711.464107 16.020941 L 738.999074 1.497003 Z M 745.504588 1.497003 " stroke="#000000" stroke-width="2" stroke-opacity="1" stroke-miterlimit="4"/></g></svg>