<svg xmlns="http://www.w3.org/2000/svg" xmlns:xlink="http://www.w3.org/1999/xlink" width="1024" zoomAndPan="magnify" viewBox="0 0 768 767.999994" height="1024" preserveAspectRatio="xMidYMid meet" version="1.0"><defs><clipPath id="2042bebb5f"><path d="M 0 13 L 768 13 L 768 755.066406 L 0 755.066406 Z M 0 13 " clip-rule="nonzero"/></clipPath></defs><g clip-path="url(#2042bebb5f)"><path fill="#11114e" d="M 767.671875 278.273438 C 767.671875 273.894531 765.390625 270.054688 761.933594 267.886719 L 390.796875 15.835938 C 386.457031 12.898438 380.910156 13.109375 376.859375 15.949219 L 5.507812 268.097656 C 2.015625 270.476562 0.113281 274.335938 0.113281 278.273438 L 0 346.953125 C 0 353.726562 5.507812 359.238281 12.285156 359.238281 C 14.855469 359.238281 17.238281 358.449219 19.234375 357.105469 L 39.292969 343.324219 L 39.40625 670.738281 L 25.050781 670.738281 C 18.234375 670.738281 12.707031 676.265625 12.707031 683.078125 L 12.707031 742.660156 C 12.707031 749.476562 18.234375 755.003906 25.050781 755.003906 L 742.738281 755.003906 C 749.554688 755.003906 755.082031 749.476562 755.082031 742.660156 L 755.082031 683.078125 C 755.082031 676.265625 749.554688 670.738281 742.738281 670.738281 L 728.4375 670.738281 L 728.4375 343.304688 L 748.554688 357.125 C 754.160156 360.964844 761.839844 359.503906 765.65625 353.902344 C 767.25 351.578125 767.921875 348.890625 767.789062 346.28125 Z M 730.398438 730.320312 L 37.390625 730.320312 L 37.390625 695.421875 L 716.097656 695.421875 C 716.152344 695.421875 716.191406 695.421875 716.25 695.421875 L 730.398438 695.421875 Z M 703.753906 670.738281 L 63.976562 670.738281 L 63.863281 326.472656 L 94.554688 305.394531 C 110.066406 332 125.941406 359.046875 142.199219 386.550781 C 158.1875 413.617188 175.886719 443.332031 195.234375 475.65625 C 191.164062 482.257812 189.074219 489.746094 189.074219 497.25 C 189.074219 507.386719 192.816406 517.539062 200.28125 525.429688 C 200.78125 526.023438 201.339844 526.582031 201.933594 527.078125 C 209.726562 534.429688 219.707031 538.15625 229.691406 538.25 C 229.785156 548.269531 233.507812 558.273438 240.917969 566.066406 L 241.707031 566.871094 C 249.59375 574.761719 259.941406 578.734375 270.289062 578.832031 C 270.382812 589.097656 274.28125 599.351562 282.015625 607.21875 L 283.128906 608.257812 C 290.882812 615.589844 300.867188 619.292969 310.886719 619.390625 C 310.960938 629.679688 314.878906 639.949219 322.613281 647.816406 L 323.726562 648.875 C 331.617188 656.320312 341.75 660.0625 351.867188 660.0625 C 361.214844 660.0625 370.5625 656.839844 378.164062 650.464844 C 386.074219 658.046875 396.304688 661.867188 406.535156 661.867188 C 416.671875 661.867188 426.84375 658.125 434.734375 650.621094 L 435.558594 649.8125 C 443.449219 641.925781 447.441406 631.578125 447.535156 621.230469 C 457.902344 621.136719 468.265625 617.164062 476.175781 609.253906 L 476.175781 609.195312 C 484.066406 601.308594 488.039062 590.960938 488.152344 580.617188 C 498.421875 580.519531 508.671875 576.621094 516.542969 568.886719 L 516.792969 568.636719 C 524.679688 560.75 528.65625 550.382812 528.769531 540.015625 C 539.15625 539.921875 549.5 535.949219 557.410156 528.039062 C 565.394531 520.054688 569.40625 509.515625 569.40625 499.015625 C 569.40625 492.296875 567.753906 485.578125 564.492188 479.515625 C 584.261719 446.5 602.308594 416.207031 618.546875 388.703125 C 635.839844 359.46875 652.695312 330.75 669.125 302.535156 L 703.753906 326.296875 Z M 547.484375 460.089844 L 383.480469 296.085938 C 383.441406 296.046875 383.425781 296.027344 383.40625 295.988281 C 378.894531 291.476562 371.734375 291.191406 366.898438 295.144531 C 366.570312 295.414062 366.261719 295.683594 365.957031 295.988281 C 365.957031 295.988281 365.9375 296.007812 365.9375 296.007812 L 321.175781 340.789062 C 318.066406 343.632812 314.070312 345.050781 310.078125 345.050781 C 305.953125 345.050781 301.824219 343.515625 298.695312 340.464844 L 298.390625 340.136719 C 295.300781 336.988281 293.746094 332.84375 293.746094 328.699219 C 293.746094 324.492188 295.335938 320.289062 298.503906 317.121094 L 342.578125 273.011719 C 363.921875 254.507812 400.488281 258.136719 433.445312 261.398438 C 443.179688 262.359375 452.621094 263.300781 461.585938 263.703125 C 468.035156 263.992188 474.273438 264.007812 480.1875 263.644531 C 486.503906 263.261719 492.53125 262.4375 498.132812 261.015625 C 520.632812 255.3125 532.050781 236.292969 542.457031 218.9375 C 542.9375 218.152344 543.417969 217.367188 543.875 216.558594 L 648.796875 288.597656 C 632.808594 316.066406 615.648438 345.28125 597.375 376.1875 C 580.5 404.730469 563.878906 432.660156 547.484375 460.089844 Z M 521.324219 206.328125 C 513.433594 219.496094 504.757812 233.929688 492.125 237.117188 C 487.980469 238.171875 483.46875 238.789062 478.710938 239.074219 C 473.546875 239.402344 468.152344 239.363281 462.605469 239.132812 C 454.292969 238.769531 445.175781 237.867188 435.808594 236.925781 C 413.695312 234.738281 390.179688 232.414062 368.605469 235.871094 L 354.707031 236.789062 C 340.984375 237.710938 327.296875 238.652344 316.757812 239.113281 C 311.210938 239.363281 306.453125 239.496094 302.535156 239.476562 C 298.734375 239.460938 295.453125 239.285156 292.628906 238.921875 C 287.46875 238.25 283.800781 236.753906 280.402344 233.910156 C 276.105469 230.304688 271.632812 224.390625 265.605469 215.65625 L 252.742188 196.789062 L 383.902344 106.742188 L 523.550781 202.625 C 522.820312 203.851562 522.070312 205.082031 521.324219 206.328125 Z M 232.414062 210.761719 L 235.390625 215.15625 L 245.332031 229.648438 C 252.609375 240.207031 258.253906 247.539062 264.566406 252.839844 C 271.785156 258.882812 279.25 261.996094 289.425781 263.320312 L 289.484375 263.320312 C 293.359375 263.816406 297.601562 264.046875 302.421875 264.066406 C 306.894531 264.085938 311.691406 263.953125 317.007812 263.722656 L 281.019531 299.65625 C 273.03125 307.640625 269.019531 318.179688 269.019531 328.679688 C 269.019531 339.082031 272.9375 349.503906 280.789062 357.453125 L 281.035156 357.722656 C 289.023438 365.707031 299.542969 369.699219 310.039062 369.699219 C 320.175781 369.699219 330.347656 365.957031 338.238281 358.449219 L 339.0625 357.703125 L 374.652344 322.132812 L 539.960938 487.441406 C 543.128906 490.609375 544.722656 494.8125 544.722656 499.015625 C 544.722656 503.21875 543.128906 507.425781 539.960938 510.609375 C 536.792969 513.777344 532.589844 515.371094 528.386719 515.371094 L 528.386719 515.429688 C 524.222656 515.429688 520.015625 513.816406 516.8125 510.628906 L 440.03125 433.847656 C 435.210938 429.03125 427.398438 429.03125 422.582031 433.847656 C 417.765625 438.667969 417.765625 446.480469 422.582031 451.296875 L 499.09375 527.769531 C 499.191406 527.867188 499.265625 527.980469 499.363281 528.058594 C 499.460938 528.15625 499.554688 528.230469 499.652344 528.328125 L 499.863281 528.539062 C 502.683594 531.609375 504.105469 535.601562 504.105469 539.632812 C 504.105469 543.761719 502.570312 547.886719 499.535156 551.015625 L 499.230469 551.324219 C 496.082031 554.414062 491.914062 555.96875 487.769531 555.96875 C 483.566406 555.96875 479.363281 554.375 476.195312 551.226562 L 399.414062 474.445312 C 394.59375 469.628906 386.785156 469.628906 381.964844 474.445312 C 377.148438 479.265625 377.148438 487.078125 381.964844 491.894531 L 458.726562 568.65625 C 458.726562 568.65625 458.746094 568.675781 458.746094 568.675781 C 458.746094 568.675781 458.746094 568.675781 458.765625 568.695312 C 461.933594 571.863281 463.507812 576.066406 463.507812 580.269531 C 463.507812 584.492188 461.914062 588.714844 458.746094 591.84375 L 458.632812 591.960938 C 455.484375 595.050781 451.316406 596.605469 447.152344 596.605469 C 443.023438 596.605469 438.9375 595.089844 435.789062 592.074219 C 435.710938 592 435.652344 591.921875 435.578125 591.84375 C 434.945312 591.210938 434.253906 590.65625 433.523438 590.195312 C 435.230469 585.585938 436.113281 580.730469 436.113281 575.875 C 436.113281 565.71875 432.351562 555.546875 424.867188 547.65625 L 424.117188 546.851562 C 416.230469 538.960938 405.863281 534.96875 395.480469 534.875 C 395.382812 524.605469 391.46875 514.355469 383.75 506.484375 L 383.5 506.234375 C 378.664062 501.398438 372.886719 498.039062 366.761719 496.136719 C 369.277344 490.707031 370.5625 484.832031 370.5625 478.976562 C 370.5625 468.84375 366.820312 458.667969 359.335938 450.796875 L 358.566406 449.953125 C 350.582031 441.96875 340.042969 437.957031 329.542969 437.957031 C 324.128906 437.957031 318.734375 439.03125 313.648438 441.164062 C 311.769531 434.847656 308.351562 428.898438 303.378906 423.925781 C 295.394531 415.941406 284.855469 411.929688 274.355469 411.929688 C 263.855469 411.929688 253.320312 415.941406 245.332031 423.925781 L 212.527344 456.730469 C 196.347656 429.664062 179.953125 402.101562 163.351562 374.015625 C 146.171875 344.976562 130.007812 317.449219 114.84375 291.421875 Z M 241.496094 509.074219 L 241.226562 509.34375 C 238.117188 512.183594 234.125 513.605469 230.113281 513.605469 C 225.890625 513.605469 221.683594 512.03125 218.539062 508.84375 L 218.019531 508.363281 C 215.199219 505.253906 213.777344 501.261719 213.777344 497.269531 C 213.777344 493.316406 215.199219 489.363281 218.019531 486.25 C 218.75 485.65625 219.421875 484.964844 219.976562 484.234375 L 262.839844 441.390625 C 266.007812 438.226562 270.210938 436.632812 274.414062 436.632812 C 278.617188 436.632812 282.820312 438.226562 285.988281 441.390625 C 289.15625 444.558594 290.75 448.761719 290.75 452.96875 C 290.75 457.171875 289.15625 461.375 285.988281 464.542969 L 241.6875 508.84375 C 241.628906 508.902344 241.570312 508.996094 241.496094 509.074219 Z M 259.136719 526.273438 L 318.007812 467.402344 C 321.175781 464.234375 325.378906 462.640625 329.582031 462.640625 C 333.707031 462.640625 337.835938 464.175781 340.964844 467.210938 L 341.675781 467.882812 C 344.496094 470.972656 345.917969 474.964844 345.917969 478.976562 C 345.917969 483.199219 344.34375 487.402344 341.15625 490.550781 L 325.492188 506.214844 C 325.492188 506.214844 325.472656 506.234375 325.472656 506.234375 L 282.265625 549.441406 C 279.097656 552.609375 274.894531 554.183594 270.691406 554.183594 C 266.46875 554.183594 262.265625 552.609375 259.117188 549.421875 L 258.617188 548.960938 C 255.777344 545.851562 254.355469 541.859375 254.355469 537.847656 C 254.394531 533.644531 255.96875 529.441406 259.136719 526.273438 Z M 299.753906 566.890625 L 300.730469 565.910156 L 342.960938 523.683594 C 346.128906 520.515625 350.332031 518.921875 354.535156 518.921875 C 358.664062 518.921875 362.769531 520.457031 365.917969 523.492188 L 366.226562 523.796875 C 369.316406 526.945312 370.871094 531.109375 370.871094 535.257812 L 370.929688 535.257812 C 370.929688 539.441406 369.316406 543.644531 366.128906 546.832031 L 322.941406 590.019531 L 322.941406 590.039062 L 322.460938 590.519531 C 319.351562 593.359375 315.359375 594.78125 311.347656 594.78125 L 311.347656 594.839844 C 307.160156 594.839844 302.957031 593.246094 299.769531 590.019531 L 299.65625 589.90625 C 296.566406 586.757812 295.011719 582.59375 295.011719 578.425781 C 294.992188 574.242188 296.566406 570.039062 299.753906 566.890625 Z M 340.351562 607.488281 L 383.539062 564.300781 C 386.707031 561.132812 390.910156 559.539062 395.113281 559.539062 C 399.316406 559.539062 403.519531 561.132812 406.6875 564.300781 L 407.1875 564.761719 C 410.027344 567.871094 411.449219 571.863281 411.449219 575.875 C 411.449219 580.078125 409.855469 584.28125 406.6875 587.449219 L 363.019531 631.136719 C 359.910156 633.976562 355.917969 635.398438 351.90625 635.398438 C 347.683594 635.398438 343.480469 633.824219 340.332031 630.636719 L 340.214844 630.523438 C 337.125 627.375 335.570312 623.210938 335.570312 619.042969 C 335.589844 614.839844 337.183594 610.636719 340.351562 607.488281 Z M 418.917969 610.136719 C 421.566406 613.191406 422.929688 617.027344 422.929688 620.867188 C 422.929688 625.089844 421.335938 629.292969 418.1875 632.460938 L 417.6875 632.941406 C 414.578125 635.78125 410.585938 637.203125 406.59375 637.203125 C 402.753906 637.203125 398.914062 635.859375 395.863281 633.191406 Z M 391.0625 81.828125 C 386.976562 78.910156 381.332031 78.679688 376.957031 81.675781 L 24.609375 323.554688 L 24.664062 284.777344 L 383.886719 40.847656 L 743.105469 284.777344 L 743.160156 323.554688 Z M 391.0625 81.828125 " fill-opacity="1" fill-rule="nonzero"/></g></svg>