<svg xmlns="http://www.w3.org/2000/svg" xmlns:xlink="http://www.w3.org/1999/xlink" width="1024" zoomAndPan="magnify" viewBox="0 0 768 767.999994" height="1024" preserveAspectRatio="xMidYMid meet" version="1.0"><defs><clipPath id="f9102cddb2"><path d="M 6 76.800781 L 761.90625 76.800781 L 761.90625 691.050781 L 6 691.050781 Z M 6 76.800781 " clip-rule="nonzero"/></clipPath></defs><g clip-path="url(#f9102cddb2)"><path fill="#11114e" d="M 759.769531 115.261719 L 735.96875 161.335938 L 724.09375 166.625 L 684.5625 149.074219 L 671.195312 190.101562 L 631.753906 172.585938 L 618.390625 213.617188 L 578.953125 196.105469 L 565.546875 237.230469 L 516.542969 259.054688 C 516.582031 261.5 516.542969 263.945312 516.429688 266.386719 C 516.3125 268.832031 516.121094 271.269531 515.855469 273.699219 C 515.589844 276.128906 515.246094 278.550781 514.828125 280.960938 C 514.410156 283.371094 513.917969 285.761719 513.347656 288.140625 C 512.78125 290.519531 512.140625 292.878906 511.425781 295.21875 C 510.710938 297.558594 509.921875 299.871094 509.0625 302.160156 C 508.203125 304.449219 507.273438 306.710938 506.269531 308.941406 C 505.269531 311.175781 504.199219 313.371094 503.0625 315.535156 C 501.925781 317.703125 500.71875 319.828125 499.449219 321.917969 C 498.175781 324.007812 496.839844 326.054688 495.441406 328.0625 C 494.042969 330.066406 492.582031 332.027344 491.0625 333.941406 C 489.539062 335.855469 487.960938 337.722656 486.320312 339.539062 C 484.683594 341.355469 482.992188 343.117188 481.242188 344.828125 C 479.496094 346.539062 477.695312 348.191406 475.84375 349.789062 C 473.992188 351.386719 472.089844 352.925781 470.144531 354.40625 C 468.195312 355.882812 466.203125 357.300781 464.167969 358.65625 C 462.132812 360.011719 460.054688 361.300781 457.9375 362.523438 C 455.820312 363.75 453.667969 364.90625 451.480469 365.996094 C 449.289062 367.089844 447.070312 368.109375 444.816406 369.0625 C 442.5625 370.011719 440.28125 370.894531 437.976562 371.703125 C 435.667969 372.511719 433.335938 373.246094 430.980469 373.910156 C 428.628906 374.574219 426.257812 375.164062 423.867188 375.679688 C 421.472656 376.195312 419.070312 376.636719 416.652344 377 C 414.234375 377.367188 411.804688 377.65625 409.371094 377.867188 C 406.933594 378.082031 404.492188 378.21875 402.046875 378.28125 C 399.601562 378.339844 397.160156 378.324219 394.714844 378.234375 C 392.269531 378.140625 389.832031 377.972656 387.398438 377.730469 C 384.964844 377.484375 382.542969 377.167969 380.128906 376.769531 C 377.714844 376.375 375.316406 375.90625 372.933594 375.359375 C 370.546875 374.8125 368.183594 374.195312 365.835938 373.503906 C 363.492188 372.808594 361.171875 372.042969 358.875 371.207031 C 356.574219 370.367188 354.304688 369.457031 352.066406 368.476562 C 355.257812 359.261719 357.359375 349.804688 358.371094 340.105469 C 359.378906 330.40625 359.273438 320.71875 358.050781 311.042969 C 358.757812 310.46875 359.441406 309.863281 360.09375 309.226562 C 360.75 308.589844 361.375 307.925781 361.96875 307.234375 C 362.5625 306.539062 363.125 305.820312 363.652344 305.078125 C 364.183594 304.335938 364.679688 303.570312 365.140625 302.78125 C 365.601562 301.992188 366.023438 301.183594 366.410156 300.359375 C 366.800781 299.53125 367.148438 298.691406 367.460938 297.832031 C 367.773438 296.972656 368.046875 296.105469 368.28125 295.222656 C 368.511719 294.339844 368.707031 293.449219 368.859375 292.546875 C 369.011719 291.648438 369.125 290.742188 369.199219 289.832031 C 369.269531 288.921875 369.300781 288.011719 369.289062 287.097656 C 369.28125 286.1875 369.226562 285.273438 369.136719 284.367188 C 369.042969 283.460938 368.910156 282.558594 368.738281 281.660156 C 368.5625 280.765625 368.347656 279.878906 368.097656 279 C 367.84375 278.125 367.550781 277.261719 367.21875 276.410156 C 366.886719 275.558594 366.519531 274.726562 366.113281 273.90625 C 365.707031 273.089844 365.261719 272.292969 364.785156 271.515625 C 364.304688 270.738281 363.792969 269.984375 363.246094 269.253906 C 362.699219 268.519531 362.121094 267.816406 361.511719 267.136719 C 360.902344 266.457031 360.265625 265.804688 359.59375 265.183594 C 358.925781 264.5625 358.230469 263.972656 357.511719 263.414062 C 356.789062 262.855469 356.042969 262.328125 355.273438 261.835938 C 354.503906 261.34375 353.714844 260.890625 352.90625 260.46875 C 352.09375 260.046875 351.269531 259.664062 350.421875 259.316406 C 349.578125 258.972656 348.71875 258.664062 347.847656 258.394531 C 346.976562 258.125 346.09375 257.898438 345.199219 257.707031 C 344.308594 257.519531 343.40625 257.371094 342.5 257.261719 C 341.59375 257.152344 340.683594 257.085938 339.773438 257.058594 C 338.859375 257.03125 337.949219 257.046875 337.035156 257.101562 C 336.125 257.160156 335.21875 257.257812 334.316406 257.394531 C 333.414062 257.53125 332.519531 257.707031 331.632812 257.925781 C 330.746094 258.144531 329.871094 258.402344 329.007812 258.699219 C 328.144531 258.996094 327.296875 259.332031 326.464844 259.703125 C 326.050781 259.890625 325.707031 260.164062 325.300781 260.367188 C 332.445312 267.664062 338.03125 276.003906 342.058594 285.390625 C 346.410156 295.0625 349.105469 305.179688 350.148438 315.734375 C 351.683594 331.507812 349.589844 348.203125 344.109375 364.691406 C 340.855469 374.941406 336.410156 384.644531 330.78125 393.804688 C 326.132812 401.1875 320.796875 408.03125 314.769531 414.335938 C 308.746094 420.644531 302.152344 426.289062 294.992188 431.269531 C 276.503906 444.128906 255.6875 451.269531 235.503906 451.269531 C 231.484375 451.257812 227.488281 450.960938 223.511719 450.378906 C 215.78125 449.273438 208.378906 447.070312 201.304688 443.765625 C 198.335938 442.421875 195.464844 440.894531 192.691406 439.183594 C 187.796875 436.042969 183.308594 432.398438 179.230469 428.253906 C 175.148438 424.109375 171.574219 419.566406 168.511719 414.621094 C 167.574219 417.699219 167.082031 420.84375 167.039062 424.058594 C 167.039062 425.1875 167.09375 426.3125 167.203125 427.4375 C 167.316406 428.558594 167.480469 429.675781 167.699219 430.78125 C 167.921875 431.890625 168.195312 432.984375 168.523438 434.0625 C 168.851562 435.144531 169.230469 436.207031 169.660156 437.25 C 170.09375 438.292969 170.574219 439.308594 171.109375 440.304688 C 171.640625 441.300781 172.21875 442.269531 172.847656 443.207031 C 173.472656 444.144531 174.144531 445.050781 174.863281 445.925781 C 175.578125 446.796875 176.335938 447.632812 177.132812 448.429688 C 177.929688 449.230469 178.765625 449.984375 179.636719 450.703125 C 180.511719 451.417969 181.417969 452.089844 182.355469 452.71875 C 183.292969 453.34375 184.261719 453.925781 185.257812 454.457031 C 186.25 454.988281 187.269531 455.472656 188.3125 455.902344 C 189.355469 456.335938 190.417969 456.714844 191.5 457.042969 C 192.578125 457.371094 193.671875 457.644531 194.777344 457.867188 C 195.886719 458.085938 197 458.25 198.125 458.363281 C 199.25 458.472656 200.375 458.527344 201.503906 458.53125 C 205.480469 458.492188 209.332031 457.78125 213.0625 456.394531 C 220.378906 458.410156 227.832031 459.46875 235.421875 459.582031 C 257.960938 459.582031 281.167969 451.515625 301.507812 436.890625 L 396.6875 518.96875 L 369.304688 550.722656 L 324.847656 512.390625 L 324.847656 691.183594 L 239.652344 691.183594 L 239.652344 570.527344 L 163.355469 570.527344 L 163.355469 691.183594 L 78.164062 691.183594 L 78.164062 512.386719 L 33.710938 550.71875 L 25.960938 541.730469 L 6.328125 518.96875 L 157.570312 388.542969 L 172.679688 375.515625 L 201.507812 350.652344 L 274.660156 413.738281 C 262.160156 421.207031 248.746094 425.039062 235.882812 425 C 235.890625 424.679688 235.976562 424.382812 235.976562 424.0625 C 235.984375 422.429688 235.878906 420.800781 235.65625 419.183594 C 235.429688 417.566406 235.09375 415.972656 234.640625 414.402344 C 234.191406 412.835938 233.628906 411.304688 232.960938 409.816406 C 232.289062 408.324219 231.515625 406.890625 230.640625 405.511719 C 229.765625 404.132812 228.800781 402.824219 227.738281 401.582031 C 226.675781 400.34375 225.53125 399.183594 224.300781 398.105469 C 223.074219 397.027344 221.777344 396.042969 220.410156 395.152344 C 219.039062 394.261719 217.617188 393.46875 216.132812 392.78125 C 214.652344 392.09375 213.128906 391.515625 211.566406 391.042969 C 210.003906 390.574219 208.414062 390.214844 206.796875 389.972656 C 205.183594 389.730469 203.558594 389.601562 201.925781 389.589844 C 200.292969 389.578125 198.667969 389.683594 197.050781 389.902344 C 195.429688 390.125 193.835938 390.457031 192.265625 390.90625 C 190.695312 391.355469 189.164062 391.914062 187.675781 392.582031 C 186.183594 393.246094 184.75 394.015625 183.367188 394.890625 C 181.988281 395.761719 180.675781 396.726562 179.433594 397.789062 C 184.566406 408.539062 191.957031 417.828125 202.539062 424.429688 C 212.261719 430.457031 223.222656 433.160156 234.546875 433.355469 C 250.101562 433.625 266.242188 428.683594 281.070312 419.269531 C 288.085938 414.816406 294.523438 409.644531 300.386719 403.757812 C 306.25 397.871094 311.390625 391.414062 315.816406 384.382812 C 321.511719 375.21875 325.828125 365.453125 328.769531 355.074219 C 330.628906 348.96875 331.898438 342.746094 332.574219 336.398438 C 333.253906 330.050781 333.324219 323.699219 332.796875 317.339844 C 331.925781 308.847656 329.738281 300.714844 326.226562 292.933594 C 322.941406 285.261719 318.335938 278.484375 312.414062 272.605469 C 311.917969 273.464844 311.46875 274.347656 311.058594 275.253906 C 310.652344 276.15625 310.289062 277.078125 309.972656 278.019531 C 309.65625 278.960938 309.386719 279.914062 309.164062 280.882812 C 308.941406 281.851562 308.769531 282.824219 308.644531 283.8125 C 308.515625 284.796875 308.441406 285.785156 308.410156 286.777344 C 308.382812 287.769531 308.402344 288.757812 308.472656 289.75 C 308.542969 290.738281 308.660156 291.722656 308.828125 292.703125 C 308.996094 293.679688 309.207031 294.648438 309.472656 295.605469 C 309.734375 296.5625 310.042969 297.503906 310.398438 298.433594 C 310.753906 299.359375 311.152344 300.265625 311.597656 301.152344 C 312.042969 302.039062 312.53125 302.902344 313.0625 303.742188 C 313.589844 304.582031 314.160156 305.394531 314.769531 306.175781 C 315.382812 306.957031 316.027344 307.710938 316.714844 308.429688 C 317.398438 309.148438 318.117188 309.832031 318.867188 310.480469 C 319.621094 311.125 320.402344 311.734375 321.214844 312.304688 C 322.027344 312.878906 322.863281 313.40625 323.730469 313.894531 C 324.617188 319.820312 324.902344 325.773438 324.582031 331.757812 C 324.265625 337.742188 323.351562 343.632812 321.839844 349.429688 C 316.636719 344.90625 311.871094 339.957031 307.542969 334.585938 C 304.617188 330.929688 301.910156 327.125 299.414062 323.167969 C 299.105469 322.675781 298.777344 322.199219 298.476562 321.703125 C 295.871094 317.496094 293.554688 313.132812 291.527344 308.621094 C 289.847656 304.847656 288.375 300.996094 287.097656 297.066406 C 286.789062 296.113281 286.59375 295.144531 286.3125 294.1875 C 285.429688 291.222656 284.578125 288.253906 283.9375 285.265625 C 283.738281 284.324219 283.640625 283.382812 283.460938 282.4375 C 282.894531 279.394531 282.363281 276.355469 282.042969 273.304688 C 281.960938 272.539062 281.953125 271.78125 281.886719 271.015625 C 281.609375 267.75 281.402344 264.484375 281.394531 261.234375 C 281.394531 260.734375 281.4375 260.238281 281.441406 259.742188 C 281.453125 258.65625 281.570312 257.574219 281.609375 256.496094 C 281.707031 254.0625 281.746094 251.621094 282.097656 248.410156 C 282.445312 245.195312 282.964844 242.035156 283.570312 238.882812 C 283.675781 238.375 283.703125 237.851562 283.863281 237.101562 C 285.464844 229.417969 287.800781 221.96875 290.875 214.746094 C 291.792969 212.585938 292.773438 210.453125 293.816406 208.351562 C 294.859375 206.25 295.964844 204.179688 297.132812 202.144531 C 298.300781 200.109375 299.527344 198.109375 300.816406 196.148438 C 302.105469 194.183594 303.449219 192.261719 304.851562 190.382812 C 306.253906 188.5 307.714844 186.660156 309.226562 184.867188 C 310.742188 183.074219 312.304688 181.328125 313.921875 179.625 C 315.542969 177.925781 317.210938 176.273438 318.925781 174.675781 C 320.644531 173.074219 322.40625 171.527344 324.214844 170.03125 C 326.027344 168.539062 327.878906 167.097656 329.773438 165.714844 C 331.671875 164.332031 333.605469 163.007812 335.582031 161.738281 C 337.558594 160.472656 339.570312 159.265625 341.617188 158.117188 C 343.664062 156.96875 345.746094 155.886719 347.859375 154.863281 C 349.972656 153.839844 352.113281 152.882812 354.285156 151.988281 C 356.453125 151.097656 358.648438 150.269531 360.867188 149.507812 C 363.089844 148.746094 365.328125 148.050781 367.589844 147.421875 C 369.851562 146.792969 372.132812 146.234375 374.425781 145.746094 C 376.722656 145.253906 379.03125 144.832031 381.351562 144.480469 C 383.671875 144.125 386 143.84375 388.335938 143.628906 C 390.675781 143.417969 393.015625 143.273438 395.363281 143.203125 C 397.707031 143.128906 400.054688 143.128906 402.402344 143.195312 C 404.746094 143.261719 407.089844 143.402344 409.425781 143.609375 C 411.765625 143.820312 414.09375 144.097656 416.414062 144.445312 C 418.738281 144.792969 421.046875 145.210938 423.339844 145.699219 C 425.636719 146.183594 427.917969 146.738281 430.179688 147.363281 C 432.441406 147.988281 434.683594 148.675781 436.90625 149.433594 C 439.128906 150.191406 441.324219 151.015625 443.496094 151.90625 C 445.667969 152.796875 447.8125 153.75 449.925781 154.769531 C 452.042969 155.785156 454.125 156.867188 456.175781 158.007812 C 458.222656 159.152344 460.238281 160.355469 462.214844 161.621094 C 464.195312 162.882812 466.132812 164.203125 468.03125 165.585938 C 469.929688 166.964844 471.785156 168.398438 473.597656 169.890625 C 475.410156 171.382812 477.175781 172.925781 478.898438 174.523438 L 698.324219 76.800781 L 737.078125 86.945312 L 519.886719 183.667969 L 526.085938 197.59375 L 755.765625 95.308594 C 756.121094 95.816406 756.433594 96.351562 756.707031 96.910156 L 760.082031 104.484375 C 760.460938 105.335938 760.742188 106.222656 760.921875 107.136719 C 761.101562 108.050781 761.179688 108.976562 761.152344 109.910156 C 761.125 110.84375 760.996094 111.761719 760.761719 112.664062 C 760.527344 113.566406 760.199219 114.433594 759.769531 115.261719 Z M 171.863281 360.539062 C 171.996094 355.585938 172.464844 350.667969 173.261719 345.777344 C 174.0625 340.890625 175.1875 336.078125 176.640625 331.339844 C 178.089844 326.605469 179.855469 321.988281 181.929688 317.488281 C 184.007812 312.992188 186.375 308.652344 189.039062 304.476562 C 208.472656 273.65625 239.300781 255.726562 268.046875 255.273438 C 268.289062 249.367188 268.9375 243.503906 269.980469 237.683594 C 234.734375 237.429688 197.238281 258.304688 174.078125 295.042969 C 157.863281 320.769531 151.761719 349.46875 154.789062 375.257812 Z M 171.863281 360.539062 " fill-opacity="1" fill-rule="nonzero"/></g></svg>