<svg xmlns="http://www.w3.org/2000/svg" xmlns:xlink="http://www.w3.org/1999/xlink" width="500" zoomAndPan="magnify" viewBox="0 0 375 374.999991" height="500" preserveAspectRatio="xMidYMid meet" version="1.0"><defs><clipPath id="62e070878a"><path d="M 7.96875 291 L 367 291 L 367 375 L 7.96875 375 Z M 7.96875 291 " clip-rule="nonzero"/></clipPath></defs><g clip-path="url(#62e070878a)"><path fill="#11114e" d="M 13.132812 291.941406 L 361.769531 291.941406 C 364.640625 291.941406 366.96875 294.269531 366.96875 297.136719 L 366.96875 369.4375 C 366.96875 372.308594 364.640625 374.636719 361.769531 374.636719 L 13.132812 374.636719 C 10.261719 374.636719 7.933594 372.308594 7.933594 369.4375 L 7.933594 297.136719 C 7.933594 294.269531 10.261719 291.941406 13.132812 291.941406 Z M 13.132812 291.941406 " fill-opacity="1" fill-rule="evenodd"/></g><path fill="#11114e" d="M 311.449219 204.445312 L 296.570312 237.984375 C 295.894531 239.511719 294.8125 240.761719 293.464844 241.636719 C 292.113281 242.515625 290.539062 243 288.886719 243 C 287.230469 243 285.660156 242.515625 284.308594 241.636719 C 282.960938 240.761719 281.878906 239.511719 281.199219 237.984375 L 266.324219 204.445312 L 266.34375 204.4375 C 265.753906 203.105469 265.515625 201.730469 265.621094 200.390625 C 265.652344 200.011719 265.707031 199.636719 265.789062 199.269531 C 265.660156 198.816406 265.589844 198.339844 265.589844 197.84375 L 265.589844 23.65625 C 265.589844 17.246094 268.203125 11.421875 272.425781 7.195312 C 276.628906 2.972656 282.453125 0.363281 288.886719 0.363281 C 295.316406 0.363281 301.144531 2.972656 305.359375 7.1875 C 309.574219 11.398438 312.183594 17.226562 312.183594 23.65625 L 312.183594 32.871094 L 312.179688 33.003906 L 312.179688 197.84375 C 312.179688 198.339844 312.109375 198.816406 311.984375 199.269531 C 312.066406 199.640625 312.121094 200.011719 312.152344 200.390625 C 312.242188 201.53125 312.082031 202.695312 311.671875 203.835938 Z M 311.449219 204.445312 " fill-opacity="1" fill-rule="evenodd"/><path fill="#11114e" d="M 83.253906 79.324219 C 81.933594 77.007812 80.636719 74.738281 79.238281 71.964844 C 78.09375 69.980469 78.371094 67.394531 80.074219 65.703125 L 96.917969 48.894531 C 98.199219 47.5 100.199219 46.859375 102.148438 47.40625 C 104.585938 48.085938 113.753906 53.441406 117.757812 55.78125 L 118.707031 56.347656 C 119.476562 55.957031 120.546875 55.421875 122.382812 54.601562 C 123.367188 54.160156 124.574219 53.75 125.878906 53.308594 L 125.898438 53.308594 C 127.308594 52.835938 128.804688 52.382812 129.394531 52.183594 C 129.640625 51.269531 130.351562 48.300781 131.078125 45.261719 C 132.050781 41.214844 133.046875 37.0625 134.164062 34.6875 C 134.929688 32.773438 136.804688 31.417969 138.992188 31.417969 L 163.257812 31.417969 L 163.257812 31.4375 C 165.078125 31.4375 166.839844 32.398438 167.785156 34.101562 C 168.84375 36.007812 170.800781 43.527344 172.164062 48.808594 L 173.039062 52.160156 L 173.054688 52.101562 C 174.515625 52.519531 176.585938 53.128906 179.59375 54.476562 C 180.910156 55.066406 181.980469 55.601562 182.847656 56.042969 L 183.238281 56.222656 C 183.855469 56.539062 183.019531 56.730469 183.605469 56.71875 C 184.167969 56.710938 183.53125 56.4375 184.582031 55.8125 C 185.851562 55.066406 187.183594 54.335938 188.429688 53.558594 C 191.542969 51.742188 196.949219 48.589844 199.488281 47.613281 C 201.378906 46.816406 203.644531 47.1875 205.179688 48.734375 L 222.164062 65.746094 C 223.734375 67.332031 224.160156 69.820312 223.039062 71.878906 C 220.550781 76.449219 217.96875 81.011719 215.515625 85.589844 C 214.621094 87.128906 214.117188 86.429688 214.152344 87.011719 L 214.160156 87.0625 C 214.207031 87.472656 214.234375 86.875 214.433594 87.230469 C 215.414062 88.996094 217.03125 91.910156 218.917969 97.917969 L 221.300781 98.523438 C 222.21875 98.785156 223.542969 99.121094 225.039062 99.5 C 229.191406 100.550781 234.542969 101.910156 236.714844 103.070312 C 238.347656 103.941406 239.457031 105.664062 239.457031 107.640625 L 239.511719 131.464844 C 239.683594 133.492188 238.648438 135.515625 236.730469 136.515625 C 234.6875 137.578125 227.554688 139.410156 222.3125 140.75 L 218.542969 141.730469 L 218.695312 141.777344 C 218.746094 141.773438 218.777344 141.78125 218.773438 141.800781 C 218.34375 143.261719 217.730469 145.324219 216.445312 148.230469 C 215.769531 149.757812 215.113281 151.027344 214.605469 152.003906 L 214.464844 152.292969 C 214.351562 152.503906 214.261719 152.308594 214.203125 152.15625 L 214.121094 152.113281 L 214.121094 152.238281 C 214.128906 152.910156 214.332031 151.945312 214.789062 152.738281 C 215.152344 153.367188 215.597656 154.128906 216.414062 155.617188 C 216.695312 156.136719 217.488281 157.445312 218.351562 158.882812 C 220.363281 162.203125 222.792969 166.222656 223.507812 168.742188 C 223.996094 170.5 223.550781 172.464844 222.167969 173.839844 L 205.335938 190.652344 C 204.054688 192.050781 202.054688 192.691406 200.105469 192.144531 C 197.859375 191.511719 194.140625 189.292969 191.554688 187.730469 C 189.742188 186.730469 187.941406 185.550781 186.175781 184.46875 C 184.335938 183.332031 183.675781 182.808594 183.5625 182.796875 C 183.042969 182.742188 183.695312 183.050781 182.957031 183.425781 C 181.871094 183.980469 180.480469 184.691406 178.726562 185.460938 C 177.769531 185.878906 176.65625 186.222656 175.484375 186.582031 L 172.859375 187.378906 C 172.609375 188.289062 171.960938 190.980469 171.28125 193.820312 L 171.199219 194.257812 C 170.152344 198.648438 169.070312 203.167969 167.785156 205.464844 C 166.886719 207.035156 165.199219 208.101562 163.257812 208.101562 L 139.144531 208.160156 C 137.257812 208.214844 135.40625 207.230469 134.441406 205.460938 C 133.238281 203.253906 132.152344 198.753906 131.101562 194.363281 C 130.367188 191.308594 129.644531 188.316406 129.402344 187.398438 L 126.792969 186.605469 C 125.710938 186.273438 124.695312 185.964844 123.84375 185.601562 C 121.636719 184.660156 120.121094 183.878906 118.996094 183.296875 C 118.402344 182.988281 119.410156 182.703125 118.753906 182.765625 C 118.5 182.789062 118.277344 183.1875 116.773438 184.121094 C 115.554688 184.875 114 185.832031 112.320312 186.816406 L 110.945312 187.632812 C 108.347656 189.175781 104.417969 191.511719 102.152344 192.164062 C 100.394531 192.652344 98.433594 192.207031 97.054688 190.824219 L 80.074219 173.800781 C 78.808594 172.523438 78.242188 170.625 78.753906 168.765625 C 79.453125 166.230469 82.203125 161.636719 84.21875 158.265625 C 84.722656 157.421875 85.152344 156.710938 85.679688 155.769531 L 85.695312 155.777344 C 86.53125 154.296875 86.988281 153.53125 87.355469 152.917969 C 87.863281 152.066406 88.074219 152.839844 88.089844 152.25 C 88.109375 151.601562 87.921875 152.609375 87.640625 152.058594 C 87.191406 151.171875 86.59375 150.003906 85.804688 148.230469 C 84.804688 145.96875 84.230469 144.140625 83.773438 142.679688 C 83.566406 142.019531 85.21875 142.238281 84.585938 141.976562 L 84.414062 141.921875 C 83.328125 141.546875 80.78125 140.917969 78.007812 140.230469 C 73.273438 139.066406 67.914062 137.742188 65.539062 136.476562 C 63.90625 135.601562 62.796875 133.882812 62.796875 131.90625 L 62.738281 108.082031 C 62.566406 106.054688 63.605469 104.027344 65.519531 103.03125 C 67.53125 101.984375 74.925781 100.074219 80.214844 98.707031 L 83.644531 97.820312 L 83.46875 97.769531 C 83.902344 96.308594 84.511719 94.238281 85.804688 91.316406 C 86.46875 89.824219 87.152344 88.488281 87.671875 87.480469 C 87.722656 87.375 87.769531 87.332031 87.8125 87.324219 L 87.375 86.703125 L 87.390625 86.691406 L 85.820312 83.933594 C 84.621094 81.71875 83.929688 80.511719 83.253906 79.324219 Z M 83.253906 79.324219 " fill-opacity="1" fill-rule="evenodd"/><path fill="#d3d3d3" d="M 73.101562 111.328125 L 73.144531 128.273438 C 75.171875 128.847656 77.929688 129.53125 80.484375 130.160156 C 83.460938 130.894531 86.191406 131.566406 87.824219 132.132812 L 88.140625 132.257812 C 91.820312 133.644531 92.511719 135.847656 93.6875 139.59375 C 94.058594 140.785156 94.527344 142.273438 95.3125 144.046875 C 95.921875 145.429688 96.484375 146.519531 96.902344 147.347656 C 97.953125 149.410156 98.503906 150.492188 98.445312 152.53125 C 98.386719 154.652344 97.695312 155.8125 96.25 158.238281 C 95.753906 159.058594 95.152344 160.070312 94.71875 160.839844 L 94.738281 160.847656 L 93.113281 163.585938 C 92.09375 165.292969 90.851562 167.367188 89.945312 169.019531 L 101.839844 180.941406 C 103.089844 180.242188 104.523438 179.386719 105.644531 178.71875 C 106.128906 178.445312 106.601562 178.132812 107.089844 177.859375 C 109.070312 176.703125 110.328125 175.921875 111.328125 175.304688 C 114.214844 173.519531 115.605469 172.660156 117.738281 172.449219 C 120.136719 172.214844 121.375 172.851562 123.746094 174.078125 C 124.714844 174.578125 126.019531 175.253906 127.90625 176.054688 C 128.289062 176.21875 129.042969 176.449219 129.84375 176.695312 L 130.070312 176.773438 C 132.5 177.515625 135.226562 178.394531 136.9375 180.085938 L 137.277344 180.457031 C 138.855469 182.332031 140 187.085938 141.171875 191.96875 C 141.671875 194.050781 142.179688 196.164062 142.628906 197.796875 L 159.621094 197.753906 C 160.066406 196.113281 160.582031 193.972656 161.082031 191.863281 L 161.210938 191.414062 C 162.316406 186.789062 163.40625 182.375 164.921875 180.519531 L 165.285156 180.109375 C 167.097656 178.316406 169.90625 177.449219 172.433594 176.671875 C 173.320312 176.402344 174.15625 176.144531 174.582031 175.957031 C 176.261719 175.21875 177.378906 174.652344 178.242188 174.207031 C 180.800781 172.902344 182.132812 172.222656 184.621094 172.480469 C 186.863281 172.71875 188.410156 173.671875 191.617188 175.652344 C 192.421875 176.152344 193.390625 176.753906 195.367188 177.925781 L 196.550781 178.632812 L 196.917969 178.875 C 197.980469 179.523438 199.261719 180.292969 200.398438 180.929688 L 212.292969 169.050781 C 211.488281 167.597656 210.417969 165.828125 209.460938 164.242188 C 208.695312 162.980469 208 161.832031 207.3125 160.570312 C 206.878906 159.773438 206.28125 158.742188 205.8125 157.9375 C 204.445312 155.578125 203.796875 154.464844 203.765625 152.363281 C 203.738281 150.410156 204.273438 149.378906 205.28125 147.460938 L 205.429688 147.199219 C 205.792969 146.503906 206.269531 145.5625 206.941406 144.046875 C 208.007812 141.640625 208.484375 140.023438 208.824219 138.875 C 210.101562 134.539062 210.5 133.195312 215.410156 131.851562 L 219.753906 130.71875 C 222.808594 129.9375 226.582031 128.96875 229.148438 128.226562 L 229.109375 111.296875 C 227.203125 110.757812 224.679688 110.121094 222.519531 109.574219 C 220.847656 109.148438 219.363281 108.769531 218.457031 108.515625 L 217.203125 108.183594 C 216.324219 107.964844 215.40625 107.738281 214.421875 107.398438 L 214.414062 107.417969 C 210.550781 106.089844 210.28125 105.210938 209.332031 102.007812 L 209.128906 101.300781 C 207.519531 96.132812 206.183594 93.71875 205.378906 92.269531 C 204.546875 90.769531 204.027344 89.832031 203.84375 88.238281 L 203.824219 88.042969 C 203.578125 85.496094 204.410156 84.054688 206.539062 80.390625 L 207.496094 78.757812 L 212.085938 70.328125 L 200.433594 58.648438 C 198.359375 59.796875 195.550781 61.4375 193.671875 62.535156 C 192.398438 63.226562 191.113281 64.015625 189.863281 64.75 C 187.238281 66.308594 186.003906 67.035156 183.765625 67.074219 C 181.714844 67.109375 180.605469 66.542969 178.523438 65.480469 L 178.140625 65.265625 C 177.449219 64.914062 176.570312 64.476562 175.371094 63.941406 C 172.964844 62.859375 171.328125 62.382812 170.175781 62.046875 C 165.867188 60.785156 164.558594 60.398438 163.210938 55.484375 L 162.140625 51.394531 C 161.347656 48.320312 160.332031 44.402344 159.597656 41.816406 L 142.609375 41.816406 C 142.160156 43.453125 141.652344 45.570312 141.152344 47.660156 C 140 52.464844 138.878906 57.140625 137.308594 59.050781 L 136.960938 59.433594 C 135.320312 61.0625 132.050781 62.171875 129.207031 63.132812 C 128.066406 63.523438 127.019531 63.878906 126.605469 64.0625 C 125.300781 64.644531 124.085938 65.265625 123.195312 65.722656 C 121.914062 66.375 121.144531 66.765625 119.964844 67.007812 C 117.355469 67.550781 116.402344 67 114.054688 65.640625 L 112.527344 64.75 C 109.910156 63.234375 104.902344 60.308594 101.835938 58.636719 L 90.09375 70.351562 C 90.800781 71.636719 91.53125 72.914062 92.265625 74.207031 C 93.3125 76.039062 94.375 77.902344 94.957031 78.980469 L 95.09375 79.253906 C 95.78125 80.519531 96.105469 81.082031 96.371094 81.542969 L 96.390625 81.542969 C 97.753906 83.921875 98.402344 85.054688 98.433594 87.179688 C 98.460938 89.128906 97.917969 90.179688 96.890625 92.191406 C 96.535156 92.882812 96.058594 93.808594 95.3125 95.5 C 94.238281 97.921875 93.757812 99.546875 93.417969 100.691406 C 92.140625 105.019531 91.746094 106.34375 86.878906 107.671875 L 82.8125 108.734375 C 79.691406 109.546875 75.75 110.566406 73.101562 111.328125 Z M 181.144531 149.8125 C 173.464844 157.496094 162.847656 162.25 151.125 162.25 C 139.40625 162.25 128.792969 157.496094 121.113281 149.8125 C 113.429688 142.132812 108.675781 131.519531 108.675781 119.800781 C 108.675781 108.078125 113.429688 97.464844 121.113281 89.78125 L 121.414062 89.507812 C 129.070312 81.988281 139.5625 77.347656 151.125 77.347656 C 162.847656 77.347656 173.464844 82.101562 181.144531 89.78125 L 181.421875 90.082031 C 188.9375 97.742188 193.578125 108.234375 193.578125 119.800781 C 193.578125 131.507812 188.824219 142.113281 181.144531 149.796875 Z M 181.144531 149.8125 " fill-opacity="1" fill-rule="evenodd"/><path fill="#f95f06" d="M 275.988281 38.066406 L 301.78125 38.066406 L 301.78125 192.644531 L 275.988281 192.644531 Z M 275.988281 38.066406 " fill-opacity="1" fill-rule="evenodd"/><path fill="#f95f06" d="M 275.988281 27.671875 L 301.785156 27.671875 L 301.785156 23.65625 C 301.785156 20.09375 300.339844 16.867188 298.007812 14.535156 C 295.675781 12.203125 292.449219 10.757812 288.886719 10.757812 C 285.324219 10.757812 282.097656 12.203125 279.765625 14.535156 L 279.746094 14.535156 C 277.425781 16.855469 275.988281 20.082031 275.988281 23.65625 Z M 275.988281 27.671875 " fill-opacity="1" fill-rule="evenodd"/><path fill="#f95f06" d="M 300.710938 203.042969 L 277.0625 203.042969 L 288.886719 229.703125 Z M 300.710938 203.042969 " fill-opacity="1" fill-rule="evenodd"/><path fill="#ffffff" d="M 202.457031 341.191406 C 199.585938 341.191406 197.257812 338.863281 197.257812 335.992188 L 197.257812 302.335938 L 177.640625 302.335938 L 177.640625 321.269531 C 177.640625 324.140625 175.3125 326.46875 172.441406 326.46875 C 169.574219 326.46875 167.242188 324.140625 167.242188 321.269531 L 167.242188 302.335938 L 147.625 302.335938 L 147.625 335.992188 C 147.625 338.863281 145.296875 341.191406 142.429688 341.191406 C 139.558594 341.191406 137.230469 338.863281 137.230469 335.992188 L 137.230469 302.335938 L 117.613281 302.335938 L 117.613281 321.269531 C 117.613281 324.140625 115.28125 326.46875 112.414062 326.46875 C 109.542969 326.46875 107.214844 324.140625 107.214844 321.269531 L 107.214844 302.335938 L 87.597656 302.335938 L 87.597656 335.992188 C 87.597656 338.863281 85.269531 341.191406 82.398438 341.191406 C 79.527344 341.191406 77.199219 338.863281 77.199219 335.992188 L 77.199219 302.335938 L 57.582031 302.335938 L 57.582031 321.269531 C 57.582031 324.140625 55.253906 326.46875 52.382812 326.46875 C 49.511719 326.46875 47.183594 324.140625 47.183594 321.269531 L 47.183594 302.335938 L 18.332031 302.335938 L 18.332031 364.242188 L 356.570312 364.242188 L 356.570312 302.335938 L 327.714844 302.335938 L 327.714844 335.992188 C 327.714844 338.863281 325.386719 341.191406 322.515625 341.191406 C 319.648438 341.191406 317.320312 338.863281 317.320312 335.992188 L 317.320312 302.335938 L 297.703125 302.335938 L 297.703125 321.269531 C 297.703125 324.140625 295.375 326.46875 292.503906 326.46875 C 289.632812 326.46875 287.304688 324.140625 287.304688 321.269531 L 287.304688 302.335938 L 267.683594 302.335938 L 267.683594 335.992188 C 267.683594 338.863281 265.355469 341.191406 262.488281 341.191406 C 259.617188 341.191406 257.289062 338.863281 257.289062 335.992188 L 257.289062 302.335938 L 237.671875 302.335938 L 237.671875 321.269531 C 237.671875 324.140625 235.34375 326.46875 232.472656 326.46875 C 229.601562 326.46875 227.273438 324.140625 227.273438 321.269531 L 227.273438 302.335938 L 207.65625 302.335938 L 207.65625 335.992188 C 207.65625 338.863281 205.328125 341.191406 202.457031 341.191406 Z M 202.457031 341.191406 " fill-opacity="1" fill-rule="evenodd"/><path fill="#11114e" d="M 332.863281 243.847656 C 330.832031 241.820312 330.832031 238.527344 332.863281 236.496094 C 334.890625 234.46875 338.183594 234.46875 340.210938 236.496094 L 357.371094 253.65625 L 357.375 253.664062 L 357.453125 253.75 L 357.464844 253.761719 L 357.554688 253.863281 L 357.617188 253.9375 L 357.640625 253.964844 L 357.695312 254.035156 L 357.722656 254.066406 L 357.773438 254.132812 L 357.800781 254.167969 L 357.847656 254.234375 L 357.875 254.277344 L 357.917969 254.339844 L 357.949219 254.382812 L 357.984375 254.441406 L 358.019531 254.492188 L 358.054688 254.550781 L 358.085938 254.601562 L 358.117188 254.65625 L 358.148438 254.714844 L 358.175781 254.765625 L 358.210938 254.828125 L 358.269531 254.941406 L 358.292969 254.992188 L 358.324219 255.054688 L 358.425781 255.289062 L 358.445312 255.339844 L 358.46875 255.40625 C 358.644531 255.867188 358.753906 256.355469 358.789062 256.871094 L 358.800781 256.976562 L 358.800781 256.996094 L 358.804688 257.242188 L 358.800781 257.492188 L 358.800781 257.511719 L 358.789062 257.617188 C 358.753906 258.128906 358.644531 258.621094 358.46875 259.082031 L 358.445312 259.148438 L 358.425781 259.199219 L 358.324219 259.433594 L 358.292969 259.496094 L 358.269531 259.546875 L 358.210938 259.660156 L 358.175781 259.722656 L 358.148438 259.773438 L 358.117188 259.832031 L 358.085938 259.882812 L 358.054688 259.9375 L 358.019531 259.996094 L 357.984375 260.042969 L 357.949219 260.105469 L 357.917969 260.148438 L 357.875 260.210938 L 357.847656 260.253906 L 357.800781 260.316406 L 357.773438 260.355469 L 357.722656 260.421875 L 357.695312 260.453125 L 357.640625 260.523438 L 357.617188 260.550781 L 357.554688 260.625 L 357.464844 260.722656 L 357.453125 260.738281 L 357.375 260.824219 L 357.371094 260.832031 L 357.285156 260.917969 L 357.28125 260.917969 L 357.195312 261.007812 L 339.222656 278.976562 C 337.195312 281.007812 333.902344 281.007812 331.875 278.976562 C 329.84375 276.949219 329.84375 273.65625 331.875 271.628906 L 341.058594 262.441406 L 33.84375 262.441406 L 43.027344 271.628906 C 45.054688 273.65625 45.054688 276.949219 43.027344 278.976562 C 40.996094 281.007812 37.707031 281.007812 35.675781 278.976562 L 17.523438 260.824219 L 17.445312 260.738281 L 17.433594 260.722656 L 17.34375 260.625 L 17.28125 260.550781 L 17.261719 260.523438 L 17.203125 260.453125 L 17.179688 260.421875 L 17.128906 260.355469 L 17.101562 260.316406 L 17.054688 260.253906 L 17.027344 260.210938 L 16.984375 260.148438 L 16.953125 260.105469 L 16.914062 260.042969 L 16.882812 259.996094 L 16.847656 259.9375 L 16.8125 259.882812 L 16.785156 259.832031 L 16.75 259.773438 L 16.722656 259.722656 L 16.691406 259.660156 L 16.632812 259.546875 L 16.609375 259.496094 L 16.578125 259.433594 L 16.476562 259.199219 L 16.457031 259.148438 L 16.429688 259.082031 C 16.257812 258.621094 16.144531 258.132812 16.109375 257.617188 L 16.101562 257.511719 L 16.101562 257.492188 L 16.09375 257.242188 L 16.101562 256.996094 L 16.101562 256.976562 L 16.109375 256.871094 C 16.144531 256.359375 16.257812 255.867188 16.429688 255.40625 L 16.457031 255.339844 L 16.476562 255.289062 L 16.578125 255.054688 L 16.609375 254.992188 L 16.632812 254.941406 L 16.691406 254.828125 L 16.722656 254.765625 L 16.75 254.714844 L 16.785156 254.65625 L 16.8125 254.601562 L 16.847656 254.550781 L 16.882812 254.492188 L 16.914062 254.441406 L 16.953125 254.382812 L 16.984375 254.339844 L 17.027344 254.277344 L 17.054688 254.234375 L 17.101562 254.167969 L 17.128906 254.132812 L 17.179688 254.066406 L 17.203125 254.035156 L 17.261719 253.964844 L 17.28125 253.9375 L 17.34375 253.863281 L 17.433594 253.761719 L 17.445312 253.75 L 17.523438 253.664062 L 17.617188 253.570312 L 17.617188 253.566406 L 17.707031 253.480469 L 34.6875 236.496094 C 36.71875 234.46875 40.011719 234.46875 42.039062 236.496094 C 44.066406 238.527344 44.066406 241.820312 42.039062 243.847656 L 33.84375 252.046875 L 341.058594 252.046875 Z M 332.863281 243.847656 " fill-opacity="1" fill-rule="evenodd"/><path fill="#11114e" d="M 173.199219 52.765625 C 173.378906 53.410156 173.058594 52.210938 173.054688 52.101562 L 173.039062 52.160156 Z M 173.199219 52.765625 " fill-opacity="1" fill-rule="evenodd"/><path fill="#ffffff" d="M 173.792969 97.132812 C 167.996094 91.335938 159.976562 87.746094 151.125 87.746094 C 142.390625 87.746094 134.472656 91.234375 128.695312 96.882812 L 128.460938 97.132812 C 122.664062 102.929688 119.074219 110.949219 119.074219 119.800781 C 119.074219 128.652344 122.664062 136.667969 128.460938 142.464844 C 134.257812 148.261719 142.277344 151.851562 151.125 151.851562 C 159.976562 151.851562 167.996094 148.261719 173.792969 142.464844 C 179.59375 136.675781 183.179688 128.660156 183.179688 119.800781 C 183.179688 111.0625 179.695312 103.144531 174.042969 97.367188 Z M 173.792969 97.132812 " fill-opacity="1" fill-rule="evenodd"/></svg>