<svg xmlns="http://www.w3.org/2000/svg" xmlns:xlink="http://www.w3.org/1999/xlink" width="500" zoomAndPan="magnify" viewBox="0 0 375 374.999991" height="500" preserveAspectRatio="xMidYMid meet" version="1.0"><defs><clipPath id="aafc4b7285"><path d="M 0 56.589844 L 375 56.589844 L 375 318.339844 L 0 318.339844 Z M 0 56.589844 " clip-rule="nonzero"/></clipPath></defs><g clip-path="url(#aafc4b7285)"><path fill="#11114e" d="M 102.839844 132.28125 L 99.203125 132.28125 L 99.203125 108.730469 C 99.203125 108.425781 99.074219 108.140625 98.851562 107.929688 L 76.65625 87.453125 C 76.335938 87.160156 75.878906 87.085938 75.480469 87.257812 C 75.089844 87.433594 74.835938 87.820312 74.835938 88.257812 L 74.835938 132.28125 L 65.339844 132.28125 L 65.339844 88.257812 C 65.339844 87.820312 65.085938 87.433594 64.6875 87.257812 C 64.289062 87.085938 63.832031 87.160156 63.515625 87.453125 L 41.324219 107.929688 C 41.101562 108.140625 40.972656 108.425781 40.972656 108.730469 L 40.972656 132.28125 L 33.890625 132.28125 C 33.292969 132.28125 32.804688 132.769531 32.804688 133.371094 L 32.804688 138.296875 C 32.804688 138.898438 33.292969 139.382812 33.890625 139.382812 L 102.839844 139.382812 C 103.441406 139.382812 103.921875 138.898438 103.921875 138.296875 L 103.921875 133.371094 C 103.921875 132.769531 103.441406 132.28125 102.839844 132.28125 Z M 88.101562 100.96875 L 97.027344 109.203125 L 97.027344 113.742188 L 88.101562 113.742188 Z M 88.101562 115.910156 L 97.027344 115.910156 L 97.027344 132.28125 L 88.101562 132.28125 Z M 77.003906 90.730469 L 85.925781 98.964844 L 85.925781 113.742188 L 77.003906 113.742188 Z M 77.003906 115.910156 L 85.925781 115.910156 L 85.925781 132.28125 L 77.003906 132.28125 Z M 54.238281 98.964844 L 63.164062 90.730469 L 63.164062 113.742188 L 54.238281 113.742188 Z M 54.238281 115.910156 L 63.164062 115.910156 L 63.164062 132.28125 L 54.238281 132.28125 Z M 43.148438 109.203125 L 52.074219 100.96875 L 52.074219 113.742188 L 43.148438 113.742188 Z M 43.148438 115.910156 L 52.074219 115.910156 L 52.074219 132.28125 L 43.148438 132.28125 Z M 65.175781 169.648438 L 61.828125 169.648438 L 61.828125 146.613281 C 61.828125 146.015625 61.34375 145.535156 60.742188 145.535156 L 40.386719 145.535156 C 39.789062 145.535156 39.300781 146.015625 39.300781 146.613281 L 39.300781 169.648438 L 36.703125 169.648438 C 36.105469 169.648438 35.617188 170.132812 35.617188 170.734375 L 35.617188 175.265625 C 35.617188 175.863281 36.105469 176.351562 36.703125 176.351562 L 65.175781 176.351562 C 65.773438 176.351562 66.261719 175.863281 66.261719 175.265625 L 66.261719 170.734375 C 66.261719 170.132812 65.773438 169.648438 65.175781 169.648438 Z M 51.652344 147.703125 L 59.65625 147.703125 L 59.65625 169.648438 L 51.652344 169.648438 Z M 41.476562 147.703125 L 49.476562 147.703125 L 49.476562 169.648438 L 41.476562 169.648438 Z M 104.648438 169.648438 L 101.300781 169.648438 L 101.300781 146.613281 C 101.300781 146.015625 100.816406 145.535156 100.214844 145.535156 L 79.859375 145.535156 C 79.261719 145.535156 78.773438 146.015625 78.773438 146.613281 L 78.773438 169.648438 L 76.175781 169.648438 C 75.578125 169.648438 75.089844 170.132812 75.089844 170.734375 L 75.089844 175.265625 C 75.089844 175.863281 75.578125 176.351562 76.175781 176.351562 L 104.648438 176.351562 C 105.246094 176.351562 105.734375 175.863281 105.734375 175.265625 L 105.734375 170.734375 C 105.734375 170.132812 105.246094 169.648438 104.648438 169.648438 Z M 91.125 147.703125 L 99.128906 147.703125 L 99.128906 169.648438 L 91.125 169.648438 Z M 80.949219 147.703125 L 88.949219 147.703125 L 88.949219 169.648438 L 80.949219 169.648438 Z M 77.257812 174.175781 L 77.257812 171.8125 L 77.265625 171.8125 L 77.265625 174.175781 Z M 141.90625 154.21875 L 139.851562 154.21875 L 139.851562 138.222656 C 139.851562 137.621094 139.371094 137.132812 138.773438 137.132812 L 124.351562 137.132812 C 123.75 137.132812 123.269531 137.621094 123.269531 138.222656 L 123.269531 154.21875 L 121.738281 154.21875 C 121.140625 154.21875 120.660156 154.699219 120.660156 155.300781 L 120.660156 158.515625 C 120.660156 159.117188 121.140625 159.597656 121.738281 159.597656 L 141.90625 159.597656 C 142.507812 159.597656 142.996094 159.117188 142.996094 158.515625 L 142.996094 155.300781 C 142.996094 154.699219 142.507812 154.21875 141.90625 154.21875 Z M 132.644531 139.308594 L 137.683594 139.308594 L 137.683594 154.21875 L 132.644531 154.21875 Z M 125.4375 139.308594 L 130.476562 139.308594 L 130.476562 154.21875 L 125.4375 154.21875 Z M 283.167969 179.75 L 283.167969 151.878906 C 283.167969 151.277344 282.683594 150.800781 282.082031 150.800781 L 268.214844 150.800781 C 267.617188 150.800781 267.128906 151.277344 267.128906 151.878906 L 267.128906 179.75 C 265.84375 180.273438 264.9375 181.527344 264.9375 182.996094 C 264.9375 184.933594 266.511719 186.507812 268.449219 186.507812 L 281.84375 186.507812 C 283.785156 186.507812 285.359375 184.933594 285.359375 182.996094 C 285.359375 181.527344 284.453125 180.273438 283.167969 179.75 Z M 269.300781 152.964844 L 280.996094 152.964844 L 280.996094 161.644531 C 280.949219 161.636719 280.898438 161.628906 280.851562 161.628906 L 269.300781 161.628906 Z M 269.300781 163.804688 L 280.851562 163.804688 C 280.898438 163.804688 280.949219 163.789062 280.996094 163.789062 L 280.996094 179.488281 L 269.300781 179.488281 Z M 283.167969 218.972656 L 283.167969 191.125 C 283.167969 190.527344 282.683594 190.039062 282.082031 190.039062 L 268.214844 190.039062 C 267.617188 190.039062 267.128906 190.527344 267.128906 191.125 L 267.128906 218.464844 C 265.53125 218.785156 264.324219 220.203125 264.324219 221.898438 C 264.324219 223.839844 265.898438 225.417969 267.832031 225.417969 L 281.226562 225.417969 C 283.167969 225.417969 284.746094 223.839844 284.746094 221.898438 C 284.746094 220.683594 284.113281 219.605469 283.167969 218.972656 Z M 269.300781 192.207031 L 280.996094 192.207031 L 280.996094 200.882812 C 280.949219 200.875 280.898438 200.871094 280.851562 200.871094 L 269.300781 200.871094 Z M 269.300781 203.042969 L 280.851562 203.042969 C 280.898438 203.042969 280.949219 203.035156 280.996094 203.027344 L 280.996094 218.390625 L 269.300781 218.390625 Z M 116.96875 245.328125 L 99.367188 245.328125 C 98.765625 245.328125 98.28125 245.816406 98.28125 246.417969 L 98.28125 264.019531 C 98.28125 264.621094 98.765625 265.105469 99.367188 265.105469 L 116.96875 265.105469 C 117.5625 265.105469 118.050781 264.621094 118.050781 264.019531 L 118.050781 246.417969 C 118.050781 245.816406 117.5625 245.328125 116.96875 245.328125 Z M 107.078125 262.933594 L 100.449219 262.933594 L 100.449219 256.59375 L 107.078125 256.59375 Z M 107.078125 254.425781 L 100.449219 254.425781 L 100.449219 247.503906 L 107.078125 247.503906 Z M 115.882812 262.933594 L 109.253906 262.933594 L 109.253906 256.59375 L 115.882812 256.59375 Z M 115.882812 254.425781 L 109.253906 254.425781 L 109.253906 247.503906 L 115.882812 247.503906 Z M 143.09375 212.320312 L 138 199.398438 C 137.835938 198.988281 137.445312 198.714844 137.003906 198.710938 C 136.558594 198.714844 136.15625 198.972656 135.988281 199.382812 L 130.664062 212.308594 C 130.523438 212.644531 130.558594 213.027344 130.761719 213.328125 C 130.964844 213.625 131.300781 213.808594 131.671875 213.808594 L 142.085938 213.808594 C 142.449219 213.808594 142.785156 213.625 142.988281 213.328125 C 143.191406 213.035156 143.226562 212.652344 143.09375 212.320312 Z M 133.289062 211.632812 L 136.964844 202.699219 L 140.488281 211.632812 Z M 223.050781 245.914062 L 211.273438 245.914062 L 211.273438 221.390625 C 211.273438 220.789062 210.789062 220.308594 210.1875 220.308594 L 191.210938 220.308594 C 190.613281 220.308594 190.125 220.789062 190.125 221.390625 L 190.125 245.914062 L 176.683594 245.914062 C 176.085938 245.914062 175.597656 246.402344 175.597656 247 L 175.597656 263.433594 C 175.597656 264.035156 176.085938 264.523438 176.683594 264.523438 L 190.710938 264.523438 C 190.859375 264.597656 191.03125 264.648438 191.210938 264.648438 C 191.398438 264.648438 191.566406 264.597656 191.722656 264.523438 L 223.050781 264.523438 C 223.648438 264.523438 224.128906 264.035156 224.128906 263.433594 L 224.128906 247 C 224.128906 246.402344 223.648438 245.914062 223.050781 245.914062 Z M 182.535156 262.347656 L 177.765625 262.347656 L 177.765625 248.089844 L 182.535156 248.089844 Z M 190.125 262.347656 L 184.703125 262.347656 L 184.703125 248.089844 L 190.125 248.089844 Z M 199.613281 262.347656 L 192.300781 262.347656 L 192.300781 260.410156 L 199.613281 260.410156 Z M 199.613281 258.238281 L 192.300781 258.238281 L 192.300781 248.089844 L 199.613281 248.089844 Z M 199.613281 245.914062 L 192.300781 245.914062 L 192.300781 222.476562 L 199.613281 222.476562 Z M 209.101562 262.347656 L 201.789062 262.347656 L 201.789062 260.410156 L 209.101562 260.410156 Z M 209.101562 258.238281 L 201.789062 258.238281 L 201.789062 248.089844 L 209.101562 248.089844 Z M 209.101562 245.914062 L 201.789062 245.914062 L 201.789062 222.476562 L 209.101562 222.476562 Z M 211.273438 262.347656 L 211.273438 248.089844 L 215.371094 248.089844 L 215.371094 262.128906 C 215.371094 262.203125 215.378906 262.277344 215.394531 262.347656 Z M 221.960938 262.347656 L 217.523438 262.347656 C 217.539062 262.277344 217.542969 262.203125 217.542969 262.128906 L 217.542969 248.089844 L 221.960938 248.089844 Z M 222.351562 272.5 L 182.363281 272.5 C 179.03125 272.5 176.316406 275.210938 176.316406 278.539062 L 176.316406 296.464844 C 176.316406 299.800781 179.03125 302.507812 182.363281 302.507812 L 222.351562 302.507812 C 225.683594 302.507812 228.390625 299.800781 228.390625 296.464844 L 228.390625 278.539062 C 228.390625 275.210938 225.683594 272.5 222.351562 272.5 Z M 190.125 300.335938 L 182.363281 300.335938 C 180.226562 300.335938 178.492188 298.601562 178.492188 296.464844 L 178.492188 285.027344 L 190.125 285.027344 Z M 190.125 282.851562 L 178.492188 282.851562 L 178.492188 278.539062 C 178.492188 276.410156 180.226562 274.675781 182.363281 274.675781 L 190.125 274.675781 Z M 209.886719 300.335938 L 192.300781 300.335938 L 192.300781 285.027344 L 209.886719 285.027344 Z M 209.886719 282.851562 L 192.300781 282.851562 L 192.300781 274.675781 L 209.886719 274.675781 Z M 226.214844 296.464844 C 226.214844 298.601562 224.480469 300.335938 222.351562 300.335938 L 212.054688 300.335938 L 212.054688 285.027344 L 226.214844 285.027344 Z M 226.214844 282.851562 L 212.054688 282.851562 L 212.054688 274.675781 L 222.351562 274.675781 C 224.480469 274.675781 226.214844 276.410156 226.214844 278.539062 Z M 126.316406 272.5 L 98.242188 272.5 C 94.914062 272.5 92.203125 275.210938 92.203125 278.539062 L 92.203125 296.464844 C 92.203125 299.800781 94.914062 302.507812 98.242188 302.507812 L 126.316406 302.507812 C 129.644531 302.507812 132.351562 299.800781 132.351562 296.464844 L 132.351562 278.539062 C 132.351562 275.210938 129.644531 272.5 126.316406 272.5 Z M 102.710938 300.335938 L 98.242188 300.335938 C 96.113281 300.335938 94.371094 298.601562 94.371094 296.464844 L 94.371094 285.027344 L 102.710938 285.027344 Z M 102.710938 282.851562 L 94.371094 282.851562 L 94.371094 278.539062 C 94.371094 276.410156 96.113281 274.675781 98.242188 274.675781 L 102.710938 274.675781 Z M 117.75 300.335938 L 104.878906 300.335938 L 104.878906 285.027344 L 117.75 285.027344 Z M 117.75 282.851562 L 104.878906 282.851562 L 104.878906 274.675781 L 117.75 274.675781 Z M 130.183594 296.464844 C 130.183594 298.601562 128.445312 300.335938 126.316406 300.335938 L 119.925781 300.335938 L 119.925781 285.027344 L 130.183594 285.027344 Z M 130.183594 282.851562 L 119.925781 282.851562 L 119.925781 274.675781 L 126.316406 274.675781 C 128.445312 274.675781 130.183594 276.410156 130.183594 278.539062 Z M 148.035156 245.328125 L 130.433594 245.328125 C 129.832031 245.328125 129.34375 245.816406 129.34375 246.417969 L 129.34375 264.019531 C 129.34375 264.621094 129.832031 265.105469 130.433594 265.105469 L 148.035156 265.105469 C 148.636719 265.105469 149.113281 264.621094 149.113281 264.019531 L 149.113281 246.417969 C 149.113281 245.816406 148.636719 245.328125 148.035156 245.328125 Z M 138.140625 262.933594 L 131.511719 262.933594 L 131.511719 256.59375 L 138.140625 256.59375 Z M 138.140625 254.425781 L 131.511719 254.425781 L 131.511719 247.503906 L 138.140625 247.503906 Z M 146.949219 262.933594 L 140.316406 262.933594 L 140.316406 256.59375 L 146.949219 256.59375 Z M 146.949219 254.425781 L 140.316406 254.425781 L 140.316406 247.503906 L 146.949219 247.503906 Z M 152.386719 281.328125 L 142.3125 281.328125 C 140.542969 281.328125 139.101562 282.769531 139.101562 284.539062 L 139.101562 312.289062 C 139.101562 314.066406 140.542969 315.507812 142.3125 315.507812 L 152.386719 315.507812 C 154.15625 315.507812 155.59375 314.066406 155.59375 312.289062 L 155.59375 284.539062 C 155.59375 282.769531 154.15625 281.328125 152.386719 281.328125 Z M 153.171875 275.816406 L 141.523438 275.816406 C 140.191406 275.816406 139.101562 276.902344 139.101562 278.238281 L 139.101562 278.636719 C 139.101562 279.972656 140.191406 281.058594 141.523438 281.058594 L 153.171875 281.058594 C 154.507812 281.058594 155.59375 279.972656 155.59375 278.636719 L 155.59375 278.238281 C 155.59375 276.902344 154.507812 275.816406 153.171875 275.816406 Z M 65.175781 169.648438 L 61.828125 169.648438 L 61.828125 146.613281 C 61.828125 146.015625 61.34375 145.535156 60.742188 145.535156 L 40.386719 145.535156 C 39.789062 145.535156 39.300781 146.015625 39.300781 146.613281 L 39.300781 169.648438 L 36.703125 169.648438 C 36.105469 169.648438 35.617188 170.132812 35.617188 170.734375 L 35.617188 175.265625 C 35.617188 175.863281 36.105469 176.351562 36.703125 176.351562 L 65.175781 176.351562 C 65.773438 176.351562 66.261719 175.863281 66.261719 175.265625 L 66.261719 170.734375 C 66.261719 170.132812 65.773438 169.648438 65.175781 169.648438 Z M 51.652344 147.703125 L 59.65625 147.703125 L 59.65625 169.648438 L 51.652344 169.648438 Z M 41.476562 147.703125 L 49.476562 147.703125 L 49.476562 169.648438 L 41.476562 169.648438 Z M 102.839844 132.28125 L 99.203125 132.28125 L 99.203125 108.730469 C 99.203125 108.425781 99.074219 108.140625 98.851562 107.929688 L 76.65625 87.453125 C 76.335938 87.160156 75.878906 87.085938 75.480469 87.257812 C 75.089844 87.433594 74.835938 87.820312 74.835938 88.257812 L 74.835938 132.28125 L 65.339844 132.28125 L 65.339844 88.257812 C 65.339844 87.820312 65.085938 87.433594 64.6875 87.257812 C 64.289062 87.085938 63.832031 87.160156 63.515625 87.453125 L 41.324219 107.929688 C 41.101562 108.140625 40.972656 108.425781 40.972656 108.730469 L 40.972656 132.28125 L 33.890625 132.28125 C 33.292969 132.28125 32.804688 132.769531 32.804688 133.371094 L 32.804688 138.296875 C 32.804688 138.898438 33.292969 139.382812 33.890625 139.382812 L 102.839844 139.382812 C 103.441406 139.382812 103.921875 138.898438 103.921875 138.296875 L 103.921875 133.371094 C 103.921875 132.769531 103.441406 132.28125 102.839844 132.28125 Z M 88.101562 100.96875 L 97.027344 109.203125 L 97.027344 113.742188 L 88.101562 113.742188 Z M 88.101562 115.910156 L 97.027344 115.910156 L 97.027344 132.28125 L 88.101562 132.28125 Z M 77.003906 90.730469 L 85.925781 98.964844 L 85.925781 113.742188 L 77.003906 113.742188 Z M 77.003906 115.910156 L 85.925781 115.910156 L 85.925781 132.28125 L 77.003906 132.28125 Z M 54.238281 98.964844 L 63.164062 90.730469 L 63.164062 113.742188 L 54.238281 113.742188 Z M 54.238281 115.910156 L 63.164062 115.910156 L 63.164062 132.28125 L 54.238281 132.28125 Z M 43.148438 109.203125 L 52.074219 100.96875 L 52.074219 113.742188 L 43.148438 113.742188 Z M 43.148438 115.910156 L 52.074219 115.910156 L 52.074219 132.28125 L 43.148438 132.28125 Z M 104.648438 169.648438 L 101.300781 169.648438 L 101.300781 146.613281 C 101.300781 146.015625 100.816406 145.535156 100.214844 145.535156 L 79.859375 145.535156 C 79.261719 145.535156 78.773438 146.015625 78.773438 146.613281 L 78.773438 169.648438 L 76.175781 169.648438 C 75.578125 169.648438 75.089844 170.132812 75.089844 170.734375 L 75.089844 175.265625 C 75.089844 175.863281 75.578125 176.351562 76.175781 176.351562 L 104.648438 176.351562 C 105.246094 176.351562 105.734375 175.863281 105.734375 175.265625 L 105.734375 170.734375 C 105.734375 170.132812 105.246094 169.648438 104.648438 169.648438 Z M 91.125 147.703125 L 99.128906 147.703125 L 99.128906 169.648438 L 91.125 169.648438 Z M 80.949219 147.703125 L 88.949219 147.703125 L 88.949219 169.648438 L 80.949219 169.648438 Z M 77.257812 174.175781 L 77.257812 171.8125 L 77.265625 171.8125 L 77.265625 174.175781 Z M 116.96875 245.328125 L 99.367188 245.328125 C 98.765625 245.328125 98.28125 245.816406 98.28125 246.417969 L 98.28125 264.019531 C 98.28125 264.621094 98.765625 265.105469 99.367188 265.105469 L 116.96875 265.105469 C 117.5625 265.105469 118.050781 264.621094 118.050781 264.019531 L 118.050781 246.417969 C 118.050781 245.816406 117.5625 245.328125 116.96875 245.328125 Z M 107.078125 262.933594 L 100.449219 262.933594 L 100.449219 256.59375 L 107.078125 256.59375 Z M 107.078125 254.425781 L 100.449219 254.425781 L 100.449219 247.503906 L 107.078125 247.503906 Z M 115.882812 262.933594 L 109.253906 262.933594 L 109.253906 256.59375 L 115.882812 256.59375 Z M 115.882812 254.425781 L 109.253906 254.425781 L 109.253906 247.503906 L 115.882812 247.503906 Z M 126.316406 272.5 L 98.242188 272.5 C 94.914062 272.5 92.203125 275.210938 92.203125 278.539062 L 92.203125 296.464844 C 92.203125 299.800781 94.914062 302.507812 98.242188 302.507812 L 126.316406 302.507812 C 129.644531 302.507812 132.351562 299.800781 132.351562 296.464844 L 132.351562 278.539062 C 132.351562 275.210938 129.644531 272.5 126.316406 272.5 Z M 102.710938 300.335938 L 98.242188 300.335938 C 96.113281 300.335938 94.371094 298.601562 94.371094 296.464844 L 94.371094 285.027344 L 102.710938 285.027344 Z M 102.710938 282.851562 L 94.371094 282.851562 L 94.371094 278.539062 C 94.371094 276.410156 96.113281 274.675781 98.242188 274.675781 L 102.710938 274.675781 Z M 117.75 300.335938 L 104.878906 300.335938 L 104.878906 285.027344 L 117.75 285.027344 Z M 117.75 282.851562 L 104.878906 282.851562 L 104.878906 274.675781 L 117.75 274.675781 Z M 130.183594 296.464844 C 130.183594 298.601562 128.445312 300.335938 126.316406 300.335938 L 119.925781 300.335938 L 119.925781 285.027344 L 130.183594 285.027344 Z M 130.183594 282.851562 L 119.925781 282.851562 L 119.925781 274.675781 L 126.316406 274.675781 C 128.445312 274.675781 130.183594 276.410156 130.183594 278.539062 Z M 141.90625 154.21875 L 139.851562 154.21875 L 139.851562 138.222656 C 139.851562 137.621094 139.371094 137.132812 138.773438 137.132812 L 124.351562 137.132812 C 123.75 137.132812 123.269531 137.621094 123.269531 138.222656 L 123.269531 154.21875 L 121.738281 154.21875 C 121.140625 154.21875 120.660156 154.699219 120.660156 155.300781 L 120.660156 158.515625 C 120.660156 159.117188 121.140625 159.597656 121.738281 159.597656 L 141.90625 159.597656 C 142.507812 159.597656 142.996094 159.117188 142.996094 158.515625 L 142.996094 155.300781 C 142.996094 154.699219 142.507812 154.21875 141.90625 154.21875 Z M 132.644531 139.308594 L 137.683594 139.308594 L 137.683594 154.21875 L 132.644531 154.21875 Z M 125.4375 139.308594 L 130.476562 139.308594 L 130.476562 154.21875 L 125.4375 154.21875 Z M 143.09375 212.320312 L 138 199.398438 C 137.835938 198.988281 137.445312 198.714844 137.003906 198.710938 C 136.558594 198.714844 136.15625 198.972656 135.988281 199.382812 L 130.664062 212.308594 C 130.523438 212.644531 130.558594 213.027344 130.761719 213.328125 C 130.964844 213.625 131.300781 213.808594 131.671875 213.808594 L 142.085938 213.808594 C 142.449219 213.808594 142.785156 213.625 142.988281 213.328125 C 143.191406 213.035156 143.226562 212.652344 143.09375 212.320312 Z M 133.289062 211.632812 L 136.964844 202.699219 L 140.488281 211.632812 Z M 148.035156 245.328125 L 130.433594 245.328125 C 129.832031 245.328125 129.34375 245.816406 129.34375 246.417969 L 129.34375 264.019531 C 129.34375 264.621094 129.832031 265.105469 130.433594 265.105469 L 148.035156 265.105469 C 148.636719 265.105469 149.113281 264.621094 149.113281 264.019531 L 149.113281 246.417969 C 149.113281 245.816406 148.636719 245.328125 148.035156 245.328125 Z M 138.140625 262.933594 L 131.511719 262.933594 L 131.511719 256.59375 L 138.140625 256.59375 Z M 138.140625 254.425781 L 131.511719 254.425781 L 131.511719 247.503906 L 138.140625 247.503906 Z M 146.949219 262.933594 L 140.316406 262.933594 L 140.316406 256.59375 L 146.949219 256.59375 Z M 146.949219 254.425781 L 140.316406 254.425781 L 140.316406 247.503906 L 146.949219 247.503906 Z M 153.171875 275.816406 L 141.523438 275.816406 C 140.191406 275.816406 139.101562 276.902344 139.101562 278.238281 L 139.101562 278.636719 C 139.101562 279.972656 140.191406 281.058594 141.523438 281.058594 L 153.171875 281.058594 C 154.507812 281.058594 155.59375 279.972656 155.59375 278.636719 L 155.59375 278.238281 C 155.59375 276.902344 154.507812 275.816406 153.171875 275.816406 Z M 152.386719 281.328125 L 142.3125 281.328125 C 140.542969 281.328125 139.101562 282.769531 139.101562 284.539062 L 139.101562 312.289062 C 139.101562 314.066406 140.542969 315.507812 142.3125 315.507812 L 152.386719 315.507812 C 154.15625 315.507812 155.59375 314.066406 155.59375 312.289062 L 155.59375 284.539062 C 155.59375 282.769531 154.15625 281.328125 152.386719 281.328125 Z M 223.050781 245.914062 L 211.273438 245.914062 L 211.273438 221.390625 C 211.273438 220.789062 210.789062 220.308594 210.1875 220.308594 L 191.210938 220.308594 C 190.613281 220.308594 190.125 220.789062 190.125 221.390625 L 190.125 245.914062 L 176.683594 245.914062 C 176.085938 245.914062 175.597656 246.402344 175.597656 247 L 175.597656 263.433594 C 175.597656 264.035156 176.085938 264.523438 176.683594 264.523438 L 190.710938 264.523438 C 190.859375 264.597656 191.03125 264.648438 191.210938 264.648438 C 191.398438 264.648438 191.566406 264.597656 191.722656 264.523438 L 223.050781 264.523438 C 223.648438 264.523438 224.128906 264.035156 224.128906 263.433594 L 224.128906 247 C 224.128906 246.402344 223.648438 245.914062 223.050781 245.914062 Z M 182.535156 262.347656 L 177.765625 262.347656 L 177.765625 248.089844 L 182.535156 248.089844 Z M 190.125 262.347656 L 184.703125 262.347656 L 184.703125 248.089844 L 190.125 248.089844 Z M 199.613281 262.347656 L 192.300781 262.347656 L 192.300781 260.410156 L 199.613281 260.410156 Z M 199.613281 258.238281 L 192.300781 258.238281 L 192.300781 248.089844 L 199.613281 248.089844 Z M 199.613281 245.914062 L 192.300781 245.914062 L 192.300781 222.476562 L 199.613281 222.476562 Z M 209.101562 262.347656 L 201.789062 262.347656 L 201.789062 260.410156 L 209.101562 260.410156 Z M 209.101562 258.238281 L 201.789062 258.238281 L 201.789062 248.089844 L 209.101562 248.089844 Z M 209.101562 245.914062 L 201.789062 245.914062 L 201.789062 222.476562 L 209.101562 222.476562 Z M 211.273438 262.347656 L 211.273438 248.089844 L 215.371094 248.089844 L 215.371094 262.128906 C 215.371094 262.203125 215.378906 262.277344 215.394531 262.347656 Z M 221.960938 262.347656 L 217.523438 262.347656 C 217.539062 262.277344 217.542969 262.203125 217.542969 262.128906 L 217.542969 248.089844 L 221.960938 248.089844 Z M 222.351562 272.5 L 182.363281 272.5 C 179.03125 272.5 176.316406 275.210938 176.316406 278.539062 L 176.316406 296.464844 C 176.316406 299.800781 179.03125 302.507812 182.363281 302.507812 L 222.351562 302.507812 C 225.683594 302.507812 228.390625 299.800781 228.390625 296.464844 L 228.390625 278.539062 C 228.390625 275.210938 225.683594 272.5 222.351562 272.5 Z M 190.125 300.335938 L 182.363281 300.335938 C 180.226562 300.335938 178.492188 298.601562 178.492188 296.464844 L 178.492188 285.027344 L 190.125 285.027344 Z M 190.125 282.851562 L 178.492188 282.851562 L 178.492188 278.539062 C 178.492188 276.410156 180.226562 274.675781 182.363281 274.675781 L 190.125 274.675781 Z M 209.886719 300.335938 L 192.300781 300.335938 L 192.300781 285.027344 L 209.886719 285.027344 Z M 209.886719 282.851562 L 192.300781 282.851562 L 192.300781 274.675781 L 209.886719 274.675781 Z M 226.214844 296.464844 C 226.214844 298.601562 224.480469 300.335938 222.351562 300.335938 L 212.054688 300.335938 L 212.054688 285.027344 L 226.214844 285.027344 Z M 226.214844 282.851562 L 212.054688 282.851562 L 212.054688 274.675781 L 222.351562 274.675781 C 224.480469 274.675781 226.214844 276.410156 226.214844 278.539062 Z M 283.167969 218.972656 L 283.167969 191.125 C 283.167969 190.527344 282.683594 190.039062 282.082031 190.039062 L 268.214844 190.039062 C 267.617188 190.039062 267.128906 190.527344 267.128906 191.125 L 267.128906 218.464844 C 265.53125 218.785156 264.324219 220.203125 264.324219 221.898438 C 264.324219 223.839844 265.898438 225.417969 267.832031 225.417969 L 281.226562 225.417969 C 283.167969 225.417969 284.746094 223.839844 284.746094 221.898438 C 284.746094 220.683594 284.113281 219.605469 283.167969 218.972656 Z M 269.300781 192.207031 L 280.996094 192.207031 L 280.996094 200.882812 C 280.949219 200.875 280.898438 200.871094 280.851562 200.871094 L 269.300781 200.871094 Z M 269.300781 203.042969 L 280.851562 203.042969 C 280.898438 203.042969 280.949219 203.035156 280.996094 203.027344 L 280.996094 218.390625 L 269.300781 218.390625 Z M 283.167969 179.75 L 283.167969 151.878906 C 283.167969 151.277344 282.683594 150.800781 282.082031 150.800781 L 268.214844 150.800781 C 267.617188 150.800781 267.128906 151.277344 267.128906 151.878906 L 267.128906 179.75 C 265.84375 180.273438 264.9375 181.527344 264.9375 182.996094 C 264.9375 184.933594 266.511719 186.507812 268.449219 186.507812 L 281.84375 186.507812 C 283.785156 186.507812 285.359375 184.933594 285.359375 182.996094 C 285.359375 181.527344 284.453125 180.273438 283.167969 179.75 Z M 269.300781 152.964844 L 280.996094 152.964844 L 280.996094 161.644531 C 280.949219 161.636719 280.898438 161.628906 280.851562 161.628906 L 269.300781 161.628906 Z M 269.300781 163.804688 L 280.851562 163.804688 C 280.898438 163.804688 280.949219 163.789062 280.996094 163.789062 L 280.996094 179.488281 L 269.300781 179.488281 Z M 222.351562 272.5 L 182.363281 272.5 C 179.03125 272.5 176.316406 275.210938 176.316406 278.539062 L 176.316406 296.464844 C 176.316406 299.800781 179.03125 302.507812 182.363281 302.507812 L 222.351562 302.507812 C 225.683594 302.507812 228.390625 299.800781 228.390625 296.464844 L 228.390625 278.539062 C 228.390625 275.210938 225.683594 272.5 222.351562 272.5 Z M 190.125 300.335938 L 182.363281 300.335938 C 180.226562 300.335938 178.492188 298.601562 178.492188 296.464844 L 178.492188 285.027344 L 190.125 285.027344 Z M 190.125 282.851562 L 178.492188 282.851562 L 178.492188 278.539062 C 178.492188 276.410156 180.226562 274.675781 182.363281 274.675781 L 190.125 274.675781 Z M 209.886719 300.335938 L 192.300781 300.335938 L 192.300781 285.027344 L 209.886719 285.027344 Z M 209.886719 282.851562 L 192.300781 282.851562 L 192.300781 274.675781 L 209.886719 274.675781 Z M 226.214844 296.464844 C 226.214844 298.601562 224.480469 300.335938 222.351562 300.335938 L 212.054688 300.335938 L 212.054688 285.027344 L 226.214844 285.027344 Z M 226.214844 282.851562 L 212.054688 282.851562 L 212.054688 274.675781 L 222.351562 274.675781 C 224.480469 274.675781 226.214844 276.410156 226.214844 278.539062 Z M 190.710938 264.523438 C 190.859375 264.597656 191.03125 264.648438 191.210938 264.648438 C 191.398438 264.648438 191.566406 264.597656 191.722656 264.523438 L 223.050781 264.523438 C 223.648438 264.523438 224.128906 264.035156 224.128906 263.433594 L 224.128906 247 C 224.128906 246.402344 223.648438 245.914062 223.050781 245.914062 L 211.273438 245.914062 L 211.273438 221.390625 C 211.273438 220.789062 210.789062 220.308594 210.1875 220.308594 L 191.210938 220.308594 C 190.613281 220.308594 190.125 220.789062 190.125 221.390625 L 190.125 245.914062 L 176.683594 245.914062 C 176.085938 245.914062 175.597656 246.402344 175.597656 247 L 175.597656 263.433594 C 175.597656 264.035156 176.085938 264.523438 176.683594 264.523438 Z M 217.542969 262.128906 L 217.542969 248.089844 L 221.960938 248.089844 L 221.960938 262.347656 L 217.523438 262.347656 C 217.539062 262.277344 217.542969 262.203125 217.542969 262.128906 Z M 211.273438 248.089844 L 215.371094 248.089844 L 215.371094 262.128906 C 215.371094 262.203125 215.378906 262.277344 215.394531 262.347656 L 211.273438 262.347656 Z M 201.789062 222.476562 L 209.101562 222.476562 L 209.101562 245.914062 L 201.789062 245.914062 Z M 201.789062 248.089844 L 209.101562 248.089844 L 209.101562 258.238281 L 201.789062 258.238281 Z M 201.789062 260.410156 L 209.101562 260.410156 L 209.101562 262.347656 L 201.789062 262.347656 Z M 192.300781 222.476562 L 199.613281 222.476562 L 199.613281 245.914062 L 192.300781 245.914062 Z M 192.300781 248.089844 L 199.613281 248.089844 L 199.613281 258.238281 L 192.300781 258.238281 Z M 192.300781 260.410156 L 199.613281 260.410156 L 199.613281 262.347656 L 192.300781 262.347656 Z M 184.703125 248.089844 L 190.125 248.089844 L 190.125 262.347656 L 184.703125 262.347656 Z M 177.765625 248.089844 L 182.535156 248.089844 L 182.535156 262.347656 L 177.765625 262.347656 Z M 148.035156 245.328125 L 130.433594 245.328125 C 129.832031 245.328125 129.34375 245.816406 129.34375 246.417969 L 129.34375 264.019531 C 129.34375 264.621094 129.832031 265.105469 130.433594 265.105469 L 148.035156 265.105469 C 148.636719 265.105469 149.113281 264.621094 149.113281 264.019531 L 149.113281 246.417969 C 149.113281 245.816406 148.636719 245.328125 148.035156 245.328125 Z M 138.140625 262.933594 L 131.511719 262.933594 L 131.511719 256.59375 L 138.140625 256.59375 Z M 138.140625 254.425781 L 131.511719 254.425781 L 131.511719 247.503906 L 138.140625 247.503906 Z M 146.949219 262.933594 L 140.316406 262.933594 L 140.316406 256.59375 L 146.949219 256.59375 Z M 146.949219 254.425781 L 140.316406 254.425781 L 140.316406 247.503906 L 146.949219 247.503906 Z M 126.316406 272.5 L 98.242188 272.5 C 94.914062 272.5 92.203125 275.210938 92.203125 278.539062 L 92.203125 296.464844 C 92.203125 299.800781 94.914062 302.507812 98.242188 302.507812 L 126.316406 302.507812 C 129.644531 302.507812 132.351562 299.800781 132.351562 296.464844 L 132.351562 278.539062 C 132.351562 275.210938 129.644531 272.5 126.316406 272.5 Z M 102.710938 300.335938 L 98.242188 300.335938 C 96.113281 300.335938 94.371094 298.601562 94.371094 296.464844 L 94.371094 285.027344 L 102.710938 285.027344 Z M 102.710938 282.851562 L 94.371094 282.851562 L 94.371094 278.539062 C 94.371094 276.410156 96.113281 274.675781 98.242188 274.675781 L 102.710938 274.675781 Z M 117.75 300.335938 L 104.878906 300.335938 L 104.878906 285.027344 L 117.75 285.027344 Z M 117.75 282.851562 L 104.878906 282.851562 L 104.878906 274.675781 L 117.75 274.675781 Z M 130.183594 296.464844 C 130.183594 298.601562 128.445312 300.335938 126.316406 300.335938 L 119.925781 300.335938 L 119.925781 285.027344 L 130.183594 285.027344 Z M 130.183594 282.851562 L 119.925781 282.851562 L 119.925781 274.675781 L 126.316406 274.675781 C 128.445312 274.675781 130.183594 276.410156 130.183594 278.539062 Z M 99.367188 265.105469 L 116.96875 265.105469 C 117.5625 265.105469 118.050781 264.621094 118.050781 264.019531 L 118.050781 246.417969 C 118.050781 245.816406 117.5625 245.328125 116.96875 245.328125 L 99.367188 245.328125 C 98.765625 245.328125 98.28125 245.816406 98.28125 246.417969 L 98.28125 264.019531 C 98.28125 264.621094 98.765625 265.105469 99.367188 265.105469 Z M 109.253906 247.503906 L 115.882812 247.503906 L 115.882812 254.425781 L 109.253906 254.425781 Z M 109.253906 256.59375 L 115.882812 256.59375 L 115.882812 262.933594 L 109.253906 262.933594 Z M 100.449219 247.503906 L 107.078125 247.503906 L 107.078125 254.425781 L 100.449219 254.425781 Z M 100.449219 256.59375 L 107.078125 256.59375 L 107.078125 262.933594 L 100.449219 262.933594 Z M 152.386719 281.328125 L 142.3125 281.328125 C 140.542969 281.328125 139.101562 282.769531 139.101562 284.539062 L 139.101562 312.289062 C 139.101562 314.066406 140.542969 315.507812 142.3125 315.507812 L 152.386719 315.507812 C 154.15625 315.507812 155.59375 314.066406 155.59375 312.289062 L 155.59375 284.539062 C 155.59375 282.769531 154.15625 281.328125 152.386719 281.328125 Z M 153.171875 275.816406 L 141.523438 275.816406 C 140.191406 275.816406 139.101562 276.902344 139.101562 278.238281 L 139.101562 278.636719 C 139.101562 279.972656 140.191406 281.058594 141.523438 281.058594 L 153.171875 281.058594 C 154.507812 281.058594 155.59375 279.972656 155.59375 278.636719 L 155.59375 278.238281 C 155.59375 276.902344 154.507812 275.816406 153.171875 275.816406 Z M 104.648438 169.648438 L 101.300781 169.648438 L 101.300781 146.613281 C 101.300781 146.015625 100.816406 145.535156 100.214844 145.535156 L 79.859375 145.535156 C 79.261719 145.535156 78.773438 146.015625 78.773438 146.613281 L 78.773438 169.648438 L 76.175781 169.648438 C 75.578125 169.648438 75.089844 170.132812 75.089844 170.734375 L 75.089844 175.265625 C 75.089844 175.863281 75.578125 176.351562 76.175781 176.351562 L 104.648438 176.351562 C 105.246094 176.351562 105.734375 175.863281 105.734375 175.265625 L 105.734375 170.734375 C 105.734375 170.132812 105.246094 169.648438 104.648438 169.648438 Z M 91.125 147.703125 L 99.128906 147.703125 L 99.128906 169.648438 L 91.125 169.648438 Z M 80.949219 147.703125 L 88.949219 147.703125 L 88.949219 169.648438 L 80.949219 169.648438 Z M 77.257812 174.175781 L 77.257812 171.8125 L 77.265625 171.8125 L 77.265625 174.175781 Z M 103.921875 138.296875 L 103.921875 133.371094 C 103.921875 132.769531 103.441406 132.28125 102.839844 132.28125 L 99.203125 132.28125 L 99.203125 108.730469 C 99.203125 108.425781 99.074219 108.140625 98.851562 107.929688 L 76.65625 87.453125 C 76.335938 87.160156 75.878906 87.085938 75.480469 87.257812 C 75.089844 87.433594 74.835938 87.820312 74.835938 88.257812 L 74.835938 132.28125 L 65.339844 132.28125 L 65.339844 88.257812 C 65.339844 87.820312 65.085938 87.433594 64.6875 87.257812 C 64.289062 87.085938 63.832031 87.160156 63.515625 87.453125 L 41.324219 107.929688 C 41.101562 108.140625 40.972656 108.425781 40.972656 108.730469 L 40.972656 132.28125 L 33.890625 132.28125 C 33.292969 132.28125 32.804688 132.769531 32.804688 133.371094 L 32.804688 138.296875 C 32.804688 138.898438 33.292969 139.382812 33.890625 139.382812 L 102.839844 139.382812 C 103.441406 139.382812 103.921875 138.898438 103.921875 138.296875 Z M 88.101562 100.96875 L 97.027344 109.203125 L 97.027344 113.742188 L 88.101562 113.742188 Z M 88.101562 115.910156 L 97.027344 115.910156 L 97.027344 132.28125 L 88.101562 132.28125 Z M 77.003906 90.730469 L 85.925781 98.964844 L 85.925781 113.742188 L 77.003906 113.742188 Z M 77.003906 115.910156 L 85.925781 115.910156 L 85.925781 132.28125 L 77.003906 132.28125 Z M 54.238281 98.964844 L 63.164062 90.730469 L 63.164062 113.742188 L 54.238281 113.742188 Z M 54.238281 115.910156 L 63.164062 115.910156 L 63.164062 132.28125 L 54.238281 132.28125 Z M 43.148438 109.203125 L 52.074219 100.96875 L 52.074219 113.742188 L 43.148438 113.742188 Z M 43.148438 115.910156 L 52.074219 115.910156 L 52.074219 132.28125 L 43.148438 132.28125 Z M 65.175781 169.648438 L 61.828125 169.648438 L 61.828125 146.613281 C 61.828125 146.015625 61.34375 145.535156 60.742188 145.535156 L 40.386719 145.535156 C 39.789062 145.535156 39.300781 146.015625 39.300781 146.613281 L 39.300781 169.648438 L 36.703125 169.648438 C 36.105469 169.648438 35.617188 170.132812 35.617188 170.734375 L 35.617188 175.265625 C 35.617188 175.863281 36.105469 176.351562 36.703125 176.351562 L 65.175781 176.351562 C 65.773438 176.351562 66.261719 175.863281 66.261719 175.265625 L 66.261719 170.734375 C 66.261719 170.132812 65.773438 169.648438 65.175781 169.648438 Z M 51.652344 147.703125 L 59.65625 147.703125 L 59.65625 169.648438 L 51.652344 169.648438 Z M 41.476562 147.703125 L 49.476562 147.703125 L 49.476562 169.648438 L 41.476562 169.648438 Z M 141.90625 154.21875 L 139.851562 154.21875 L 139.851562 138.222656 C 139.851562 137.621094 139.371094 137.132812 138.773438 137.132812 L 124.351562 137.132812 C 123.75 137.132812 123.269531 137.621094 123.269531 138.222656 L 123.269531 154.21875 L 121.738281 154.21875 C 121.140625 154.21875 120.660156 154.699219 120.660156 155.300781 L 120.660156 158.515625 C 120.660156 159.117188 121.140625 159.597656 121.738281 159.597656 L 141.90625 159.597656 C 142.507812 159.597656 142.996094 159.117188 142.996094 158.515625 L 142.996094 155.300781 C 142.996094 154.699219 142.507812 154.21875 141.90625 154.21875 Z M 132.644531 139.308594 L 137.683594 139.308594 L 137.683594 154.21875 L 132.644531 154.21875 Z M 125.4375 139.308594 L 130.476562 139.308594 L 130.476562 154.21875 L 125.4375 154.21875 Z M 143.09375 212.320312 L 138 199.398438 C 137.835938 198.988281 137.445312 198.714844 137.003906 198.710938 C 136.558594 198.714844 136.15625 198.972656 135.988281 199.382812 L 130.664062 212.308594 C 130.523438 212.644531 130.558594 213.027344 130.761719 213.328125 C 130.964844 213.625 131.300781 213.808594 131.671875 213.808594 L 142.085938 213.808594 C 142.449219 213.808594 142.785156 213.625 142.988281 213.328125 C 143.191406 213.035156 143.226562 212.652344 143.09375 212.320312 Z M 133.289062 211.632812 L 136.964844 202.699219 L 140.488281 211.632812 Z M 268.445312 186.507812 L 281.84375 186.507812 C 283.785156 186.507812 285.359375 184.933594 285.359375 182.996094 C 285.359375 181.527344 284.453125 180.273438 283.167969 179.75 L 283.167969 151.878906 C 283.167969 151.277344 282.683594 150.800781 282.082031 150.800781 L 268.214844 150.800781 C 267.613281 150.800781 267.128906 151.277344 267.128906 151.878906 L 267.128906 179.75 C 265.84375 180.273438 264.9375 181.527344 264.9375 182.996094 C 264.9375 184.933594 266.511719 186.507812 268.445312 186.507812 Z M 269.300781 152.964844 L 280.996094 152.964844 L 280.996094 161.644531 C 280.949219 161.636719 280.898438 161.628906 280.851562 161.628906 L 269.300781 161.628906 Z M 269.300781 163.804688 L 280.851562 163.804688 C 280.898438 163.804688 280.949219 163.789062 280.996094 163.789062 L 280.996094 179.488281 L 269.300781 179.488281 Z M 283.167969 218.972656 L 283.167969 191.125 C 283.167969 190.527344 282.683594 190.039062 282.082031 190.039062 L 268.214844 190.039062 C 267.617188 190.039062 267.128906 190.527344 267.128906 191.125 L 267.128906 218.464844 C 265.53125 218.785156 264.324219 220.203125 264.324219 221.898438 C 264.324219 223.839844 265.898438 225.417969 267.832031 225.417969 L 281.226562 225.417969 C 283.167969 225.417969 284.746094 223.839844 284.746094 221.898438 C 284.746094 220.683594 284.113281 219.605469 283.167969 218.972656 Z M 269.300781 192.207031 L 280.996094 192.207031 L 280.996094 200.882812 C 280.949219 200.875 280.898438 200.871094 280.851562 200.871094 L 269.300781 200.871094 Z M 269.300781 203.042969 L 280.851562 203.042969 C 280.898438 203.042969 280.949219 203.035156 280.996094 203.027344 L 280.996094 218.390625 L 269.300781 218.390625 Z M 373.914062 240.230469 C 374.511719 240.230469 375 239.742188 375 239.140625 C 375 238.542969 374.511719 238.054688 373.914062 238.054688 L 369.417969 238.054688 C 361.523438 236.15625 358.394531 230.972656 357.15625 227.132812 C 360.585938 226.210938 364.09375 223.542969 365.582031 219.558594 C 367.222656 215.125 366.503906 212.15625 365.664062 208.714844 C 365.183594 206.726562 364.636719 204.46875 364.484375 201.589844 C 364.457031 200.9375 364.6875 199.992188 364.941406 198.996094 C 365.558594 196.558594 366.40625 193.21875 364.3125 189.996094 C 362.648438 187.429688 363.261719 184.699219 363.914062 181.804688 C 364.191406 180.566406 364.484375 179.285156 364.597656 177.996094 C 364.882812 174.808594 363.605469 172.625 362.257812 170.3125 C 361.816406 169.542969 361.351562 168.746094 360.90625 167.871094 C 360.007812 166.070312 360.496094 164.449219 361.050781 162.574219 C 361.449219 161.261719 361.851562 159.898438 361.808594 158.382812 C 361.730469 156.175781 360.503906 154.925781 359.414062 153.828125 C 358.507812 152.90625 357.71875 152.113281 357.554688 150.792969 C 357.429688 149.808594 357.9375 148.738281 358.523438 147.5 C 358.679688 147.167969 358.84375 146.824219 359.003906 146.472656 L 361.042969 146.472656 C 361.515625 146.472656 361.933594 146.164062 362.078125 145.722656 C 362.21875 145.273438 362.0625 144.785156 361.6875 144.507812 L 359.886719 143.203125 C 359.957031 141.84375 359.609375 140.351562 358.433594 138.722656 C 357.605469 137.578125 356.699219 135.859375 355.824219 133.765625 C 355.441406 132.867188 354.5625 132.28125 353.582031 132.28125 C 352.597656 132.28125 351.71875 132.867188 351.335938 133.765625 C 350.96875 134.644531 350.59375 135.445312 350.226562 136.183594 L 307.476562 105.109375 C 305.085938 103.375 301.882812 103.382812 299.503906 105.125 L 272.332031 125.058594 L 230.796875 94.878906 C 228.089844 92.90625 224.460938 92.914062 221.757812 94.894531 L 188.757812 119.105469 L 188.757812 119.082031 C 188.757812 118.9375 188.730469 118.796875 188.675781 118.675781 L 188.667969 117.117188 C 188.820312 116.308594 189 115.480469 189.1875 114.648438 C 189.519531 113.203125 189.855469 111.703125 189.988281 110.195312 C 190.3125 106.503906 188.835938 103.960938 187.261719 101.269531 C 186.734375 100.363281 186.1875 99.425781 185.671875 98.390625 C 184.574219 96.199219 185.152344 94.257812 185.828125 92.015625 C 186.285156 90.484375 186.757812 88.894531 186.699219 87.140625 C 186.621094 84.621094 185.199219 83.1875 183.945312 81.910156 C 182.851562 80.800781 181.90625 79.847656 181.695312 78.230469 C 181.546875 77.023438 182.152344 75.738281 182.859375 74.253906 C 184.140625 71.570312 185.730469 68.230469 182.765625 64.121094 C 181.785156 62.757812 180.71875 60.730469 179.675781 58.257812 C 179.25 57.246094 178.304688 56.621094 177.21875 56.621094 C 176.121094 56.621094 175.175781 57.246094 174.75 58.257812 C 173.707031 60.730469 172.640625 62.757812 171.660156 64.121094 C 168.699219 68.230469 170.289062 71.570312 171.570312 74.253906 C 172.273438 75.738281 172.890625 77.023438 172.734375 78.230469 C 172.523438 79.847656 171.578125 80.808594 170.484375 81.910156 C 169.402344 83.007812 168.195312 84.238281 167.835938 86.171875 L 145.941406 64.945312 C 145.738281 64.75 145.46875 64.640625 145.191406 64.640625 L 70.574219 64.640625 C 70.453125 64.640625 70.34375 64.667969 70.230469 64.707031 C 70.199219 64.714844 70.171875 64.730469 70.140625 64.746094 C 70.050781 64.789062 69.976562 64.835938 69.898438 64.894531 C 69.886719 64.910156 69.863281 64.910156 69.847656 64.925781 L 17.101562 113.300781 C 16.769531 113.605469 16.65625 114.078125 16.824219 114.492188 C 16.988281 114.910156 17.386719 115.1875 17.835938 115.1875 L 21.621094 115.1875 L 21.621094 185.171875 L 1.085938 185.171875 C 0.488281 185.171875 0 185.652344 0 186.25 C 0 186.851562 0.488281 187.339844 1.085938 187.339844 L 62.078125 187.339844 C 61.941406 187.550781 61.808594 187.746094 61.671875 187.933594 C 58.460938 192.394531 60.1875 196.023438 61.582031 198.941406 C 62.332031 200.507812 63.039062 202 62.863281 203.351562 C 62.632812 205.167969 61.582031 206.222656 60.375 207.453125 C 59.011719 208.835938 57.464844 210.394531 57.382812 213.117188 C 57.316406 215.023438 57.832031 216.753906 58.335938 218.425781 C 59.078125 220.910156 59.722656 223.054688 58.5 225.492188 C 57.929688 226.632812 57.328125 227.660156 56.753906 228.65625 C 55.035156 231.597656 53.414062 234.371094 53.773438 238.375 C 53.917969 240.027344 54.292969 241.660156 54.644531 243.25 C 55.507812 247.054688 56.316406 250.640625 54.097656 254.058594 C 51.472656 258.109375 52.539062 262.339844 53.324219 265.421875 C 53.65625 266.734375 53.96875 267.972656 53.925781 268.863281 C 53.730469 272.613281 53.023438 275.53125 52.394531 278.113281 C 51.328125 282.5 50.40625 286.292969 52.492188 291.917969 C 54.261719 296.667969 58.304688 299.945312 62.390625 301.277344 C 60.90625 306.363281 56.910156 313.617188 46.117188 316.203125 L 30.644531 316.203125 C 30.046875 316.203125 29.558594 316.683594 29.558594 317.285156 C 29.558594 317.882812 30.046875 318.371094 30.644531 318.371094 L 262.589844 318.371094 C 263.191406 318.371094 263.679688 317.882812 263.679688 317.285156 C 263.679688 316.683594 263.191406 316.203125 262.589844 316.203125 L 238.050781 316.203125 L 238.050781 272.871094 L 372.929688 272.871094 C 373.53125 272.871094 374.019531 272.382812 374.019531 271.78125 C 374.019531 271.183594 373.53125 270.695312 372.929688 270.695312 L 344.421875 270.695312 L 344.421875 240.230469 Z M 350.59375 146.570312 C 349.558594 144.394531 348.667969 142.519531 350.492188 139.992188 C 351.417969 138.703125 352.378906 136.886719 353.339844 134.613281 C 353.386719 134.507812 353.46875 134.449219 353.582031 134.449219 C 353.691406 134.449219 353.773438 134.507812 353.820312 134.613281 C 354.78125 136.886719 355.738281 138.695312 356.667969 139.992188 C 358.492188 142.519531 357.601562 144.394531 356.566406 146.570312 C 355.890625 147.988281 355.191406 149.449219 355.394531 151.070312 C 355.664062 153.117188 356.835938 154.300781 357.871094 155.351562 C 358.832031 156.328125 359.59375 157.097656 359.632812 158.449219 C 359.667969 159.613281 359.332031 160.75 358.972656 161.953125 C 358.367188 163.976562 357.683594 166.273438 358.964844 168.84375 C 359.4375 169.78125 359.917969 170.605469 360.382812 171.402344 C 361.65625 173.585938 362.65625 175.308594 362.4375 177.800781 C 362.332031 178.945312 362.078125 180.101562 361.800781 181.324219 C 361.109375 184.375 360.332031 187.839844 362.488281 191.179688 C 364.066406 193.609375 363.414062 196.1875 362.835938 198.460938 C 362.542969 199.625 362.265625 200.71875 362.316406 201.703125 C 362.476562 204.785156 363.042969 207.148438 363.554688 209.222656 C 364.363281 212.578125 364.957031 215 363.539062 218.800781 C 361.898438 223.234375 357.050781 225.761719 353.746094 225.257812 L 353.582031 225.238281 L 353.414062 225.257812 C 350.105469 225.761719 345.261719 223.234375 343.621094 218.800781 C 342.203125 215 342.792969 212.578125 343.605469 209.222656 C 344.113281 207.148438 344.683594 204.785156 344.84375 201.703125 C 344.894531 200.71875 344.617188 199.625 344.316406 198.460938 C 343.746094 196.1875 343.09375 193.609375 344.667969 191.179688 C 346.832031 187.839844 346.050781 184.375 345.359375 181.324219 C 345.082031 180.101562 344.828125 178.945312 344.722656 177.800781 C 344.496094 175.308594 345.503906 173.585938 346.777344 171.402344 C 347.242188 170.605469 347.722656 169.78125 348.195312 168.84375 C 349.476562 166.273438 348.792969 163.976562 348.1875 161.953125 C 347.828125 160.75 347.480469 159.613281 347.519531 158.449219 C 347.566406 157.097656 348.332031 156.328125 349.289062 155.351562 C 350.324219 154.300781 351.496094 153.117188 351.757812 151.070312 C 351.96875 149.449219 351.269531 147.988281 350.59375 146.570312 Z M 349.183594 226.878906 C 348.585938 228.835938 347.488281 231.183594 345.503906 233.277344 L 345.503906 224.863281 C 346.648438 225.761719 347.910156 226.4375 349.183594 226.878906 Z M 349.238281 151.960938 C 348.894531 152.660156 348.34375 153.214844 347.746094 153.828125 C 346.65625 154.933594 345.429688 156.175781 345.351562 158.382812 C 345.308594 159.898438 345.710938 161.261719 346.101562 162.574219 C 346.664062 164.449219 347.152344 166.070312 346.253906 167.871094 C 345.808594 168.746094 345.34375 169.542969 344.902344 170.3125 C 343.769531 172.25 342.707031 174.101562 342.554688 176.515625 L 340.230469 176.515625 L 340.230469 151.878906 C 340.230469 151.277344 339.742188 150.800781 339.144531 150.800781 L 293.03125 150.800781 C 292.433594 150.800781 291.945312 151.277344 291.945312 151.878906 L 291.945312 176.515625 L 286.875 176.515625 C 286.273438 176.515625 285.789062 177.003906 285.789062 177.605469 L 285.789062 237.566406 L 261.425781 237.566406 L 261.425781 146.472656 L 348.15625 146.472656 C 348.316406 146.824219 348.472656 147.167969 348.628906 147.5 C 348.855469 147.972656 349.074219 148.421875 349.238281 148.839844 Z M 326.59375 161.628906 L 326.59375 152.964844 L 338.0625 152.964844 L 338.0625 161.628906 Z M 338.0625 163.804688 L 338.0625 176.515625 L 326.582031 176.515625 C 326.585938 176.472656 326.59375 176.425781 326.59375 176.375 L 326.59375 163.804688 Z M 324.433594 176.515625 L 307.410156 176.515625 C 307.417969 176.472656 307.425781 176.425781 307.425781 176.375 L 307.425781 152.964844 L 324.417969 152.964844 L 324.417969 176.375 C 324.417969 176.425781 324.425781 176.472656 324.433594 176.515625 Z M 305.25 163.804688 L 305.25 176.375 C 305.25 176.425781 305.265625 176.472656 305.265625 176.515625 L 294.121094 176.515625 L 294.121094 163.804688 Z M 294.121094 161.628906 L 294.121094 152.964844 L 305.25 152.964844 L 305.25 161.628906 Z M 248.511719 142.535156 L 245.8125 144.507812 C 245.4375 144.785156 245.28125 145.277344 245.421875 145.722656 C 245.570312 146.171875 245.984375 146.472656 246.457031 146.472656 L 259.261719 146.472656 L 259.261719 237.566406 L 238.050781 237.566406 L 238.050781 232.738281 L 240.605469 232.738281 C 241.003906 232.738281 241.378906 232.519531 241.566406 232.160156 C 241.753906 231.808594 241.726562 231.371094 241.5 231.042969 L 211.5 187.339844 L 242.941406 187.339844 C 244.875 187.339844 246.449219 185.765625 246.449219 183.828125 C 246.449219 181.886719 244.875 180.3125 242.941406 180.3125 L 240.429688 180.3125 L 240.429688 156.574219 C 240.429688 155.980469 239.941406 155.496094 239.339844 155.496094 L 193.230469 155.496094 C 192.628906 155.496094 192.144531 155.980469 192.144531 156.574219 L 192.144531 175.277344 L 166.726562 175.277344 L 166.738281 142.535156 Z M 146.878906 216.875 L 126.898438 216.875 L 137.109375 192.09375 Z M 164.566406 150.238281 L 164.566406 155.636719 C 164.183594 153.679688 164.273438 151.96875 164.566406 150.238281 Z M 164.03125 134.871094 C 164.210938 135.597656 164.386719 136.285156 164.484375 136.910156 L 164.0625 137.214844 L 146.632812 137.214844 C 146.03125 137.214844 145.546875 137.695312 145.546875 138.296875 L 145.546875 175.277344 L 123.578125 175.277344 C 123.5625 175.277344 123.546875 175.285156 123.53125 175.285156 L 123.488281 175.285156 C 123.457031 175.285156 123.421875 175.300781 123.390625 175.300781 C 123.351562 175.308594 123.316406 175.316406 123.285156 175.324219 C 123.234375 175.339844 123.1875 175.363281 123.140625 175.375 L 123.050781 175.421875 C 123 175.445312 122.953125 175.480469 122.910156 175.511719 C 122.894531 175.535156 122.863281 175.542969 122.851562 175.5625 C 122.78125 175.617188 122.730469 175.683594 122.675781 175.75 L 117.683594 183.035156 L 117.683594 124.097656 L 164.949219 124.097656 C 164.878906 124.210938 164.820312 124.324219 164.746094 124.4375 C 162.328125 128.164062 163.3125 132.042969 164.03125 134.871094 Z M 124.066406 113.300781 L 118.148438 107.875 L 164.476562 107.875 C 164.386719 108.605469 164.371094 109.371094 164.4375 110.195312 C 164.574219 111.703125 164.910156 113.203125 165.238281 114.648438 C 165.496094 115.78125 165.742188 116.898438 165.890625 117.996094 L 117.683594 117.996094 L 117.683594 115.1875 L 123.328125 115.1875 C 123.773438 115.1875 124.175781 114.910156 124.34375 114.492188 C 124.5 114.078125 124.386719 113.605469 124.066406 113.300781 Z M 205.445312 168.5 L 205.445312 178.527344 L 202.085938 173.628906 C 201.683594 173.035156 200.699219 173.035156 200.292969 173.628906 L 199.15625 175.277344 L 194.308594 175.277344 L 194.308594 168.5 Z M 194.308594 166.324219 L 194.308594 157.660156 L 205.449219 157.660156 L 205.449219 166.324219 Z M 207.621094 180.3125 L 207.621094 157.660156 L 224.617188 157.660156 L 224.617188 180.3125 Z M 238.253906 168.5 L 238.253906 180.3125 L 226.792969 180.3125 L 226.792969 168.5 Z M 226.792969 166.324219 L 226.792969 157.660156 L 238.253906 157.660156 L 238.253906 166.324219 Z M 172.027344 83.441406 C 173.226562 82.226562 174.585938 80.855469 174.886719 78.507812 C 175.125 76.660156 174.316406 74.964844 173.527344 73.316406 C 172.28125 70.714844 171.210938 68.457031 173.421875 65.390625 C 174.511719 63.875 175.636719 61.757812 176.753906 59.097656 C 176.863281 58.835938 177.089844 58.789062 177.21875 58.789062 C 177.335938 58.789062 177.5625 58.835938 177.675781 59.097656 C 178.792969 61.757812 179.917969 63.875 181.003906 65.390625 C 183.21875 68.457031 182.144531 70.714844 180.898438 73.316406 C 180.121094 74.964844 179.308594 76.660156 179.542969 78.507812 C 179.851562 80.855469 181.199219 82.226562 182.398438 83.441406 C 183.5625 84.613281 184.476562 85.542969 184.53125 87.207031 C 184.574219 88.609375 184.171875 89.964844 183.742188 91.390625 C 183.046875 93.738281 182.242188 96.402344 183.726562 99.355469 C 184.273438 100.460938 184.835938 101.425781 185.386719 102.363281 C 186.898438 104.960938 188.09375 107.007812 187.824219 110 C 187.703125 111.363281 187.394531 112.730469 187.074219 114.167969 C 186.570312 116.390625 186.066406 118.652344 186.261719 120.933594 L 166.417969 135.492188 C 166.328125 135.109375 166.238281 134.726562 166.132812 134.335938 C 165.449219 131.621094 164.671875 128.546875 166.566406 125.613281 C 169.074219 121.765625 168.203125 117.902344 167.355469 114.167969 C 167.03125 112.730469 166.726562 111.363281 166.605469 110 C 166.335938 107.007812 167.535156 104.953125 169.042969 102.363281 C 169.589844 101.425781 170.152344 100.460938 170.707031 99.355469 C 172.183594 96.402344 171.390625 93.738281 170.683594 91.390625 C 170.257812 89.964844 169.851562 88.617188 169.898438 87.207031 C 169.949219 85.542969 170.863281 84.613281 172.027344 83.441406 Z M 23.796875 185.171875 L 23.796875 115.046875 C 23.878906 115 23.960938 114.964844 24.03125 114.902344 L 70.566406 72.363281 L 115.515625 114.761719 L 115.515625 185.171875 L 72.007812 185.171875 C 71.429688 184.085938 70.851562 182.839844 70.273438 181.480469 C 69.832031 180.417969 68.835938 179.757812 67.679688 179.757812 C 67.101562 179.757812 66.5625 179.921875 66.113281 180.222656 C 65.664062 180.523438 65.300781 180.949219 65.078125 181.480469 C 64.5 182.839844 63.921875 184.085938 63.34375 185.171875 Z M 54.53125 291.160156 C 52.671875 286.160156 53.484375 282.835938 54.503906 278.621094 C 55.15625 275.953125 55.890625 272.929688 56.09375 268.976562 C 56.152344 267.753906 55.800781 266.359375 55.425781 264.890625 C 54.667969 261.890625 53.804688 258.5 55.921875 255.246094 C 58.636719 251.058594 57.683594 246.84375 56.765625 242.773438 C 56.40625 241.1875 56.070312 239.6875 55.933594 238.1875 C 55.640625 234.867188 56.960938 232.609375 58.628906 229.75 C 59.226562 228.722656 59.84375 227.667969 60.441406 226.460938 C 62.046875 223.257812 61.183594 220.363281 60.421875 217.804688 C 59.949219 216.230469 59.496094 214.746094 59.550781 213.183594 C 59.609375 211.316406 60.683594 210.238281 61.921875 208.984375 C 63.21875 207.664062 64.6875 206.171875 65.015625 203.636719 C 65.273438 201.640625 64.394531 199.789062 63.539062 198.003906 C 62.21875 195.238281 60.976562 192.617188 63.433594 189.207031 C 64.628906 187.550781 65.851562 185.238281 67.078125 182.320312 C 67.230469 181.960938 67.546875 181.925781 67.679688 181.925781 C 67.808594 181.925781 68.121094 181.960938 68.28125 182.320312 C 69.503906 185.238281 70.734375 187.550781 71.917969 189.207031 C 74.378906 192.617188 73.132812 195.238281 71.8125 198.003906 C 70.957031 199.789062 70.078125 201.640625 70.335938 203.636719 C 70.664062 206.171875 72.136719 207.664062 73.441406 208.984375 C 74.675781 210.238281 75.742188 211.316406 75.800781 213.183594 C 75.855469 214.746094 75.40625 216.230469 74.933594 217.804688 C 74.175781 220.363281 73.304688 223.257812 74.910156 226.460938 C 75.511719 227.667969 76.125 228.722656 76.726562 229.75 C 78.390625 232.609375 79.710938 234.867188 79.417969 238.1875 C 79.28125 239.6875 78.945312 241.1875 78.585938 242.773438 C 77.671875 246.84375 76.71875 251.058594 79.433594 255.246094 C 81.546875 258.5 80.683594 261.898438 79.925781 264.890625 C 79.550781 266.359375 79.199219 267.753906 79.261719 268.976562 C 79.460938 272.929688 80.199219 275.953125 80.851562 278.621094 C 81.871094 282.835938 82.679688 286.160156 80.820312 291.160156 C 78.644531 297.019531 72.234375 300.363281 67.835938 299.695312 L 67.679688 299.675781 L 67.515625 299.695312 C 63.113281 300.355469 56.707031 297.019531 54.53125 291.160156 Z M 52.539062 316.203125 C 59.941406 312.527344 63.089844 306.347656 64.441406 301.78125 C 65.558594 301.96875 66.652344 302 67.679688 301.863281 C 68.101562 301.925781 68.535156 301.945312 68.984375 301.945312 C 69.246094 301.945312 69.515625 301.933594 69.789062 301.917969 C 71.152344 306.460938 74.316406 312.558594 81.644531 316.203125 Z M 87.140625 232.738281 L 87.414062 232.738281 L 87.414062 316.03125 C 85.359375 315.492188 83.566406 314.773438 81.988281 313.933594 C 81.945312 313.910156 81.898438 313.886719 81.855469 313.855469 C 81.78125 313.828125 81.710938 313.78125 81.644531 313.746094 C 81.546875 313.691406 81.449219 313.640625 81.351562 313.578125 C 81.300781 313.550781 81.238281 313.519531 81.1875 313.480469 C 81.128906 313.445312 81.066406 313.414062 81.015625 313.375 L 81.007812 313.375 C 80.960938 313.347656 80.917969 313.324219 80.871094 313.285156 C 80.8125 313.265625 80.761719 313.226562 80.707031 313.1875 C 76.351562 310.480469 73.925781 306.808594 72.585938 303.542969 C 72.585938 303.535156 72.578125 303.527344 72.578125 303.523438 C 72.570312 303.5 72.5625 303.476562 72.554688 303.460938 C 72.292969 302.816406 72.074219 302.1875 71.886719 301.585938 C 76.320312 300.507812 80.941406 297.085938 82.859375 291.917969 C 83.910156 289.085938 84.195312 286.714844 84.089844 284.496094 C 84.082031 284.398438 84.074219 284.308594 84.066406 284.210938 C 84.039062 283.675781 83.976562 283.152344 83.902344 282.625 C 83.902344 282.625 83.902344 282.625 83.902344 282.621094 C 83.894531 282.542969 83.878906 282.46875 83.863281 282.386719 C 83.707031 281.335938 83.480469 280.300781 83.226562 279.238281 C 83.203125 279.152344 83.191406 279.078125 83.175781 279.003906 C 83.167969 278.988281 83.160156 278.972656 83.160156 278.960938 L 83.160156 278.9375 C 83.09375 278.667969 83.023438 278.390625 82.957031 278.113281 C 82.335938 275.53125 81.621094 272.613281 81.425781 268.863281 C 81.382812 267.972656 81.699219 266.734375 82.027344 265.421875 C 82.816406 262.339844 83.878906 258.109375 81.253906 254.058594 C 79.035156 250.640625 79.84375 247.054688 80.707031 243.25 C 81.058594 241.660156 81.433594 240.027344 81.578125 238.375 C 81.9375 234.371094 80.316406 231.597656 78.601562 228.65625 C 78.023438 227.660156 77.421875 226.632812 76.851562 225.492188 C 75.898438 223.585938 76.078125 221.871094 76.558594 220.023438 C 76.558594 220.015625 76.558594 220.007812 76.566406 220.007812 C 76.597656 219.890625 76.628906 219.769531 76.664062 219.640625 C 76.769531 219.246094 76.898438 218.839844 77.015625 218.425781 C 77.519531 216.753906 78.039062 215.023438 77.96875 213.117188 C 77.953125 212.6875 77.910156 212.292969 77.820312 211.925781 C 77.789062 211.765625 77.753906 211.617188 77.707031 211.464844 C 77.675781 211.332031 77.632812 211.195312 77.578125 211.070312 C 77.347656 210.394531 77.003906 209.808594 76.605469 209.277344 C 76.558594 209.203125 76.5 209.125 76.441406 209.058594 C 76.34375 208.933594 76.238281 208.804688 76.125 208.675781 C 76.078125 208.617188 76.035156 208.5625 75.976562 208.503906 C 75.816406 208.324219 75.660156 208.152344 75.496094 207.980469 C 75.324219 207.800781 75.148438 207.625 74.984375 207.453125 C 73.769531 206.222656 72.71875 205.167969 72.488281 203.351562 C 72.316406 202 73.019531 200.507812 73.769531 198.941406 C 75.164062 196.023438 76.890625 192.394531 73.679688 187.933594 C 73.546875 187.746094 73.410156 187.550781 73.273438 187.339844 L 114.726562 187.339844 L 87.921875 226.375 L 87.140625 226.375 C 86.550781 226.375 86.0625 226.863281 86.0625 227.464844 L 86.0625 231.65625 C 86.0625 232.257812 86.550781 232.738281 87.140625 232.738281 Z M 156.59375 316.203125 L 137.960938 316.203125 L 137.960938 274.675781 L 156.59375 274.675781 Z M 165.71875 316.203125 L 158.765625 316.203125 L 158.765625 273.589844 C 158.765625 272.988281 158.28125 272.5 157.679688 272.5 L 136.875 272.5 C 136.273438 272.5 135.789062 272.988281 135.789062 273.589844 L 135.789062 316.203125 L 89.578125 316.203125 L 89.578125 232.738281 L 165.71875 232.738281 Z M 235.875 316.203125 L 167.886719 316.203125 L 167.886719 232.210938 L 201.203125 182.300781 L 235.628906 232.273438 C 235.695312 232.371094 235.785156 232.445312 235.875 232.519531 Z M 238.050781 239.742188 L 259.46875 239.742188 L 259.46875 245.914062 L 251.902344 245.914062 L 251.902344 254.132812 L 243.554688 254.132812 L 243.554688 262.472656 L 238.050781 262.472656 Z M 300.945312 270.695312 L 238.164062 270.695312 L 238.164062 264.648438 L 300.945312 264.648438 Z M 308.511719 262.347656 L 245.730469 262.347656 L 245.730469 256.300781 L 308.511719 256.300781 Z M 316.851562 254.132812 L 254.078125 254.132812 L 254.078125 248.089844 L 316.851562 248.089844 Z M 324.417969 245.785156 L 261.636719 245.785156 L 261.636719 239.742188 L 324.417969 239.742188 Z M 325.507812 237.566406 L 308.332031 237.566406 L 308.332031 195.972656 L 325.507812 195.972656 Z M 335.160156 237.566406 L 335.160156 184.292969 C 335.160156 183.695312 334.679688 183.214844 334.082031 183.214844 L 299.332031 183.214844 C 298.730469 183.214844 298.246094 183.695312 298.246094 184.292969 L 298.246094 237.566406 L 287.957031 237.566406 L 287.957031 178.691406 L 342.644531 178.691406 C 342.78125 179.742188 343.011719 180.785156 343.246094 181.804688 C 343.273438 181.9375 343.304688 182.074219 343.335938 182.214844 L 343.335938 189.09375 C 343.199219 189.402344 343.042969 189.703125 342.847656 189.996094 C 340.753906 193.21875 341.59375 196.558594 342.21875 198.996094 C 342.464844 199.992188 342.707031 200.9375 342.675781 201.589844 C 342.523438 204.46875 341.976562 206.726562 341.496094 208.714844 C 340.65625 212.15625 339.9375 215.125 341.582031 219.558594 C 342.007812 220.714844 342.617188 221.757812 343.335938 222.679688 L 343.335938 235.167969 C 342.015625 236.121094 340.433594 236.945312 338.535156 237.566406 Z M 342.832031 238.054688 C 347.917969 235.1875 350.210938 230.765625 351.242188 227.390625 C 351.691406 227.457031 352.140625 227.496094 352.574219 227.496094 C 352.917969 227.496094 353.25 227.472656 353.582031 227.433594 C 354.054688 227.496094 354.539062 227.5 355.042969 227.472656 C 356.085938 230.839844 358.378906 235.210938 363.429688 238.054688 Z M 283.167969 179.75 L 283.167969 151.878906 C 283.167969 151.277344 282.683594 150.800781 282.082031 150.800781 L 268.214844 150.800781 C 267.617188 150.800781 267.128906 151.277344 267.128906 151.878906 L 267.128906 179.75 C 265.84375 180.273438 264.9375 181.527344 264.9375 182.996094 C 264.9375 184.933594 266.511719 186.507812 268.449219 186.507812 L 281.84375 186.507812 C 283.785156 186.507812 285.359375 184.933594 285.359375 182.996094 C 285.359375 181.527344 284.453125 180.273438 283.167969 179.75 Z M 269.300781 152.964844 L 280.996094 152.964844 L 280.996094 161.644531 C 280.949219 161.636719 280.898438 161.628906 280.851562 161.628906 L 269.300781 161.628906 Z M 269.300781 163.804688 L 280.851562 163.804688 C 280.898438 163.804688 280.949219 163.789062 280.996094 163.789062 L 280.996094 179.488281 L 269.300781 179.488281 Z M 283.167969 218.972656 L 283.167969 191.125 C 283.167969 190.527344 282.683594 190.039062 282.082031 190.039062 L 268.214844 190.039062 C 267.617188 190.039062 267.128906 190.527344 267.128906 191.125 L 267.128906 218.464844 C 265.53125 218.785156 264.324219 220.203125 264.324219 221.898438 C 264.324219 223.839844 265.898438 225.417969 267.832031 225.417969 L 281.226562 225.417969 C 283.167969 225.417969 284.746094 223.839844 284.746094 221.898438 C 284.746094 220.683594 284.113281 219.605469 283.167969 218.972656 Z M 269.300781 192.207031 L 280.996094 192.207031 L 280.996094 200.882812 C 280.949219 200.875 280.898438 200.871094 280.851562 200.871094 L 269.300781 200.871094 Z M 269.300781 203.042969 L 280.851562 203.042969 C 280.898438 203.042969 280.949219 203.035156 280.996094 203.027344 L 280.996094 218.390625 L 269.300781 218.390625 Z M 222.351562 272.5 L 182.363281 272.5 C 179.03125 272.5 176.316406 275.210938 176.316406 278.539062 L 176.316406 296.464844 C 176.316406 299.800781 179.03125 302.507812 182.363281 302.507812 L 222.351562 302.507812 C 225.683594 302.507812 228.390625 299.800781 228.390625 296.464844 L 228.390625 278.539062 C 228.390625 275.210938 225.683594 272.5 222.351562 272.5 Z M 190.125 300.335938 L 182.363281 300.335938 C 180.226562 300.335938 178.492188 298.601562 178.492188 296.464844 L 178.492188 285.027344 L 190.125 285.027344 Z M 190.125 282.851562 L 178.492188 282.851562 L 178.492188 278.539062 C 178.492188 276.410156 180.226562 274.675781 182.363281 274.675781 L 190.125 274.675781 Z M 209.886719 300.335938 L 192.300781 300.335938 L 192.300781 285.027344 L 209.886719 285.027344 Z M 209.886719 282.851562 L 192.300781 282.851562 L 192.300781 274.675781 L 209.886719 274.675781 Z M 226.214844 296.464844 C 226.214844 298.601562 224.480469 300.335938 222.351562 300.335938 L 212.054688 300.335938 L 212.054688 285.027344 L 226.214844 285.027344 Z M 226.214844 282.851562 L 212.054688 282.851562 L 212.054688 274.675781 L 222.351562 274.675781 C 224.480469 274.675781 226.214844 276.410156 226.214844 278.539062 Z M 190.710938 264.523438 C 190.859375 264.597656 191.03125 264.648438 191.210938 264.648438 C 191.398438 264.648438 191.566406 264.597656 191.722656 264.523438 L 223.050781 264.523438 C 223.648438 264.523438 224.128906 264.035156 224.128906 263.433594 L 224.128906 247 C 224.128906 246.402344 223.648438 245.914062 223.050781 245.914062 L 211.273438 245.914062 L 211.273438 221.390625 C 211.273438 220.789062 210.789062 220.308594 210.1875 220.308594 L 191.210938 220.308594 C 190.613281 220.308594 190.125 220.789062 190.125 221.390625 L 190.125 245.914062 L 176.683594 245.914062 C 176.085938 245.914062 175.597656 246.402344 175.597656 247 L 175.597656 263.433594 C 175.597656 264.035156 176.085938 264.523438 176.683594 264.523438 Z M 217.542969 262.128906 L 217.542969 248.089844 L 221.960938 248.089844 L 221.960938 262.347656 L 217.523438 262.347656 C 217.539062 262.277344 217.542969 262.203125 217.542969 262.128906 Z M 211.273438 248.089844 L 215.371094 248.089844 L 215.371094 262.128906 C 215.371094 262.203125 215.378906 262.277344 215.394531 262.347656 L 211.273438 262.347656 Z M 201.789062 222.476562 L 209.101562 222.476562 L 209.101562 245.914062 L 201.789062 245.914062 Z M 201.789062 248.089844 L 209.101562 248.089844 L 209.101562 258.238281 L 201.789062 258.238281 Z M 201.789062 260.410156 L 209.101562 260.410156 L 209.101562 262.347656 L 201.789062 262.347656 Z M 192.300781 222.476562 L 199.613281 222.476562 L 199.613281 245.914062 L 192.300781 245.914062 Z M 192.300781 248.089844 L 199.613281 248.089844 L 199.613281 258.238281 L 192.300781 258.238281 Z M 192.300781 260.410156 L 199.613281 260.410156 L 199.613281 262.347656 L 192.300781 262.347656 Z M 184.703125 248.089844 L 190.125 248.089844 L 190.125 262.347656 L 184.703125 262.347656 Z M 177.765625 248.089844 L 182.535156 248.089844 L 182.535156 262.347656 L 177.765625 262.347656 Z M 142.3125 315.507812 L 152.386719 315.507812 C 154.15625 315.507812 155.59375 314.066406 155.59375 312.289062 L 155.59375 284.539062 C 155.59375 282.769531 154.15625 281.328125 152.386719 281.328125 L 142.3125 281.328125 C 140.542969 281.328125 139.101562 282.769531 139.101562 284.539062 L 139.101562 312.289062 C 139.101562 314.066406 140.542969 315.507812 142.3125 315.507812 Z M 141.523438 281.058594 L 153.171875 281.058594 C 154.507812 281.058594 155.59375 279.972656 155.59375 278.636719 L 155.59375 278.238281 C 155.59375 276.902344 154.507812 275.816406 153.171875 275.816406 L 141.523438 275.816406 C 140.191406 275.816406 139.101562 276.902344 139.101562 278.238281 L 139.101562 278.636719 C 139.101562 279.972656 140.191406 281.058594 141.523438 281.058594 Z M 130.433594 265.105469 L 148.035156 265.105469 C 148.636719 265.105469 149.113281 264.621094 149.113281 264.019531 L 149.113281 246.417969 C 149.113281 245.816406 148.636719 245.328125 148.035156 245.328125 L 130.433594 245.328125 C 129.832031 245.328125 129.34375 245.816406 129.34375 246.417969 L 129.34375 264.019531 C 129.34375 264.621094 129.832031 265.105469 130.433594 265.105469 Z M 140.316406 247.503906 L 146.949219 247.503906 L 146.949219 254.425781 L 140.316406 254.425781 Z M 140.316406 256.59375 L 146.949219 256.59375 L 146.949219 262.933594 L 140.316406 262.933594 Z M 131.511719 247.503906 L 138.140625 247.503906 L 138.140625 254.425781 L 131.511719 254.425781 Z M 131.511719 256.59375 L 138.140625 256.59375 L 138.140625 262.933594 L 131.511719 262.933594 Z M 135.988281 199.382812 L 130.664062 212.308594 C 130.523438 212.644531 130.558594 213.027344 130.761719 213.328125 C 130.964844 213.625 131.300781 213.808594 131.671875 213.808594 L 142.085938 213.808594 C 142.449219 213.808594 142.785156 213.625 142.988281 213.328125 C 143.191406 213.035156 143.226562 212.652344 143.09375 212.320312 L 138 199.398438 C 137.835938 198.988281 137.445312 198.714844 137.003906 198.710938 C 136.558594 198.714844 136.15625 198.972656 135.988281 199.382812 Z M 140.488281 211.632812 L 133.289062 211.632812 L 136.964844 202.699219 Z M 141.90625 154.21875 L 139.851562 154.21875 L 139.851562 138.222656 C 139.851562 137.621094 139.371094 137.132812 138.773438 137.132812 L 124.351562 137.132812 C 123.75 137.132812 123.269531 137.621094 123.269531 138.222656 L 123.269531 154.21875 L 121.738281 154.21875 C 121.140625 154.21875 120.660156 154.699219 120.660156 155.300781 L 120.660156 158.515625 C 120.660156 159.117188 121.140625 159.597656 121.738281 159.597656 L 141.90625 159.597656 C 142.507812 159.597656 142.996094 159.117188 142.996094 158.515625 L 142.996094 155.300781 C 142.996094 154.699219 142.507812 154.21875 141.90625 154.21875 Z M 132.644531 139.308594 L 137.683594 139.308594 L 137.683594 154.21875 L 132.644531 154.21875 Z M 125.4375 139.308594 L 130.476562 139.308594 L 130.476562 154.21875 L 125.4375 154.21875 Z M 98.242188 302.507812 L 126.316406 302.507812 C 129.644531 302.507812 132.351562 299.800781 132.351562 296.464844 L 132.351562 278.539062 C 132.351562 275.210938 129.644531 272.5 126.316406 272.5 L 98.242188 272.5 C 94.914062 272.5 92.203125 275.210938 92.203125 278.539062 L 92.203125 296.464844 C 92.203125 299.800781 94.914062 302.507812 98.242188 302.507812 Z M 119.925781 274.675781 L 126.316406 274.675781 C 128.445312 274.675781 130.183594 276.410156 130.183594 278.539062 L 130.183594 282.851562 L 119.925781 282.851562 Z M 119.925781 285.027344 L 130.183594 285.027344 L 130.183594 296.464844 C 130.183594 298.601562 128.445312 300.335938 126.316406 300.335938 L 119.925781 300.335938 Z M 104.878906 274.675781 L 117.75 274.675781 L 117.75 282.851562 L 104.878906 282.851562 Z M 104.878906 285.027344 L 117.75 285.027344 L 117.75 300.335938 L 104.878906 300.335938 Z M 94.371094 278.539062 C 94.371094 276.410156 96.113281 274.675781 98.242188 274.675781 L 102.710938 274.675781 L 102.710938 282.851562 L 94.371094 282.851562 Z M 94.371094 285.027344 L 102.710938 285.027344 L 102.710938 300.335938 L 98.242188 300.335938 C 96.113281 300.335938 94.371094 298.601562 94.371094 296.464844 Z M 99.367188 265.105469 L 116.96875 265.105469 C 117.5625 265.105469 118.050781 264.621094 118.050781 264.019531 L 118.050781 246.417969 C 118.050781 245.816406 117.5625 245.328125 116.96875 245.328125 L 99.367188 245.328125 C 98.765625 245.328125 98.28125 245.816406 98.28125 246.417969 L 98.28125 264.019531 C 98.28125 264.621094 98.765625 265.105469 99.367188 265.105469 Z M 109.253906 247.503906 L 115.882812 247.503906 L 115.882812 254.425781 L 109.253906 254.425781 Z M 109.253906 256.59375 L 115.882812 256.59375 L 115.882812 262.933594 L 109.253906 262.933594 Z M 100.449219 247.503906 L 107.078125 247.503906 L 107.078125 254.425781 L 100.449219 254.425781 Z M 100.449219 256.59375 L 107.078125 256.59375 L 107.078125 262.933594 L 100.449219 262.933594 Z M 101.300781 146.613281 C 101.300781 146.015625 100.816406 145.535156 100.214844 145.535156 L 79.859375 145.535156 C 79.261719 145.535156 78.773438 146.015625 78.773438 146.613281 L 78.773438 169.648438 L 76.175781 169.648438 C 75.578125 169.648438 75.089844 170.132812 75.089844 170.734375 L 75.089844 175.265625 C 75.089844 175.863281 75.578125 176.351562 76.175781 176.351562 L 104.648438 176.351562 C 105.246094 176.351562 105.734375 175.863281 105.734375 175.265625 L 105.734375 170.734375 C 105.734375 170.132812 105.246094 169.648438 104.648438 169.648438 L 101.300781 169.648438 Z M 91.125 147.703125 L 99.128906 147.703125 L 99.128906 169.648438 L 91.125 169.648438 Z M 80.949219 147.703125 L 88.949219 147.703125 L 88.949219 169.648438 L 80.949219 169.648438 Z M 77.257812 174.175781 L 77.257812 171.8125 L 77.265625 171.8125 L 77.265625 174.175781 Z M 103.921875 138.296875 L 103.921875 133.371094 C 103.921875 132.769531 103.441406 132.28125 102.839844 132.28125 L 99.203125 132.28125 L 99.203125 108.730469 C 99.203125 108.425781 99.074219 108.140625 98.851562 107.929688 L 76.65625 87.453125 C 76.335938 87.160156 75.878906 87.085938 75.480469 87.257812 C 75.089844 87.433594 74.835938 87.820312 74.835938 88.257812 L 74.835938 132.28125 L 65.339844 132.28125 L 65.339844 88.257812 C 65.339844 87.820312 65.085938 87.433594 64.6875 87.257812 C 64.289062 87.085938 63.832031 87.160156 63.515625 87.453125 L 41.324219 107.929688 C 41.101562 108.140625 40.972656 108.425781 40.972656 108.730469 L 40.972656 132.28125 L 33.890625 132.28125 C 33.292969 132.28125 32.804688 132.769531 32.804688 133.371094 L 32.804688 138.296875 C 32.804688 138.898438 33.292969 139.382812 33.890625 139.382812 L 102.839844 139.382812 C 103.441406 139.382812 103.921875 138.898438 103.921875 138.296875 Z M 88.101562 100.96875 L 97.027344 109.203125 L 97.027344 113.742188 L 88.101562 113.742188 Z M 88.101562 115.910156 L 97.027344 115.910156 L 97.027344 132.28125 L 88.101562 132.28125 Z M 77.003906 90.730469 L 85.925781 98.964844 L 85.925781 113.742188 L 77.003906 113.742188 Z M 77.003906 115.910156 L 85.925781 115.910156 L 85.925781 132.28125 L 77.003906 132.28125 Z M 54.238281 98.964844 L 63.164062 90.730469 L 63.164062 113.742188 L 54.238281 113.742188 Z M 54.238281 115.910156 L 63.164062 115.910156 L 63.164062 132.28125 L 54.238281 132.28125 Z M 43.148438 109.203125 L 52.074219 100.96875 L 52.074219 113.742188 L 43.148438 113.742188 Z M 43.148438 115.910156 L 52.074219 115.910156 L 52.074219 132.28125 L 43.148438 132.28125 Z M 66.261719 175.265625 L 66.261719 170.734375 C 66.261719 170.132812 65.773438 169.648438 65.175781 169.648438 L 61.828125 169.648438 L 61.828125 146.613281 C 61.828125 146.015625 61.34375 145.535156 60.742188 145.535156 L 40.386719 145.535156 C 39.789062 145.535156 39.300781 146.015625 39.300781 146.613281 L 39.300781 169.648438 L 36.703125 169.648438 C 36.105469 169.648438 35.617188 170.132812 35.617188 170.734375 L 35.617188 175.265625 C 35.617188 175.863281 36.105469 176.351562 36.703125 176.351562 L 65.175781 176.351562 C 65.773438 176.351562 66.261719 175.863281 66.261719 175.265625 Z M 51.652344 147.703125 L 59.65625 147.703125 L 59.65625 169.648438 L 51.652344 169.648438 Z M 41.476562 147.703125 L 49.476562 147.703125 L 49.476562 169.648438 L 41.476562 169.648438 Z M 283.167969 218.972656 L 283.167969 191.125 C 283.167969 190.527344 282.683594 190.039062 282.082031 190.039062 L 268.214844 190.039062 C 267.617188 190.039062 267.128906 190.527344 267.128906 191.125 L 267.128906 218.464844 C 265.53125 218.785156 264.324219 220.203125 264.324219 221.898438 C 264.324219 223.839844 265.898438 225.417969 267.832031 225.417969 L 281.226562 225.417969 C 283.167969 225.417969 284.746094 223.839844 284.746094 221.898438 C 284.746094 220.683594 284.113281 219.605469 283.167969 218.972656 Z M 269.300781 192.207031 L 280.996094 192.207031 L 280.996094 200.882812 C 280.949219 200.875 280.898438 200.871094 280.851562 200.871094 L 269.300781 200.871094 Z M 269.300781 203.042969 L 280.851562 203.042969 C 280.898438 203.042969 280.949219 203.035156 280.996094 203.027344 L 280.996094 218.390625 L 269.300781 218.390625 Z M 283.167969 179.75 L 283.167969 151.878906 C 283.167969 151.277344 282.683594 150.800781 282.082031 150.800781 L 268.214844 150.800781 C 267.617188 150.800781 267.128906 151.277344 267.128906 151.878906 L 267.128906 179.75 C 265.84375 180.273438 264.9375 181.527344 264.9375 182.996094 C 264.9375 184.933594 266.511719 186.507812 268.449219 186.507812 L 281.84375 186.507812 C 283.785156 186.507812 285.359375 184.933594 285.359375 182.996094 C 285.359375 181.527344 284.453125 180.273438 283.167969 179.75 Z M 269.300781 152.964844 L 280.996094 152.964844 L 280.996094 161.644531 C 280.949219 161.636719 280.898438 161.628906 280.851562 161.628906 L 269.300781 161.628906 Z M 269.300781 163.804688 L 280.851562 163.804688 C 280.898438 163.804688 280.949219 163.789062 280.996094 163.789062 L 280.996094 179.488281 L 269.300781 179.488281 Z M 143.09375 212.320312 L 138 199.398438 C 137.835938 198.988281 137.445312 198.714844 137.003906 198.710938 C 136.558594 198.714844 136.15625 198.972656 135.988281 199.382812 L 130.664062 212.308594 C 130.523438 212.644531 130.558594 213.027344 130.761719 213.328125 C 130.964844 213.625 131.300781 213.808594 131.671875 213.808594 L 142.085938 213.808594 C 142.449219 213.808594 142.785156 213.625 142.988281 213.328125 C 143.191406 213.035156 143.226562 212.652344 143.09375 212.320312 Z M 133.289062 211.632812 L 136.964844 202.699219 L 140.488281 211.632812 Z M 162.832031 157.691406 C 162.832031 157.691406 162.832031 157.683594 162.824219 157.683594 C 162.847656 157.789062 162.886719 157.894531 162.921875 158.007812 Z M 141.90625 154.21875 L 139.851562 154.21875 L 139.851562 138.222656 C 139.851562 137.621094 139.371094 137.132812 138.773438 137.132812 L 124.351562 137.132812 C 123.75 137.132812 123.269531 137.621094 123.269531 138.222656 L 123.269531 154.21875 L 121.738281 154.21875 C 121.140625 154.21875 120.660156 154.699219 120.660156 155.300781 L 120.660156 158.515625 C 120.660156 159.117188 121.140625 159.597656 121.738281 159.597656 L 141.90625 159.597656 C 142.507812 159.597656 142.996094 159.117188 142.996094 158.515625 L 142.996094 155.300781 C 142.996094 154.699219 142.507812 154.21875 141.90625 154.21875 Z M 132.644531 139.308594 L 137.683594 139.308594 L 137.683594 154.21875 L 132.644531 154.21875 Z M 125.4375 139.308594 L 130.476562 139.308594 L 130.476562 154.21875 L 125.4375 154.21875 Z M 65.175781 169.648438 L 61.828125 169.648438 L 61.828125 146.613281 C 61.828125 146.015625 61.34375 145.535156 60.742188 145.535156 L 40.386719 145.535156 C 39.789062 145.535156 39.300781 146.015625 39.300781 146.613281 L 39.300781 169.648438 L 36.703125 169.648438 C 36.105469 169.648438 35.617188 170.132812 35.617188 170.734375 L 35.617188 175.265625 C 35.617188 175.863281 36.105469 176.351562 36.703125 176.351562 L 65.175781 176.351562 C 65.773438 176.351562 66.261719 175.863281 66.261719 175.265625 L 66.261719 170.734375 C 66.261719 170.132812 65.773438 169.648438 65.175781 169.648438 Z M 51.652344 147.703125 L 59.65625 147.703125 L 59.65625 169.648438 L 51.652344 169.648438 Z M 41.476562 147.703125 L 49.476562 147.703125 L 49.476562 169.648438 L 41.476562 169.648438 Z M 102.839844 132.28125 L 99.203125 132.28125 L 99.203125 108.730469 C 99.203125 108.425781 99.074219 108.140625 98.851562 107.929688 L 76.65625 87.453125 C 76.335938 87.160156 75.878906 87.085938 75.480469 87.257812 C 75.089844 87.433594 74.835938 87.820312 74.835938 88.257812 L 74.835938 132.28125 L 65.339844 132.28125 L 65.339844 88.257812 C 65.339844 87.820312 65.085938 87.433594 64.6875 87.257812 C 64.289062 87.085938 63.832031 87.160156 63.515625 87.453125 L 41.324219 107.929688 C 41.101562 108.140625 40.972656 108.425781 40.972656 108.730469 L 40.972656 132.28125 L 33.890625 132.28125 C 33.292969 132.28125 32.804688 132.769531 32.804688 133.371094 L 32.804688 138.296875 C 32.804688 138.898438 33.292969 139.382812 33.890625 139.382812 L 102.839844 139.382812 C 103.441406 139.382812 103.921875 138.898438 103.921875 138.296875 L 103.921875 133.371094 C 103.921875 132.769531 103.441406 132.28125 102.839844 132.28125 Z M 88.101562 100.96875 L 97.027344 109.203125 L 97.027344 113.742188 L 88.101562 113.742188 Z M 88.101562 115.910156 L 97.027344 115.910156 L 97.027344 132.28125 L 88.101562 132.28125 Z M 77.003906 90.730469 L 85.925781 98.964844 L 85.925781 113.742188 L 77.003906 113.742188 Z M 77.003906 115.910156 L 85.925781 115.910156 L 85.925781 132.28125 L 77.003906 132.28125 Z M 54.238281 98.964844 L 63.164062 90.730469 L 63.164062 113.742188 L 54.238281 113.742188 Z M 54.238281 115.910156 L 63.164062 115.910156 L 63.164062 132.28125 L 54.238281 132.28125 Z M 43.148438 109.203125 L 52.074219 100.96875 L 52.074219 113.742188 L 43.148438 113.742188 Z M 43.148438 115.910156 L 52.074219 115.910156 L 52.074219 132.28125 L 43.148438 132.28125 Z M 104.648438 169.648438 L 101.300781 169.648438 L 101.300781 146.613281 C 101.300781 146.015625 100.816406 145.535156 100.214844 145.535156 L 79.859375 145.535156 C 79.261719 145.535156 78.773438 146.015625 78.773438 146.613281 L 78.773438 169.648438 L 76.175781 169.648438 C 75.578125 169.648438 75.089844 170.132812 75.089844 170.734375 L 75.089844 175.265625 C 75.089844 175.863281 75.578125 176.351562 76.175781 176.351562 L 104.648438 176.351562 C 105.246094 176.351562 105.734375 175.863281 105.734375 175.265625 L 105.734375 170.734375 C 105.734375 170.132812 105.246094 169.648438 104.648438 169.648438 Z M 91.125 147.703125 L 99.128906 147.703125 L 99.128906 169.648438 L 91.125 169.648438 Z M 80.949219 147.703125 L 88.949219 147.703125 L 88.949219 169.648438 L 80.949219 169.648438 Z M 77.257812 174.175781 L 77.257812 171.8125 L 77.265625 171.8125 L 77.265625 174.175781 Z M 153.171875 275.816406 L 141.523438 275.816406 C 140.191406 275.816406 139.101562 276.902344 139.101562 278.238281 L 139.101562 278.636719 C 139.101562 279.972656 140.191406 281.058594 141.523438 281.058594 L 153.171875 281.058594 C 154.507812 281.058594 155.59375 279.972656 155.59375 278.636719 L 155.59375 278.238281 C 155.59375 276.902344 154.507812 275.816406 153.171875 275.816406 Z M 152.386719 281.328125 L 142.3125 281.328125 C 140.542969 281.328125 139.101562 282.769531 139.101562 284.539062 L 139.101562 312.289062 C 139.101562 314.066406 140.542969 315.507812 142.3125 315.507812 L 152.386719 315.507812 C 154.15625 315.507812 155.59375 314.066406 155.59375 312.289062 L 155.59375 284.539062 C 155.59375 282.769531 154.15625 281.328125 152.386719 281.328125 Z M 116.96875 245.328125 L 99.367188 245.328125 C 98.765625 245.328125 98.28125 245.816406 98.28125 246.417969 L 98.28125 264.019531 C 98.28125 264.621094 98.765625 265.105469 99.367188 265.105469 L 116.96875 265.105469 C 117.5625 265.105469 118.050781 264.621094 118.050781 264.019531 L 118.050781 246.417969 C 118.050781 245.816406 117.5625 245.328125 116.96875 245.328125 Z M 107.078125 262.933594 L 100.449219 262.933594 L 100.449219 256.59375 L 107.078125 256.59375 Z M 107.078125 254.425781 L 100.449219 254.425781 L 100.449219 247.503906 L 107.078125 247.503906 Z M 115.882812 262.933594 L 109.253906 262.933594 L 109.253906 256.59375 L 115.882812 256.59375 Z M 115.882812 254.425781 L 109.253906 254.425781 L 109.253906 247.503906 L 115.882812 247.503906 Z M 126.316406 272.5 L 98.242188 272.5 C 94.914062 272.5 92.203125 275.210938 92.203125 278.539062 L 92.203125 296.464844 C 92.203125 299.800781 94.914062 302.507812 98.242188 302.507812 L 126.316406 302.507812 C 129.644531 302.507812 132.351562 299.800781 132.351562 296.464844 L 132.351562 278.539062 C 132.351562 275.210938 129.644531 272.5 126.316406 272.5 Z M 102.710938 300.335938 L 98.242188 300.335938 C 96.113281 300.335938 94.371094 298.601562 94.371094 296.464844 L 94.371094 285.027344 L 102.710938 285.027344 Z M 102.710938 282.851562 L 94.371094 282.851562 L 94.371094 278.539062 C 94.371094 276.410156 96.113281 274.675781 98.242188 274.675781 L 102.710938 274.675781 Z M 117.75 300.335938 L 104.878906 300.335938 L 104.878906 285.027344 L 117.75 285.027344 Z M 117.75 282.851562 L 104.878906 282.851562 L 104.878906 274.675781 L 117.75 274.675781 Z M 130.183594 296.464844 C 130.183594 298.601562 128.445312 300.335938 126.316406 300.335938 L 119.925781 300.335938 L 119.925781 285.027344 L 130.183594 285.027344 Z M 130.183594 282.851562 L 119.925781 282.851562 L 119.925781 274.675781 L 126.316406 274.675781 C 128.445312 274.675781 130.183594 276.410156 130.183594 278.539062 Z M 148.035156 245.328125 L 130.433594 245.328125 C 129.832031 245.328125 129.34375 245.816406 129.34375 246.417969 L 129.34375 264.019531 C 129.34375 264.621094 129.832031 265.105469 130.433594 265.105469 L 148.035156 265.105469 C 148.636719 265.105469 149.113281 264.621094 149.113281 264.019531 L 149.113281 246.417969 C 149.113281 245.816406 148.636719 245.328125 148.035156 245.328125 Z M 138.140625 262.933594 L 131.511719 262.933594 L 131.511719 256.59375 L 138.140625 256.59375 Z M 138.140625 254.425781 L 131.511719 254.425781 L 131.511719 247.503906 L 138.140625 247.503906 Z M 146.949219 262.933594 L 140.316406 262.933594 L 140.316406 256.59375 L 146.949219 256.59375 Z M 146.949219 254.425781 L 140.316406 254.425781 L 140.316406 247.503906 L 146.949219 247.503906 Z M 223.050781 245.914062 L 211.273438 245.914062 L 211.273438 221.390625 C 211.273438 220.789062 210.789062 220.308594 210.1875 220.308594 L 191.210938 220.308594 C 190.613281 220.308594 190.125 220.789062 190.125 221.390625 L 190.125 245.914062 L 176.683594 245.914062 C 176.085938 245.914062 175.597656 246.402344 175.597656 247 L 175.597656 263.433594 C 175.597656 264.035156 176.085938 264.523438 176.683594 264.523438 L 190.710938 264.523438 C 190.859375 264.597656 191.03125 264.648438 191.210938 264.648438 C 191.398438 264.648438 191.566406 264.597656 191.722656 264.523438 L 223.050781 264.523438 C 223.648438 264.523438 224.128906 264.035156 224.128906 263.433594 L 224.128906 247 C 224.128906 246.402344 223.648438 245.914062 223.050781 245.914062 Z M 182.535156 262.347656 L 177.765625 262.347656 L 177.765625 248.089844 L 182.535156 248.089844 Z M 190.125 262.347656 L 184.703125 262.347656 L 184.703125 248.089844 L 190.125 248.089844 Z M 199.613281 262.347656 L 192.300781 262.347656 L 192.300781 260.410156 L 199.613281 260.410156 Z M 199.613281 258.238281 L 192.300781 258.238281 L 192.300781 248.089844 L 199.613281 248.089844 Z M 199.613281 245.914062 L 192.300781 245.914062 L 192.300781 222.476562 L 199.613281 222.476562 Z M 209.101562 262.347656 L 201.789062 262.347656 L 201.789062 260.410156 L 209.101562 260.410156 Z M 209.101562 258.238281 L 201.789062 258.238281 L 201.789062 248.089844 L 209.101562 248.089844 Z M 209.101562 245.914062 L 201.789062 245.914062 L 201.789062 222.476562 L 209.101562 222.476562 Z M 211.273438 262.347656 L 211.273438 248.089844 L 215.371094 248.089844 L 215.371094 262.128906 C 215.371094 262.203125 215.378906 262.277344 215.394531 262.347656 Z M 221.960938 262.347656 L 217.523438 262.347656 C 217.539062 262.277344 217.542969 262.203125 217.542969 262.128906 L 217.542969 248.089844 L 221.960938 248.089844 Z M 222.351562 272.5 L 182.363281 272.5 C 179.03125 272.5 176.316406 275.210938 176.316406 278.539062 L 176.316406 296.464844 C 176.316406 299.800781 179.03125 302.507812 182.363281 302.507812 L 222.351562 302.507812 C 225.683594 302.507812 228.390625 299.800781 228.390625 296.464844 L 228.390625 278.539062 C 228.390625 275.210938 225.683594 272.5 222.351562 272.5 Z M 190.125 300.335938 L 182.363281 300.335938 C 180.226562 300.335938 178.492188 298.601562 178.492188 296.464844 L 178.492188 285.027344 L 190.125 285.027344 Z M 190.125 282.851562 L 178.492188 282.851562 L 178.492188 278.539062 C 178.492188 276.410156 180.226562 274.675781 182.363281 274.675781 L 190.125 274.675781 Z M 209.886719 300.335938 L 192.300781 300.335938 L 192.300781 285.027344 L 209.886719 285.027344 Z M 209.886719 282.851562 L 192.300781 282.851562 L 192.300781 274.675781 L 209.886719 274.675781 Z M 226.214844 296.464844 C 226.214844 298.601562 224.480469 300.335938 222.351562 300.335938 L 212.054688 300.335938 L 212.054688 285.027344 L 226.214844 285.027344 Z M 226.214844 282.851562 L 212.054688 282.851562 L 212.054688 274.675781 L 222.351562 274.675781 C 224.480469 274.675781 226.214844 276.410156 226.214844 278.539062 Z M 226.214844 282.851562 " fill-opacity="1" fill-rule="nonzero"/></g><path fill="#f95f06" d="M 168.609375 92.015625 C 168.335938 91.121094 168.066406 90.207031 167.894531 89.253906 L 144.75 66.8125 L 73.371094 66.8125 L 115.777344 105.710938 L 164.96875 105.710938 C 165.503906 104.132812 166.320312 102.722656 167.167969 101.269531 C 167.296875 101.042969 167.429688 100.8125 167.566406 100.578125 C 167.648438 100.4375 167.730469 100.292969 167.820312 100.144531 C 168.136719 99.582031 168.449219 99.003906 168.765625 98.390625 C 169.859375 96.199219 169.273438 94.257812 168.609375 92.015625 Z M 117.683594 120.160156 L 117.683594 121.925781 L 165.808594 121.925781 C 165.945312 121.347656 166.011719 120.753906 166.027344 120.160156 Z M 70.582031 67.195312 L 20.625 113.015625 L 22.875 113.015625 L 69.847656 70.085938 C 70.265625 69.695312 70.914062 69.703125 71.324219 70.089844 L 116.820312 113.015625 L 120.539062 113.015625 Z M 34.980469 134.449219 L 34.980469 137.214844 L 101.753906 137.214844 L 101.753906 134.449219 Z M 37.792969 171.8125 L 37.792969 174.175781 L 64.09375 174.175781 L 64.09375 171.8125 Z M 77.265625 171.8125 L 77.265625 174.175781 L 103.558594 174.175781 L 103.558594 171.8125 Z M 122.828125 156.386719 L 122.828125 157.429688 L 140.828125 157.429688 L 140.828125 156.386719 Z M 163.273438 159.050781 C 163.140625 158.6875 163.027344 158.34375 162.921875 158.007812 C 162.886719 157.894531 162.847656 157.789062 162.824219 157.683594 C 162.75 157.445312 162.691406 157.21875 162.636719 156.996094 C 162.609375 156.882812 162.578125 156.769531 162.554688 156.65625 C 162.398438 156.011719 162.300781 155.390625 162.234375 154.796875 C 161.886719 151.75 162.503906 149.210938 163.183594 146.398438 C 163.46875 145.210938 163.777344 143.9375 164.039062 142.535156 L 160.132812 142.535156 C 159.660156 142.535156 159.246094 142.226562 159.097656 141.785156 C 159.074219 141.722656 159.066406 141.664062 159.058594 141.605469 C 159.039062 141.5 159.046875 141.386719 159.066406 141.28125 C 159.066406 141.246094 159.074219 141.207031 159.089844 141.167969 C 159.105469 141.09375 159.136719 141.019531 159.164062 140.945312 C 159.238281 140.800781 159.351562 140.667969 159.488281 140.570312 L 161.109375 139.382812 L 147.71875 139.382812 L 147.71875 175.277344 L 164.550781 175.277344 L 164.558594 161.589844 C 164.054688 160.804688 163.621094 159.957031 163.273438 159.050781 Z M 306.195312 106.863281 C 304.574219 105.6875 302.40625 105.695312 300.789062 106.878906 L 295.679688 110.628906 L 311.378906 110.628906 Z M 314.234375 112.707031 C 314.101562 112.765625 313.957031 112.796875 313.800781 112.796875 L 292.820312 112.796875 C 292.792969 112.796875 292.761719 112.796875 292.730469 112.789062 L 287.144531 116.882812 L 319.988281 116.882812 Z M 341.566406 132.574219 L 265.761719 132.574219 L 258.285156 138.058594 L 349.117188 138.058594 Z M 322.386719 118.632812 C 322.191406 118.886719 321.886719 119.058594 321.53125 119.058594 L 284.273438 119.058594 C 284.25 119.058594 284.21875 119.050781 284.199219 119.050781 L 277.84375 123.710938 L 329.371094 123.710938 Z M 347.851562 140.230469 L 255.320312 140.230469 L 249.773438 144.296875 L 347.421875 144.296875 C 347.160156 143.066406 347.183594 141.710938 347.851562 140.230469 Z M 332.355469 125.875 L 274.890625 125.875 L 268.726562 130.398438 L 338.582031 130.398438 Z M 300.417969 185.382812 L 300.417969 237.566406 L 306.164062 237.566406 L 306.164062 194.882812 C 306.164062 194.285156 306.644531 193.796875 307.246094 193.796875 L 326.59375 193.796875 C 327.121094 193.796875 327.554688 194.171875 327.652344 194.667969 C 327.667969 194.734375 327.675781 194.808594 327.675781 194.882812 L 327.675781 237.566406 L 332.992188 237.566406 L 332.992188 185.382812 Z M 281.84375 181.652344 L 268.445312 181.652344 C 267.710938 181.652344 267.105469 182.253906 267.105469 182.996094 C 267.105469 183.738281 267.710938 184.339844 268.445312 184.339844 L 281.84375 184.339844 C 282.585938 184.339844 283.183594 183.738281 283.183594 182.996094 C 283.183594 182.253906 282.585938 181.652344 281.84375 181.652344 Z M 281.226562 220.5625 L 267.832031 220.5625 C 267.089844 220.5625 266.488281 221.164062 266.488281 221.898438 C 266.488281 222.640625 267.089844 223.242188 267.832031 223.242188 L 281.226562 223.242188 C 281.96875 223.242188 282.570312 222.640625 282.570312 221.898438 C 282.570312 221.164062 281.96875 220.5625 281.226562 220.5625 Z M 138.300781 189.183594 L 149.101562 216.589844 L 161.65625 189.183594 Z M 201.1875 176.164062 L 165.546875 228.078125 C 165.34375 228.371094 165.007812 228.550781 164.648438 228.550781 L 88.230469 228.550781 L 88.230469 230.570312 L 166.371094 230.570312 L 200.289062 179.757812 C 200.480469 179.457031 200.820312 179.277344 201.179688 179.277344 C 201.53125 179.300781 201.878906 179.449219 202.085938 179.742188 L 237.097656 230.570312 L 238.542969 230.570312 Z M 201.1875 176.164062 " fill-opacity="1" fill-rule="nonzero"/></svg>