<svg xmlns="http://www.w3.org/2000/svg" xmlns:xlink="http://www.w3.org/1999/xlink" width="500" zoomAndPan="magnify" viewBox="0 0 375 374.999991" height="500" preserveAspectRatio="xMidYMid meet" version="1.0"><defs><clipPath id="10e5209567"><path d="M 8 8 L 375 8 L 375 374.25 L 8 374.25 Z M 8 8 " clip-rule="nonzero"/></clipPath></defs><path fill="#c5d1d6" d="M 102.753906 84.671875 L 123.894531 44.980469 C 127.230469 38.71875 124.859375 30.9375 118.597656 27.605469 C 112.332031 24.269531 104.554688 26.640625 101.21875 32.90625 L 80.078125 72.59375 L 85.761719 85.449219 L 102.753906 84.675781 Z M 102.753906 84.671875 " fill-opacity="1" fill-rule="nonzero"/><path fill="#c5d1d6" d="M 57.398438 60.507812 L 78.542969 20.820312 C 81.875 14.558594 79.503906 6.777344 73.242188 3.445312 C 66.976562 0.109375 59.199219 2.480469 55.863281 8.742188 L 34.722656 48.433594 L 40.800781 59.75 L 57.40625 60.515625 Z M 57.398438 60.507812 " fill-opacity="1" fill-rule="nonzero"/><g clip-path="url(#10e5209567)"><path fill="#11114e" d="M 17.859375 134.074219 C 11.882812 152.125 8.671875 171.398438 8.671875 191.441406 C 8.671875 292.558594 90.644531 374.53125 191.761719 374.53125 C 292.878906 374.53125 374.851562 292.558594 374.851562 191.441406 C 374.851562 90.324219 292.878906 8.351562 191.761719 8.351562 L 188.550781 8.351562 C 181.484375 8.351562 175.699219 14.132812 175.699219 21.199219 C 175.699219 28.265625 181.484375 34.046875 188.550781 34.046875 L 191.761719 34.046875 C 278.550781 34.046875 349.15625 104.648438 349.15625 191.441406 C 349.15625 278.230469 278.550781 348.835938 191.761719 348.835938 C 104.96875 348.835938 34.367188 278.230469 34.367188 191.441406 C 34.367188 175.765625 36.679688 160.605469 40.984375 146.34375 L 34.367188 130.410156 Z M 17.859375 134.074219 " fill-opacity="1" fill-rule="nonzero"/></g><path fill="#002446" d="M 4.515625 105.125 L 22.636719 71.109375 L 27.945312 66.175781 L 92.1875 98.296875 L 90.675781 107.355469 L 72.554688 141.371094 C 67.550781 150.761719 55.875 154.324219 46.484375 149.316406 L 12.46875 131.195312 C 3.074219 126.191406 -0.484375 114.519531 4.519531 105.125 Z M 4.515625 105.125 " fill-opacity="1" fill-rule="nonzero"/><path fill="#f95f06" d="M 137.484375 207.5 C 132.246094 207.5 129.007812 201.785156 131.703125 197.292969 L 210.027344 93.652344 C 212.054688 90.265625 217.273438 92.066406 216.777344 95.984375 L 201.390625 175.378906 L 239.609375 175.378906 C 244.84375 175.378906 248.082031 181.097656 245.390625 185.589844 L 167.066406 289.230469 C 165.035156 292.617188 159.820312 290.816406 160.316406 286.898438 L 175.699219 207.5 Z M 137.484375 207.5 " fill-opacity="1" fill-rule="nonzero"/><path fill="#11114e" d="M 105.410156 93.359375 L 99.367188 104.699219 C 99.167969 105.074219 98.9375 105.421875 98.667969 105.75 C 98.402344 106.074219 98.105469 106.371094 97.78125 106.640625 C 97.453125 106.90625 97.105469 107.140625 96.734375 107.339844 C 96.363281 107.539062 95.976562 107.703125 95.570312 107.824219 C 95.167969 107.949219 94.757812 108.03125 94.335938 108.070312 C 93.917969 108.113281 93.496094 108.113281 93.078125 108.074219 C 92.65625 108.03125 92.246094 107.953125 91.839844 107.828125 C 91.4375 107.707031 91.050781 107.546875 90.675781 107.347656 L 22.640625 71.105469 C 22.265625 70.90625 21.917969 70.671875 21.589844 70.40625 C 21.265625 70.140625 20.96875 69.84375 20.699219 69.515625 C 20.429688 69.191406 20.199219 68.84375 19.996094 68.46875 C 19.796875 68.097656 19.636719 67.710938 19.515625 67.308594 C 19.390625 66.902344 19.308594 66.492188 19.265625 66.074219 C 19.226562 65.652344 19.222656 65.234375 19.265625 64.8125 C 19.304688 64.394531 19.386719 63.980469 19.507812 63.578125 C 19.632812 63.175781 19.792969 62.785156 19.988281 62.414062 L 26.03125 51.074219 C 26.230469 50.703125 26.460938 50.351562 26.730469 50.027344 C 26.996094 49.699219 27.292969 49.402344 27.617188 49.132812 C 27.945312 48.867188 28.292969 48.632812 28.664062 48.433594 C 29.035156 48.234375 29.421875 48.074219 29.828125 47.949219 C 30.230469 47.828125 30.640625 47.742188 31.0625 47.703125 C 31.480469 47.660156 31.902344 47.660156 32.320312 47.699219 C 32.742188 47.742188 33.152344 47.824219 33.554688 47.945312 C 33.960938 48.066406 34.347656 48.226562 34.722656 48.425781 L 102.757812 84.671875 C 103.132812 84.867188 103.480469 85.101562 103.808594 85.367188 C 104.132812 85.636719 104.429688 85.933594 104.699219 86.257812 C 104.96875 86.582031 105.199219 86.933594 105.398438 87.304688 C 105.597656 87.675781 105.761719 88.0625 105.882812 88.464844 C 106.007812 88.871094 106.089844 89.28125 106.132812 89.703125 C 106.171875 90.121094 106.171875 90.539062 106.132812 90.960938 C 106.09375 91.378906 106.011719 91.792969 105.890625 92.195312 C 105.765625 92.601562 105.605469 92.988281 105.410156 93.359375 Z M 105.410156 93.359375 " fill-opacity="1" fill-rule="nonzero"/></svg>