<svg xmlns="http://www.w3.org/2000/svg" xmlns:xlink="http://www.w3.org/1999/xlink" width="500" zoomAndPan="magnify" viewBox="0 0 375 374.999991" height="500" preserveAspectRatio="xMidYMid meet" version="1.0"><defs><clipPath id="7619e1e724"><path d="M 55.3125 0 L 319 0 L 319 375 L 55.3125 375 Z M 55.3125 0 " clip-rule="nonzero"/></clipPath></defs><g clip-path="url(#7619e1e724)"><path fill="#f95f06" d="M 144.582031 287.261719 C 61.804688 208.523438 95.980469 163.179688 136.382812 109.574219 C 159.03125 79.527344 183.71875 46.769531 189.183594 3.847656 C 189.457031 1.636719 191.484375 0.0664062 193.695312 0.351562 C 194.835938 0.492188 195.796875 1.101562 196.433594 1.953125 C 217.542969 30.304688 230.589844 58.003906 235.574219 85.039062 C 240.59375 112.277344 237.441406 138.761719 226.117188 164.492188 L 225.933594 164.851562 C 214.785156 187.238281 199.179688 202.261719 184.90625 215.996094 C 164.71875 235.421875 147.351562 252.140625 151.375 283.832031 C 151.652344 286.042969 150.089844 288.0625 147.875 288.34375 C 146.625 288.5 145.433594 288.066406 144.582031 287.261719 Z M 94.738281 346.511719 L 94.738281 335.351562 C 94.738281 333.113281 96.554688 331.296875 98.792969 331.296875 C 99.175781 331.296875 99.550781 331.351562 99.90625 331.453125 C 102.667969 331.917969 105.382812 331.28125 107.566406 329.847656 C 109.828125 328.355469 111.53125 326.011719 112.132812 323.148438 C 112.53125 321.242188 114.214844 319.929688 116.09375 319.929688 L 143.566406 319.917969 C 145.503906 319.917969 147.121094 321.277344 147.523438 323.09375 C 148.09375 325.222656 149.339844 327.035156 150.988281 328.316406 C 152.671875 329.625 154.78125 330.386719 157.03125 330.386719 C 159.285156 330.386719 161.398438 329.621094 163.082031 328.316406 C 164.761719 327.007812 166.023438 325.152344 166.578125 322.972656 C 167.042969 321.136719 168.695312 319.914062 170.503906 319.914062 L 202.9375 319.914062 C 204.921875 319.914062 206.578125 321.34375 206.921875 323.230469 C 207.480469 325.453125 208.75 327.351562 210.441406 328.683594 L 210.453125 328.683594 C 212.191406 330.058594 214.394531 330.871094 216.757812 330.871094 C 219.117188 330.871094 221.320312 330.0625 223.058594 328.683594 L 223.25 328.542969 C 224.894531 327.175781 226.117188 325.269531 226.640625 323.046875 C 227.074219 321.179688 228.742188 319.917969 230.582031 319.917969 L 257.164062 319.914062 C 259.144531 319.914062 260.792969 321.335938 261.148438 323.210938 C 262.011719 326.046875 263.902344 328.324219 266.304688 329.742188 C 268.789062 331.210938 271.824219 331.75 274.839844 331.027344 C 277.007812 330.515625 279.1875 331.851562 279.699219 334.023438 C 279.777344 334.332031 279.808594 334.644531 279.808594 334.957031 L 279.828125 334.957031 L 279.828125 346.507812 L 304.398438 346.507812 C 308.332031 346.507812 311.910156 348.117188 314.5 350.703125 C 317.085938 353.289062 318.695312 356.871094 318.695312 360.800781 L 318.695312 371.046875 C 318.695312 373.285156 316.882812 375.097656 314.644531 375.097656 L 59.929688 375.097656 C 57.691406 375.097656 55.875 373.285156 55.875 371.046875 L 55.875 360.800781 C 55.875 356.871094 57.480469 353.289062 60.070312 350.703125 C 62.660156 348.117188 66.238281 346.507812 70.167969 346.507812 L 94.738281 346.507812 Z M 271.726562 346.511719 L 271.726562 339.429688 C 268.316406 339.355469 265.042969 338.394531 262.199219 336.714844 C 258.839844 334.730469 256.066406 331.738281 254.367188 328.023438 L 233.488281 328.023438 C 232.320312 330.695312 230.542969 333.011719 228.34375 334.816406 L 228.101562 335.023438 C 224.953125 337.519531 220.992188 338.988281 216.765625 338.988281 C 212.535156 338.988281 208.578125 337.519531 205.429688 335.023438 C 203.125 333.179688 201.253906 330.792969 200.046875 328.03125 L 173.359375 328.03125 C 172.140625 330.6875 170.304688 332.96875 168.054688 334.71875 C 164.984375 337.105469 161.136719 338.503906 157.035156 338.503906 C 152.9375 338.503906 149.089844 337.105469 146.019531 334.71875 C 143.769531 332.96875 141.9375 330.6875 140.714844 328.03125 L 119.058594 328.03125 C 117.597656 331.605469 115.097656 334.558594 112 336.597656 C 109.304688 338.367188 106.160156 339.449219 102.847656 339.648438 L 102.847656 346.515625 L 271.726562 346.515625 Z M 63.984375 367 L 310.589844 367 L 310.589844 360.808594 C 310.589844 359.113281 309.894531 357.5625 308.769531 356.441406 C 307.648438 355.316406 306.101562 354.617188 304.402344 354.617188 L 70.171875 354.617188 C 68.476562 354.617188 66.925781 355.316406 65.804688 356.441406 C 64.683594 357.566406 63.984375 359.113281 63.984375 360.808594 Z M 188.78125 268.519531 C 191.167969 275.496094 193.984375 281.625 197.234375 286.902344 C 200.011719 291.417969 203.089844 295.285156 206.464844 298.496094 C 225.816406 291.476562 240.847656 280.546875 251.5625 265.707031 C 262.746094 250.21875 269.328125 230.359375 271.296875 206.144531 L 271.304688 206.054688 C 271.613281 195.246094 269.75 185.066406 265.710938 175.515625 C 262.542969 168.015625 258.011719 160.875 252.132812 154.089844 C 245.628906 185.640625 228.3125 201.722656 213 215.945312 C 197.523438 230.308594 184.273438 242.625 188.78125 268.519531 Z M 190.328125 291.144531 C 193.984375 297.085938 198.175781 302.097656 202.894531 306.167969 C 204.015625 307.140625 205.523438 307.382812 206.835938 306.945312 C 228.878906 299.414062 245.972656 287.238281 258.109375 270.425781 C 270.1875 253.699219 277.269531 232.484375 279.359375 206.78125 L 279.367188 206.289062 C 279.710938 194.316406 277.636719 183.011719 273.144531 172.382812 C 268.628906 161.703125 261.691406 151.75 252.335938 142.519531 C 250.746094 140.957031 248.183594 140.980469 246.621094 142.570312 C 245.984375 143.21875 245.609375 144.027344 245.496094 144.867188 C 240.871094 179.011719 223.070312 195.542969 207.472656 210.03125 C 190.210938 226.0625 175.421875 239.800781 180.839844 270.183594 C 180.890625 270.460938 180.96875 270.738281 181.074219 270.992188 C 183.679688 278.632812 186.765625 285.355469 190.328125 291.144531 Z M 142.84375 114.445312 C 106.078125 163.226562 74.796875 204.75 142.683594 274.042969 C 142.835938 245.269531 159.851562 228.882812 179.304688 210.167969 C 193.101562 196.894531 208.1875 182.371094 218.710938 161.222656 C 229.375 137.003906 232.347656 112.097656 227.628906 86.5 C 223.332031 63.195312 212.660156 39.238281 195.613281 14.648438 C 187.726562 54.894531 164.382812 85.867188 142.84375 114.445312 Z M 142.84375 114.445312 " fill-opacity="1" fill-rule="evenodd"/></g></svg>