<svg xmlns="http://www.w3.org/2000/svg" xmlns:xlink="http://www.w3.org/1999/xlink" width="500" zoomAndPan="magnify" viewBox="0 0 375 374.999991" height="500" preserveAspectRatio="xMidYMid meet" version="1.0"><defs><clipPath id="0c58706b8a"><path d="M 93 158 L 289 158 L 289 350.90625 L 93 350.90625 Z M 93 158 " clip-rule="nonzero"/></clipPath></defs><path fill="#f95f06" d="M 87.066406 283.203125 C 83.925781 283.203125 80.824219 281.914062 77.882812 279.335938 C 74.703125 276.558594 72.730469 273.335938 72.042969 269.832031 C 71.480469 266.8125 72.085938 263.671875 73.777344 261.214844 L 80.019531 252.15625 C 80.097656 252.035156 82.472656 249.535156 85.855469 247.84375 C 90.6875 245.429688 95.199219 245.871094 98.90625 249.132812 C 102.449219 252.234375 103.898438 256.90625 103.09375 262.664062 C 102.570312 266.207031 101.242188 269.632812 99.226562 272.570312 L 94.03125 280.140625 C 93.429688 281.027344 92.621094 281.714844 91.695312 282.15625 C 90.769531 282.640625 89.160156 283.203125 87.066406 283.203125 Z M 81.507812 253.523438 L 75.46875 262.34375 C 74.058594 264.355469 73.574219 266.933594 74.015625 269.429688 C 74.621094 272.492188 76.351562 275.308594 79.210938 277.808594 C 81.789062 280.0625 84.449219 281.191406 87.105469 281.191406 C 88.796875 281.191406 90.085938 280.746094 90.890625 280.34375 C 91.496094 280.0625 92.019531 279.578125 92.421875 278.976562 L 97.617188 271.402344 C 99.46875 268.707031 100.675781 265.566406 101.160156 262.34375 C 101.882812 257.308594 100.675781 253.242188 97.65625 250.582031 C 94.554688 247.886719 90.929688 247.5625 86.824219 249.578125 C 83.722656 251.148438 81.546875 253.484375 81.507812 253.523438 Z M 81.507812 253.523438 " fill-opacity="1" fill-rule="nonzero"/><path fill="#f95f06" d="M 107.039062 300.640625 C 103.898438 300.640625 100.957031 299.472656 98.300781 297.136719 C 91.535156 291.257812 92.140625 283.644531 93.105469 279.617188 C 93.507812 277.96875 94.191406 276.398438 95.199219 274.988281 L 105.628906 259.847656 C 105.871094 259.484375 106.152344 259.121094 106.433594 258.800781 C 108.890625 256.0625 121.535156 242.890625 130.515625 250.746094 C 134.222656 254.007812 135.347656 259.523438 133.777344 266.773438 C 132.609375 272.007812 130.394531 276.761719 129.46875 278.53125 C 129.269531 278.976562 129.027344 279.378906 128.746094 279.78125 L 118.113281 295.242188 C 117.429688 296.25 116.582031 297.097656 115.617188 297.78125 C 114.046875 298.828125 110.863281 300.640625 107.039062 300.640625 Z M 124.035156 250.34375 C 117.226562 250.34375 109.695312 258.234375 107.964844 260.167969 C 107.722656 260.410156 107.523438 260.691406 107.320312 261.015625 L 96.890625 276.15625 C 96.046875 277.363281 95.441406 278.691406 95.121094 280.101562 C 94.273438 283.644531 93.710938 290.410156 99.667969 295.605469 C 101.964844 297.578125 104.421875 298.585938 107.078125 298.585938 C 110.382812 298.585938 113.160156 297.015625 114.53125 296.089844 C 115.292969 295.566406 115.980469 294.882812 116.542969 294.078125 L 127.175781 278.613281 C 127.375 278.289062 127.578125 277.96875 127.777344 277.605469 C 128.664062 275.875 130.800781 271.324219 131.886719 266.328125 C 133.296875 259.847656 132.410156 255.015625 129.269531 252.273438 C 127.617188 250.90625 125.84375 250.34375 124.035156 250.34375 Z M 124.035156 250.34375 " fill-opacity="1" fill-rule="nonzero"/><path fill="#f95f06" d="M 129.1875 320.132812 C 125.84375 320.132812 122.625 318.800781 119.644531 316.226562 C 112.316406 309.863281 113.078125 302.292969 113.722656 299.351562 C 113.964844 298.222656 114.449219 297.175781 115.09375 296.210938 L 123.792969 283.605469 C 124.035156 283.242188 124.316406 282.882812 124.636719 282.558594 C 126.730469 280.34375 137.683594 269.792969 146.585938 277.566406 C 150.210938 280.746094 151.660156 285.699219 150.773438 291.941406 C 150.128906 296.574219 148.355469 300.679688 147.671875 302.210938 C 147.472656 302.652344 147.230469 303.097656 146.949219 303.5 L 138.328125 315.984375 C 137.605469 317.070312 136.636719 317.917969 135.550781 318.519531 C 134.183594 319.246094 131.96875 320.132812 129.1875 320.132812 Z M 139.296875 276.800781 C 133.296875 276.800781 127.457031 282.476562 126.046875 283.96875 C 125.804688 284.210938 125.605469 284.453125 125.402344 284.734375 L 116.703125 297.339844 C 116.179688 298.0625 115.859375 298.910156 115.65625 299.792969 C 115.09375 302.371094 114.449219 309.015625 120.933594 314.695312 C 123.550781 316.949219 126.289062 318.117188 129.148438 318.117188 C 131.605469 318.117188 133.578125 317.230469 134.503906 316.75 C 135.347656 316.304688 136.035156 315.660156 136.597656 314.855469 L 145.175781 302.414062 C 145.375 302.089844 145.578125 301.769531 145.738281 301.40625 C 146.425781 299.914062 148.074219 296.050781 148.679688 291.699219 C 149.445312 286.183594 148.234375 281.832031 145.136719 279.136719 C 143.324219 277.445312 141.308594 276.800781 139.296875 276.800781 Z M 139.296875 276.800781 " fill-opacity="1" fill-rule="nonzero"/><path fill="#f95f06" d="M 150.691406 338.375 C 147.390625 338.375 144.167969 337.046875 141.148438 334.386719 C 137.726562 331.40625 135.671875 327.902344 135.027344 323.957031 C 134.503906 320.695312 135.269531 317.230469 137.160156 314.492188 L 144.371094 304.0625 C 144.492188 303.941406 147.109375 301.042969 150.855469 299.03125 C 156.210938 296.171875 161.121094 296.492188 165.109375 299.957031 C 168.933594 303.296875 170.34375 308.453125 169.257812 314.855469 C 168.574219 318.800781 167.003906 322.628906 164.707031 325.96875 L 158.667969 334.710938 C 158.023438 335.675781 157.136719 336.441406 156.210938 336.925781 C 155.042969 337.609375 153.109375 338.375 150.691406 338.375 Z M 145.820312 305.472656 L 138.8125 315.660156 C 137.203125 317.996094 136.558594 320.894531 137 323.636719 C 137.5625 327.097656 139.375 330.199219 142.476562 332.855469 C 145.136719 335.152344 147.875 336.320312 150.691406 336.320312 C 152.746094 336.320312 154.316406 335.714844 155.324219 335.191406 C 155.96875 334.828125 156.570312 334.304688 157.054688 333.621094 L 163.097656 324.882812 C 165.230469 321.78125 166.679688 318.199219 167.324219 314.574219 C 168.289062 308.855469 167.082031 304.34375 163.820312 301.527344 C 160.519531 298.667969 156.410156 298.425781 151.859375 300.882812 C 148.355469 302.695312 145.941406 305.351562 145.820312 305.472656 Z M 145.820312 305.472656 " fill-opacity="1" fill-rule="nonzero"/><path fill="#f95f06" d="M 38.257812 264.960938 L 0 240.113281 L 55.855469 131.222656 C 56.097656 130.738281 56.699219 130.539062 57.222656 130.777344 C 57.707031 131.019531 57.910156 131.625 57.667969 132.148438 L 2.617188 239.429688 L 37.492188 262.0625 L 97.859375 144.429688 L 62.984375 121.796875 L 61.894531 123.933594 C 61.65625 124.417969 61.050781 124.617188 60.527344 124.375 C 60.003906 124.132812 59.84375 123.53125 60.082031 123.007812 L 62.21875 118.898438 L 100.476562 143.746094 Z M 38.257812 264.960938 " fill-opacity="1" fill-rule="nonzero"/><g clip-path="url(#0c58706b8a)"><path fill="#f95f06" d="M 210.65625 350.898438 C 205.902344 350.898438 201.230469 347.675781 200.589844 347.234375 L 189.957031 340.386719 L 166.921875 325.40625 C 166.4375 325.085938 166.316406 324.480469 166.640625 323.996094 C 166.960938 323.515625 167.566406 323.394531 168.050781 323.714844 L 191.085938 338.695312 L 201.796875 345.582031 C 202.28125 345.90625 206.546875 348.882812 210.695312 348.882812 C 211.542969 348.882812 212.871094 348.804688 214.199219 347.917969 C 214.523438 347.714844 214.964844 347.394531 215.648438 346.628906 C 218.546875 343.40625 219.796875 340.589844 219.273438 338.332031 C 219.070312 337.40625 218.46875 336.683594 218.066406 336.238281 C 217.945312 336.117188 217.863281 335.996094 217.785156 335.878906 C 217.179688 335.070312 216.574219 334.546875 216.011719 334.023438 C 215.808594 333.863281 215.648438 333.703125 215.488281 333.542969 C 208.882812 327.179688 186.855469 309.941406 186.652344 309.78125 L 186.613281 309.742188 C 185.769531 309.058594 185.203125 308.050781 185.082031 306.921875 C 184.921875 305.796875 185.164062 304.667969 185.769531 303.742188 L 185.808594 303.660156 C 186.414062 302.695312 187.339844 302.089844 188.425781 301.886719 C 189.511719 301.6875 190.5625 302.007812 191.445312 302.695312 L 196.921875 307.203125 C 205.660156 313.929688 220.28125 326.011719 220.402344 326.132812 C 220.804688 326.453125 231.515625 334.46875 237.355469 327.136719 L 237.394531 327.097656 C 239.851562 323.753906 240.578125 320.171875 239.53125 316.425781 C 238.886719 314.089844 237.515625 311.996094 235.703125 310.507812 L 197.488281 279.015625 L 190.035156 272.933594 C 189.917969 272.855469 189.835938 272.734375 189.714844 272.652344 C 189.632812 272.570312 189.554688 272.492188 189.433594 272.328125 L 188.75 271.765625 C 187.902344 271.082031 187.378906 270.074219 187.21875 268.949219 C 187.058594 267.820312 187.296875 266.691406 187.902344 265.765625 L 187.941406 265.683594 C 188.585938 264.71875 189.554688 264.074219 190.640625 263.914062 C 191.6875 263.753906 192.734375 264.035156 193.582031 264.757812 L 241.339844 304.144531 C 244.121094 306.4375 247.34375 307.6875 250.644531 307.808594 C 253.464844 307.890625 255.71875 307.164062 257.328125 305.59375 C 257.410156 305.511719 257.492188 305.472656 257.53125 305.390625 C 259.785156 303.136719 261.035156 299.835938 260.871094 296.371094 C 260.710938 292.867188 259.179688 289.644531 256.683594 287.59375 L 199.863281 240.757812 C 198.171875 239.347656 197.769531 236.691406 199.015625 234.757812 L 199.058594 234.675781 C 199.703125 233.710938 200.667969 233.066406 201.753906 232.90625 C 202.804688 232.742188 203.851562 233.027344 204.695312 233.75 L 205.179688 234.113281 C 205.300781 234.195312 205.460938 234.316406 205.621094 234.433594 L 231.152344 255.539062 L 264.375 282.921875 C 268.886719 286.101562 277.261719 290.652344 283.023438 285.136719 C 285.398438 282.882812 286.6875 280.140625 286.929688 276.960938 C 287.410156 270.113281 282.699219 263.632812 282.335938 263.1875 L 282.296875 263.148438 C 282.175781 263.027344 281.734375 262.503906 281.007812 261.738281 C 273.597656 253.886719 248.46875 227.386719 237.273438 217.238281 C 235.503906 215.667969 233.410156 213.695312 231.195312 211.601562 C 220.601562 201.695312 204.574219 186.753906 193.339844 181.601562 C 193.058594 181.640625 191.6875 181.921875 188.464844 184.742188 C 175.820312 195.65625 152.988281 214.621094 142.277344 218.890625 C 135.671875 221.546875 122.140625 222.554688 115.738281 221.507812 C 112.476562 220.984375 108.085938 218.890625 105.429688 217.160156 C 104.179688 216.355469 103.375 214.945312 103.253906 213.375 C 103.132812 211.804688 103.695312 210.273438 104.742188 209.226562 C 112.4375 201.816406 138.8125 176.96875 161.285156 161.144531 C 160.839844 161.023438 160.398438 160.941406 159.953125 160.859375 C 153.792969 159.652344 144.328125 162.953125 135.148438 166.175781 C 126.410156 169.238281 117.429688 172.378906 111.347656 171.53125 C 108.449219 171.128906 103.335938 169.035156 96.246094 165.25 L 95.039062 167.585938 C 94.796875 168.070312 94.191406 168.269531 93.667969 168.027344 C 93.1875 167.789062 92.984375 167.183594 93.226562 166.660156 L 94.597656 164.003906 C 94.878906 163.4375 95.441406 163.074219 96.046875 163.074219 C 96.285156 163.074219 96.570312 163.15625 96.8125 163.277344 C 103.898438 167.0625 108.890625 169.15625 111.589844 169.519531 C 117.1875 170.285156 125.925781 167.222656 134.421875 164.242188 C 143.886719 160.941406 153.632812 157.558594 160.316406 158.847656 C 161.445312 159.046875 162.652344 159.371094 163.859375 159.734375 L 165.835938 160.335938 L 164.101562 161.503906 C 141.429688 177.210938 113.964844 203.105469 106.074219 210.675781 C 105.429688 211.28125 105.105469 212.246094 105.1875 213.210938 C 105.265625 214.179688 105.75 215.023438 106.433594 215.46875 C 108.933594 217.078125 113 219.050781 115.980469 219.535156 C 122.140625 220.542969 135.148438 219.574219 141.46875 217.039062 C 151.941406 212.851562 174.574219 194.042969 187.097656 183.210938 C 191.246094 179.628906 193.136719 179.34375 193.984375 179.707031 C 205.542969 184.941406 221.769531 200.085938 232.523438 210.113281 C 234.738281 212.207031 236.832031 214.140625 238.601562 215.710938 C 249.839844 225.898438 275.007812 252.4375 282.457031 260.328125 C 283.222656 261.175781 283.667969 261.699219 283.785156 261.777344 L 283.90625 261.941406 C 284.472656 262.707031 289.425781 269.550781 288.902344 277.082031 C 288.621094 280.746094 287.128906 283.929688 284.390625 286.546875 C 277.546875 293.070312 268.160156 288.074219 263.167969 284.492188 L 263.128906 284.453125 L 229.90625 257.066406 L 204.332031 236.007812 C 204.253906 235.964844 204.171875 235.886719 204.132812 235.84375 L 203.808594 235.644531 L 203.445312 235.320312 C 203.042969 235 202.5625 234.839844 202.078125 234.917969 C 201.554688 235 201.113281 235.320312 200.789062 235.804688 L 200.75 235.886719 C 200.0625 236.933594 200.265625 238.460938 201.191406 239.226562 L 258.015625 286.0625 C 260.953125 288.480469 262.765625 292.222656 262.925781 296.332031 C 263.089844 300.359375 261.679688 304.183594 258.980469 306.882812 C 258.898438 306.960938 258.820312 307.042969 258.738281 307.125 C 256.683594 309.097656 253.945312 310.023438 250.5625 309.902344 C 246.820312 309.78125 243.152344 308.332031 240.054688 305.796875 L 192.25 266.371094 C 191.847656 266.046875 191.367188 265.886719 190.882812 265.96875 C 190.359375 266.046875 189.917969 266.371094 189.59375 266.851562 L 189.554688 266.933594 C 189.230469 267.457031 189.070312 268.101562 189.152344 268.746094 C 189.230469 269.390625 189.511719 269.914062 189.957031 270.277344 L 190.84375 271.042969 C 190.964844 271.164062 191.042969 271.242188 191.085938 271.324219 C 191.125 271.363281 191.203125 271.402344 191.246094 271.484375 L 198.734375 277.566406 L 236.953125 309.058594 C 239.085938 310.828125 240.65625 313.285156 241.421875 315.984375 C 242.671875 320.371094 241.824219 324.519531 238.964844 328.386719 L 238.925781 328.425781 C 233.289062 335.515625 223.824219 331.328125 219.113281 327.78125 C 218.953125 327.621094 204.332031 315.582031 195.632812 308.855469 L 190.117188 304.304688 C 189.714844 303.984375 189.230469 303.820312 188.75 303.902344 C 188.226562 303.984375 187.78125 304.304688 187.5 304.789062 L 187.460938 304.867188 C 187.136719 305.390625 186.976562 306.035156 187.058594 306.679688 C 187.136719 307.324219 187.417969 307.847656 187.863281 308.210938 C 188.789062 308.9375 210.171875 325.648438 216.855469 332.132812 C 217.019531 332.292969 217.179688 332.453125 217.339844 332.613281 C 217.945312 333.179688 218.628906 333.824219 219.355469 334.710938 C 219.394531 334.789062 219.476562 334.871094 219.59375 334.992188 C 220.039062 335.515625 220.882812 336.519531 221.207031 337.972656 C 221.851562 340.910156 220.480469 344.332031 217.097656 348.078125 C 216.253906 349.003906 215.609375 349.449219 215.207031 349.730469 C 213.472656 350.777344 211.78125 350.898438 210.65625 350.898438 Z M 193.179688 181.558594 Z M 193.179688 181.558594 " fill-opacity="1" fill-rule="nonzero"/></g><path fill="#f95f06" d="M 71.5625 262.140625 C 71.398438 262.140625 71.199219 262.101562 71.039062 261.980469 L 51.949219 250.582031 C 51.183594 250.058594 50.902344 249.054688 51.34375 248.25 L 88.957031 174.914062 C 89.199219 174.433594 89.804688 174.230469 90.328125 174.472656 C 90.808594 174.714844 91.011719 175.316406 90.769531 175.839844 L 53.238281 249.011719 L 72.085938 260.25 C 72.566406 260.53125 72.730469 261.136719 72.445312 261.617188 C 72.246094 261.941406 71.882812 262.140625 71.5625 262.140625 Z M 71.5625 262.140625 " fill-opacity="1" fill-rule="nonzero"/><path fill="#f95f06" d="M 284.070312 261.253906 L 283.667969 260.851562 C 280.363281 257.347656 250.925781 226.140625 238.765625 215.105469 C 237.03125 213.535156 235.019531 211.683594 232.722656 209.507812 C 221.929688 199.441406 205.660156 184.257812 194.0625 178.984375 C 193.824219 178.863281 193.582031 178.820312 193.339844 178.820312 C 192.371094 178.820312 190.519531 179.464844 186.9375 182.527344 C 165.3125 201.210938 149.121094 213.210938 141.390625 216.273438 C 135.066406 218.808594 122.140625 219.738281 115.980469 218.769531 C 113.160156 218.328125 109.09375 216.394531 106.515625 214.742188 C 105.953125 214.378906 105.589844 213.777344 105.550781 213.09375 C 105.507812 212.40625 105.75 211.761719 106.234375 211.28125 C 115.859375 202.019531 165.070312 155.546875 186.816406 150.390625 C 196.640625 148.054688 211.824219 153.089844 226.523438 157.960938 C 239.972656 162.429688 252.699219 166.660156 261.636719 165.652344 C 264.335938 165.371094 268.042969 164.003906 272.632812 161.707031 L 273.4375 161.304688 L 276.78125 166.296875 C 277.101562 166.742188 276.980469 167.386719 276.5 167.707031 C 276.054688 168.027344 275.410156 167.910156 275.089844 167.425781 L 272.753906 163.921875 C 268.324219 166.097656 264.660156 167.386719 261.878906 167.707031 C 252.496094 168.753906 239.609375 164.445312 225.917969 159.933594 C 211.5 155.140625 196.5625 150.1875 187.296875 152.402344 C 166.074219 157.4375 117.226562 203.589844 107.644531 212.769531 C 107.601562 212.808594 107.5625 212.890625 107.601562 212.972656 C 107.601562 213.050781 107.644531 213.09375 107.683594 213.132812 C 110.019531 214.621094 113.84375 216.476562 116.382812 216.878906 C 122.300781 217.84375 134.664062 216.917969 140.707031 214.5 C 148.234375 211.480469 164.183594 199.640625 185.6875 181.078125 C 188.988281 178.21875 191.445312 176.890625 193.378906 176.890625 C 193.941406 176.890625 194.46875 177.007812 194.949219 177.210938 C 206.828125 182.605469 223.261719 197.910156 234.132812 208.058594 C 236.46875 210.234375 238.441406 212.085938 240.175781 213.65625 C 252.011719 224.367188 280.042969 254.007812 284.835938 259.082031 C 288.699219 258.234375 302.191406 254.894531 308.109375 249.417969 C 310.96875 246.796875 315.480469 242.53125 321.5625 236.8125 L 280.605469 175.679688 C 280.285156 175.238281 280.40625 174.59375 280.886719 174.269531 C 281.332031 173.949219 281.976562 174.070312 282.296875 174.554688 L 324.136719 237.09375 L 323.535156 237.699219 C 317.132812 243.738281 312.378906 248.167969 309.4375 250.90625 C 302.835938 257.027344 287.652344 260.53125 284.671875 261.175781 Z M 284.070312 261.253906 " fill-opacity="1" fill-rule="nonzero"/><path fill="#f95f06" d="M 339.722656 251.148438 L 264.859375 139.277344 L 300.136719 109.394531 L 303.84375 114.914062 C 304.164062 115.355469 304.042969 116 303.558594 116.320312 C 303.117188 116.644531 302.472656 116.523438 302.152344 116.039062 L 299.695312 112.375 L 267.558594 139.636719 L 340.125 248.128906 L 372.300781 220.863281 L 307.667969 124.296875 C 307.34375 123.851562 307.464844 123.207031 307.949219 122.886719 C 308.390625 122.5625 309.035156 122.683594 309.359375 123.167969 L 375 221.265625 Z M 339.722656 251.148438 " fill-opacity="1" fill-rule="nonzero"/><path fill="#f95f06" d="M 217.90625 143.90625 L 132.492188 143.90625 C 131.683594 143.90625 131.039062 143.222656 131.039062 142.335938 L 131.039062 138.632812 C 131.039062 137.785156 131.683594 137.0625 132.492188 137.0625 L 138.128906 137.0625 C 138.691406 137.0625 139.136719 137.503906 139.136719 138.066406 C 139.136719 138.632812 138.691406 139.074219 138.128906 139.074219 L 133.015625 139.074219 L 133.015625 141.894531 L 217.339844 141.894531 L 217.339844 139.074219 L 212.265625 139.074219 C 211.703125 139.074219 211.257812 138.632812 211.257812 138.066406 C 211.257812 137.503906 211.703125 137.0625 212.265625 137.0625 L 217.863281 137.0625 C 218.667969 137.0625 219.3125 137.746094 219.3125 138.632812 L 219.3125 142.335938 C 219.355469 143.222656 218.710938 143.90625 217.90625 143.90625 Z M 217.90625 143.90625 " fill-opacity="1" fill-rule="nonzero"/><path fill="#f95f06" d="M 203.851562 72.910156 C 203.285156 72.910156 202.84375 72.46875 202.84375 71.902344 L 202.84375 55.191406 L 191.203125 55.191406 L 191.203125 59.941406 C 191.203125 60.507812 190.761719 60.949219 190.199219 60.949219 C 189.632812 60.949219 189.191406 60.507812 189.191406 59.941406 L 189.191406 54.746094 C 189.191406 53.902344 189.835938 53.175781 190.640625 53.175781 L 203.367188 53.175781 C 204.171875 53.175781 204.816406 53.863281 204.816406 54.746094 L 204.816406 71.902344 C 204.855469 72.46875 204.375 72.910156 203.851562 72.910156 Z M 203.851562 72.910156 " fill-opacity="1" fill-rule="nonzero"/><path fill="#f95f06" d="M 135.308594 89.703125 C 135.269531 89.703125 135.230469 89.703125 135.1875 89.703125 C 134.785156 89.664062 134.464844 89.460938 134.183594 89.179688 L 131.5625 85.957031 C 131.039062 85.3125 131.121094 84.304688 131.726562 83.742188 L 174.976562 45.285156 L 218.75 83.742188 C 219.394531 84.304688 219.476562 85.3125 218.910156 85.957031 L 216.292969 89.179688 C 216.050781 89.5 215.6875 89.664062 215.285156 89.703125 C 214.882812 89.742188 214.523438 89.621094 214.238281 89.339844 L 175.175781 55.511719 L 136.113281 89.339844 C 135.992188 89.582031 135.671875 89.703125 135.308594 89.703125 Z M 175.296875 52.855469 L 215.207031 87.449219 L 217.179688 84.992188 L 175.015625 47.984375 L 133.375 84.992188 L 135.390625 87.449219 Z M 175.296875 52.855469 " fill-opacity="1" fill-rule="nonzero"/><path fill="#f95f06" d="M 209.40625 139.074219 L 140.945312 139.074219 C 140.140625 139.074219 139.496094 138.390625 139.496094 137.503906 L 139.496094 89.140625 C 139.496094 88.574219 139.941406 88.132812 140.503906 88.132812 C 141.066406 88.132812 141.511719 88.574219 141.511719 89.140625 L 141.511719 137.0625 L 208.882812 137.0625 L 208.882812 89.140625 C 208.882812 88.574219 209.328125 88.132812 209.890625 88.132812 C 210.453125 88.132812 210.898438 88.574219 210.898438 89.140625 L 210.898438 137.542969 C 210.898438 138.390625 210.210938 139.074219 209.40625 139.074219 Z M 209.40625 139.074219 " fill-opacity="1" fill-rule="nonzero"/><path fill="#f95f06" d="M 184.800781 97.03125 C 184.761719 97.03125 184.761719 97.03125 184.722656 97.03125 C 184.15625 96.992188 183.753906 96.507812 183.796875 95.945312 C 184.15625 90.265625 187.820312 85.957031 192.292969 85.957031 C 196.761719 85.957031 200.386719 90.265625 200.789062 95.945312 C 200.828125 96.507812 200.386719 96.992188 199.863281 97.03125 C 199.300781 97.074219 198.816406 96.628906 198.777344 96.105469 C 198.492188 91.554688 195.632812 88.011719 192.292969 88.011719 C 188.949219 88.011719 186.128906 91.554688 185.808594 96.105469 C 185.769531 96.628906 185.324219 97.03125 184.800781 97.03125 Z M 184.800781 97.03125 " fill-opacity="1" fill-rule="nonzero"/><path fill="#f95f06" d="M 200.023438 120.347656 L 184.320312 120.347656 C 183.753906 120.347656 183.3125 119.90625 183.3125 119.34375 C 183.3125 118.777344 183.753906 118.335938 184.320312 118.335938 L 200.023438 118.335938 C 200.589844 118.335938 201.03125 118.777344 201.03125 119.34375 C 201.03125 119.90625 200.589844 120.347656 200.023438 120.347656 Z M 200.023438 120.347656 " fill-opacity="1" fill-rule="nonzero"/><path fill="#f95f06" d="M 174.9375 131.664062 L 150.773438 131.664062 L 150.773438 93.449219 C 150.773438 92.882812 151.214844 92.441406 151.78125 92.441406 C 152.34375 92.441406 152.785156 92.882812 152.785156 93.449219 L 152.785156 129.652344 L 172.921875 129.652344 L 172.921875 91.796875 L 151.78125 91.796875 C 151.214844 91.796875 150.773438 91.355469 150.773438 90.789062 C 150.773438 90.226562 151.214844 89.785156 151.78125 89.785156 L 174.9375 89.785156 Z M 174.9375 131.664062 " fill-opacity="1" fill-rule="nonzero"/><path fill="#f95f06" d="M 205.097656 54.023438 C 204.535156 54.023438 204.089844 53.578125 204.089844 53.015625 L 204.089844 47.175781 L 189.957031 47.175781 L 189.957031 53.015625 C 189.957031 53.578125 189.511719 54.023438 188.949219 54.023438 C 188.386719 54.023438 187.941406 53.578125 187.941406 53.015625 L 187.941406 46.734375 C 187.941406 45.886719 188.585938 45.164062 189.394531 45.164062 L 204.613281 45.164062 C 205.421875 45.164062 206.066406 45.847656 206.066406 46.734375 L 206.066406 53.015625 C 206.105469 53.578125 205.621094 54.023438 205.097656 54.023438 Z M 205.097656 54.023438 " fill-opacity="1" fill-rule="nonzero"/><path fill="#f95f06" d="M 192.292969 118.011719 C 191.726562 118.011719 191.285156 117.570312 191.285156 117.007812 L 191.285156 99.125 C 191.285156 98.5625 191.726562 98.121094 192.292969 98.121094 C 192.855469 98.121094 193.300781 98.5625 193.300781 99.125 L 193.300781 117.007812 C 193.300781 117.570312 192.855469 118.011719 192.292969 118.011719 Z M 192.292969 118.011719 " fill-opacity="1" fill-rule="nonzero"/><path fill="#f95f06" d="M 239.289062 147.570312 C 239.085938 147.570312 238.886719 147.53125 238.722656 147.410156 C 238.242188 147.089844 238.121094 146.484375 238.441406 146 C 246.820312 133.355469 251.207031 118.617188 251.207031 103.433594 C 251.207031 60.789062 216.535156 26.117188 173.886719 26.117188 C 131.242188 26.117188 96.570312 60.789062 96.570312 103.433594 C 96.570312 118.617188 101 133.355469 109.335938 146 C 109.65625 146.484375 109.496094 147.089844 109.054688 147.410156 C 108.570312 147.734375 107.964844 147.570312 107.644531 147.128906 C 99.066406 134.160156 94.515625 119.058594 94.515625 103.433594 C 94.515625 59.703125 130.113281 24.101562 173.847656 24.101562 C 217.582031 24.101562 253.179688 59.703125 253.179688 103.433594 C 253.179688 119.019531 248.628906 134.121094 240.054688 147.128906 C 239.933594 147.410156 239.609375 147.570312 239.289062 147.570312 Z M 239.289062 147.570312 " fill-opacity="1" fill-rule="nonzero"/></svg>