<svg xmlns="http://www.w3.org/2000/svg" xmlns:xlink="http://www.w3.org/1999/xlink" width="500" zoomAndPan="magnify" viewBox="0 0 375 374.999991" height="500" preserveAspectRatio="xMidYMid meet" version="1.0"><defs><clipPath id="3723daa1be"><path d="M 176 1.40625 L 301 1.40625 L 301 63 L 176 63 Z M 176 1.40625 " clip-rule="nonzero"/></clipPath></defs><path fill="#11114e" d="M 49.878906 215.542969 C 41.152344 182.914062 60.535156 149.371094 93.148438 140.632812 C 125.757812 131.886719 159.300781 151.25 168.0625 183.878906 C 176.785156 216.515625 157.441406 250.054688 124.792969 258.796875 C 92.179688 267.542969 58.640625 248.175781 49.878906 215.542969 Z M 11.582031 368.4375 C 20.164062 373.402344 31.25 370.429688 36.21875 361.839844 L 70.941406 301.691406 C 73.230469 297.714844 72.011719 292.65625 68.257812 290.125 L 69.726562 287.59375 C 73.085938 281.796875 79.738281 279.097656 86.171875 280.914062 C 100.296875 284.890625 115.601562 285.238281 130.800781 281.171875 C 175.785156 269.117188 202.496094 222.878906 190.445312 177.890625 C 178.394531 132.902344 132.121094 106.207031 87.136719 118.257812 C 42.15625 130.3125 15.480469 176.550781 27.527344 221.539062 C 31.605469 236.734375 39.578125 249.835938 50.054688 260.066406 C 54.847656 264.738281 55.847656 271.835938 52.488281 277.644531 L 51.023438 280.175781 C 46.980469 278.199219 41.976562 279.683594 39.6875 283.648438 L 4.964844 343.796875 C -0.00390625 352.394531 2.960938 363.484375 11.582031 368.4375 Z M 11.582031 368.4375 " fill-opacity="1" fill-rule="evenodd"/><path fill="#f95f06" d="M 73.730469 205.054688 L 100.976562 205.054688 C 103.300781 205.054688 105.410156 203.542969 106.089844 201.222656 L 109.59375 189.335938 L 121.179688 231.496094 C 121.574219 233.144531 122.71875 234.589844 124.433594 235.242188 C 127.1875 236.300781 130.226562 234.9375 131.300781 232.210938 L 141.777344 205.054688 L 159.191406 205.054688 C 159.585938 201.558594 159.621094 197.992188 159.226562 194.414062 L 138.164062 194.414062 C 135.734375 194.414062 133.695312 196.027344 133.050781 198.230469 L 127.1875 213.398438 L 114.851562 168.570312 C 114.101562 165.753906 111.167969 164.085938 108.34375 164.855469 C 106.589844 165.34375 105.160156 166.703125 104.660156 168.476562 L 97.007812 194.414062 L 73.726562 194.414062 C 70.796875 194.414062 68.402344 196.792969 68.402344 199.734375 C 68.402344 202.679688 70.796875 205.054688 73.726562 205.054688 Z M 73.730469 205.054688 " fill-opacity="1" fill-rule="evenodd"/><path fill="#11114e" d="M 178.503906 310.355469 L 297.863281 310.355469 C 300.832031 310.355469 303.191406 307.980469 303.191406 305.035156 C 303.191406 302.09375 300.832031 299.714844 297.863281 299.714844 L 178.503906 299.714844 C 175.570312 299.714844 173.175781 302.105469 173.175781 305.035156 C 173.175781 307.96875 175.570312 310.355469 178.503906 310.355469 Z M 178.503906 125.335938 L 297.863281 125.335938 C 300.832031 125.335938 303.191406 122.949219 303.191406 120.015625 C 303.191406 117.082031 300.832031 114.695312 297.863281 114.695312 L 178.503906 114.695312 C 175.570312 114.695312 173.175781 117.074219 173.175781 120.015625 C 173.175781 122.957031 175.570312 125.335938 178.503906 125.335938 Z M 173.175781 94.125 C 173.175781 97.070312 175.570312 99.445312 178.503906 99.445312 L 298.6875 99.445312 C 301.617188 99.445312 303.976562 97.070312 303.976562 94.125 C 303.976562 91.183594 301.617188 88.804688 298.6875 88.804688 L 178.503906 88.804688 C 175.570312 88.804688 173.175781 91.195312 173.175781 94.125 Z M 173.175781 279.15625 C 173.175781 282.097656 175.570312 284.480469 178.503906 284.480469 L 298.6875 284.480469 C 301.617188 284.480469 303.976562 282.097656 303.976562 279.15625 C 303.976562 276.21875 301.617188 273.835938 298.6875 273.835938 L 178.503906 273.835938 C 175.570312 273.835938 173.175781 276.21875 173.175781 279.15625 Z M 173.175781 279.15625 " fill-opacity="1" fill-rule="evenodd"/><path fill="#f95f06" d="M 203.78125 205.054688 L 214.546875 205.054688 L 221.839844 231.132812 C 222.304688 232.992188 223.738281 234.546875 225.738281 235.035156 C 228.5625 235.75 231.460938 234.019531 232.175781 231.179688 L 247.015625 172.015625 L 264.714844 251.066406 C 265.109375 253.035156 266.539062 254.71875 268.613281 255.246094 C 271.472656 255.984375 274.335938 254.28125 275.085938 251.449219 L 291.640625 187.558594 L 296.324219 201.066406 C 296.933594 203.363281 299.007812 205.058594 301.472656 205.058594 L 329.6875 205.058594 C 332.621094 205.058594 335.015625 202.667969 335.015625 199.734375 C 335.015625 196.804688 332.621094 194.414062 329.6875 194.414062 L 305.265625 194.414062 L 295.894531 167.539062 C 294.929688 164.769531 291.890625 163.316406 289.136719 164.28125 C 287.351562 164.890625 286.132812 166.371094 285.707031 168.078125 L 270.328125 227.527344 L 252.484375 147.914062 C 251.84375 145.058594 249.015625 143.25 246.15625 143.882812 C 244.1875 144.3125 242.652344 145.820312 242.152344 147.773438 L 226.738281 209.191406 L 223.664062 198.296875 C 223.054688 196.011719 220.945312 194.40625 218.585938 194.414062 L 203.78125 194.414062 C 203.996094 197.964844 203.996094 201.511719 203.78125 205.058594 Z M 203.78125 205.054688 " fill-opacity="1" fill-rule="evenodd"/><path fill="#11114e" d="M 122.898438 105.769531 L 122.898438 57.59375 L 165.664062 57.59375 L 165.664062 36.851562 L 122.789062 36.851562 C 111.421875 36.851562 102.160156 46.109375 102.160156 57.464844 L 102.160156 104.996094 C 109.097656 104.488281 116.066406 104.753906 122.898438 105.769531 Z M 122.898438 105.769531 " fill-opacity="1" fill-rule="evenodd"/><g clip-path="url(#3723daa1be)"><path fill="#11114e" d="M 238.574219 1.648438 C 225.203125 1.648438 214.367188 12.496094 214.367188 25.878906 L 214.367188 29.195312 L 190.335938 25.003906 C 186.726562 24.371094 183.363281 25.277344 180.574219 27.632812 C 177.75 29.992188 176.285156 33.144531 176.285156 36.804688 L 176.285156 62.882812 L 300.867188 62.882812 L 300.867188 36.804688 C 300.867188 33.144531 299.398438 29.992188 296.609375 27.632812 C 293.785156 25.277344 290.425781 24.371094 286.8125 25.003906 L 262.820312 29.195312 L 262.820312 25.878906 C 262.820312 12.496094 251.949219 1.648438 238.574219 1.648438 Z M 238.574219 1.648438 " fill-opacity="1" fill-rule="evenodd"/></g><path fill="#11114e" d="M 354.398438 362.300781 C 365.660156 362.300781 374.90625 353.15625 375.027344 341.898438 L 375.027344 57.242188 C 374.90625 45.988281 365.695312 36.851562 354.398438 36.851562 L 311.523438 36.851562 L 311.523438 57.59375 L 354.253906 57.59375 L 354.253906 341.554688 L 122.898438 341.554688 L 122.898438 293.652344 C 116.03125 294.675781 109.058594 294.953125 102.160156 294.449219 L 102.160156 341.675781 C 102.160156 353.035156 111.421875 362.300781 122.789062 362.300781 Z M 354.398438 362.300781 " fill-opacity="1" fill-rule="evenodd"/></svg>