<svg xmlns="http://www.w3.org/2000/svg" xmlns:xlink="http://www.w3.org/1999/xlink" width="1024" zoomAndPan="magnify" viewBox="0 0 768 767.999994" height="1024" preserveAspectRatio="xMidYMid meet" version="1.0"><path fill="#11114e" d="M 768 384 C 768 390.285156 767.847656 396.566406 767.539062 402.84375 C 767.230469 409.117188 766.765625 415.382812 766.152344 421.636719 C 765.535156 427.894531 764.765625 434.128906 763.84375 440.34375 C 762.921875 446.5625 761.847656 452.75 760.621094 458.914062 C 759.394531 465.078125 758.019531 471.207031 756.492188 477.304688 C 754.964844 483.402344 753.289062 489.457031 751.464844 495.46875 C 749.640625 501.484375 747.671875 507.449219 745.554688 513.367188 C 743.4375 519.28125 741.175781 525.144531 738.769531 530.949219 C 736.363281 536.757812 733.820312 542.5 731.132812 548.179688 C 728.445312 553.863281 725.621094 559.472656 722.65625 565.015625 C 719.695312 570.558594 716.597656 576.023438 713.367188 581.414062 C 710.136719 586.804688 706.777344 592.113281 703.285156 597.339844 C 699.792969 602.5625 696.175781 607.699219 692.429688 612.75 C 688.6875 617.796875 684.824219 622.75 680.835938 627.605469 C 676.847656 632.464844 672.746094 637.222656 668.523438 641.878906 C 664.304688 646.535156 659.972656 651.085938 655.527344 655.527344 C 651.085938 659.972656 646.535156 664.304688 641.878906 668.523438 C 637.222656 672.746094 632.464844 676.847656 627.605469 680.835938 C 622.75 684.824219 617.796875 688.6875 612.75 692.429688 C 607.699219 696.175781 602.5625 699.792969 597.339844 703.285156 C 592.113281 706.777344 586.804688 710.136719 581.414062 713.367188 C 576.023438 716.597656 570.558594 719.695312 565.015625 722.65625 C 559.472656 725.621094 553.863281 728.445312 548.179688 731.132812 C 542.5 733.820312 536.757812 736.363281 530.949219 738.769531 C 525.144531 741.175781 519.28125 743.4375 513.367188 745.554688 C 507.449219 747.671875 501.484375 749.640625 495.46875 751.464844 C 489.457031 753.289062 483.402344 754.964844 477.304688 756.492188 C 471.207031 758.019531 465.078125 759.394531 458.914062 760.621094 C 452.75 761.847656 446.5625 762.921875 440.34375 763.84375 C 434.128906 764.765625 427.894531 765.535156 421.636719 766.152344 C 415.382812 766.765625 409.117188 767.230469 402.84375 767.539062 C 396.566406 767.847656 390.285156 768 384 768 C 377.714844 768 371.433594 767.847656 365.15625 767.539062 C 358.882812 767.230469 352.617188 766.765625 346.363281 766.152344 C 340.105469 765.535156 333.871094 764.765625 327.65625 763.84375 C 321.4375 762.921875 315.25 761.847656 309.085938 760.621094 C 302.921875 759.394531 296.792969 758.019531 290.695312 756.492188 C 284.597656 754.964844 278.542969 753.289062 272.53125 751.464844 C 266.515625 749.640625 260.550781 747.671875 254.632812 745.554688 C 248.71875 743.4375 242.855469 741.175781 237.050781 738.769531 C 231.242188 736.363281 225.5 733.820312 219.820312 731.132812 C 214.136719 728.445312 208.527344 725.621094 202.984375 722.65625 C 197.441406 719.695312 191.976562 716.597656 186.585938 713.367188 C 181.195312 710.136719 175.886719 706.777344 170.660156 703.285156 C 165.4375 699.792969 160.300781 696.175781 155.25 692.429688 C 150.203125 688.6875 145.25 684.824219 140.394531 680.835938 C 135.535156 676.847656 130.777344 672.746094 126.121094 668.523438 C 121.464844 664.304688 116.914062 659.972656 112.472656 655.527344 C 108.027344 651.085938 103.695312 646.535156 99.476562 641.878906 C 95.253906 637.222656 91.152344 632.464844 87.164062 627.605469 C 83.175781 622.75 79.3125 617.796875 75.566406 612.75 C 71.824219 607.699219 68.207031 602.5625 64.714844 597.339844 C 61.222656 592.113281 57.863281 586.804688 54.632812 581.414062 C 51.402344 576.023438 48.304688 570.558594 45.34375 565.015625 C 42.378906 559.472656 39.554688 553.863281 36.867188 548.179688 C 34.179688 542.5 31.636719 536.757812 29.230469 530.949219 C 26.824219 525.144531 24.5625 519.28125 22.445312 513.367188 C 20.328125 507.449219 18.359375 501.484375 16.535156 495.46875 C 14.710938 489.457031 13.035156 483.402344 11.507812 477.304688 C 9.980469 471.207031 8.605469 465.078125 7.378906 458.914062 C 6.152344 452.75 5.078125 446.5625 4.15625 440.34375 C 3.234375 434.128906 2.464844 427.894531 1.847656 421.636719 C 1.234375 415.382812 0.769531 409.117188 0.460938 402.84375 C 0.152344 396.566406 0 390.285156 0 384 C 0 377.714844 0.152344 371.433594 0.460938 365.15625 C 0.769531 358.882812 1.234375 352.617188 1.847656 346.363281 C 2.464844 340.105469 3.234375 333.871094 4.15625 327.65625 C 5.078125 321.4375 6.152344 315.25 7.378906 309.085938 C 8.605469 302.921875 9.980469 296.792969 11.507812 290.695312 C 13.035156 284.597656 14.710938 278.542969 16.535156 272.53125 C 18.359375 266.515625 20.328125 260.550781 22.445312 254.632812 C 24.5625 248.71875 26.824219 242.855469 29.230469 237.050781 C 31.636719 231.242188 34.179688 225.5 36.867188 219.820312 C 39.554688 214.136719 42.378906 208.527344 45.34375 202.984375 C 48.304688 197.441406 51.402344 191.976562 54.632812 186.585938 C 57.863281 181.195312 61.222656 175.886719 64.714844 170.660156 C 68.207031 165.4375 71.824219 160.300781 75.566406 155.25 C 79.3125 150.203125 83.175781 145.25 87.164062 140.394531 C 91.152344 135.535156 95.253906 130.777344 99.476562 126.121094 C 103.695312 121.464844 108.027344 116.914062 112.472656 112.472656 C 116.914062 108.027344 121.464844 103.695312 126.121094 99.476562 C 130.777344 95.253906 135.535156 91.152344 140.394531 87.164062 C 145.25 83.175781 150.203125 79.3125 155.25 75.566406 C 160.300781 71.824219 165.4375 68.207031 170.660156 64.714844 C 175.886719 61.222656 181.195312 57.863281 186.585938 54.632812 C 191.976562 51.402344 197.441406 48.304688 202.984375 45.34375 C 208.527344 42.378906 214.136719 39.554688 219.820312 36.867188 C 225.5 34.179688 231.242188 31.636719 237.050781 29.230469 C 242.855469 26.824219 248.71875 24.5625 254.632812 22.445312 C 260.550781 20.328125 266.515625 18.359375 272.53125 16.535156 C 278.542969 14.710938 284.597656 13.035156 290.695312 11.507812 C 296.792969 9.980469 302.921875 8.605469 309.085938 7.378906 C 315.25 6.152344 321.4375 5.078125 327.65625 4.15625 C 333.871094 3.234375 340.105469 2.464844 346.363281 1.847656 C 352.617188 1.234375 358.882812 0.769531 365.15625 0.460938 C 371.433594 0.152344 377.714844 0 384 0 C 390.285156 0 396.566406 0.152344 402.84375 0.460938 C 409.117188 0.769531 415.382812 1.234375 421.636719 1.847656 C 427.894531 2.464844 434.128906 3.234375 440.34375 4.15625 C 446.5625 5.078125 452.75 6.152344 458.914062 7.378906 C 465.078125 8.605469 471.207031 9.980469 477.304688 11.507812 C 483.402344 13.035156 489.457031 14.710938 495.46875 16.535156 C 501.484375 18.359375 507.449219 20.328125 513.367188 22.445312 C 519.28125 24.5625 525.144531 26.824219 530.949219 29.230469 C 536.757812 31.636719 542.5 34.179688 548.179688 36.867188 C 553.863281 39.554688 559.472656 42.378906 565.015625 45.34375 C 570.558594 48.304688 576.023438 51.402344 581.414062 54.632812 C 586.804688 57.863281 592.113281 61.222656 597.339844 64.714844 C 602.5625 68.207031 607.699219 71.824219 612.75 75.566406 C 617.796875 79.3125 622.75 83.175781 627.605469 87.164062 C 632.464844 91.152344 637.222656 95.253906 641.878906 99.476562 C 646.535156 103.695312 651.085938 108.027344 655.527344 112.472656 C 659.972656 116.914062 664.304688 121.464844 668.523438 126.121094 C 672.746094 130.777344 676.847656 135.535156 680.835938 140.394531 C 684.824219 145.25 688.6875 150.203125 692.429688 155.25 C 696.175781 160.300781 699.792969 165.4375 703.285156 170.660156 C 706.777344 175.886719 710.136719 181.195312 713.367188 186.585938 C 716.597656 191.976562 719.695312 197.441406 722.65625 202.984375 C 725.621094 208.527344 728.445312 214.136719 731.132812 219.820312 C 733.820312 225.5 736.363281 231.242188 738.769531 237.050781 C 741.175781 242.855469 743.4375 248.71875 745.554688 254.632812 C 747.671875 260.550781 749.640625 266.515625 751.464844 272.53125 C 753.289062 278.542969 754.964844 284.597656 756.492188 290.695312 C 758.019531 296.792969 759.394531 302.921875 760.621094 309.085938 C 761.847656 315.25 762.921875 321.4375 763.84375 327.65625 C 764.765625 333.871094 765.535156 340.105469 766.152344 346.363281 C 766.765625 352.617188 767.230469 358.882812 767.539062 365.15625 C 767.847656 371.433594 768 377.714844 768 384 Z M 768 384 " fill-opacity="1" fill-rule="nonzero"/><path fill="#ffffff" d="M 347.125 588.820312 C 231.898438 588.820312 138.273438 494.90625 138.273438 379.96875 C 138.273438 264.738281 231.898438 171.113281 347.125 171.113281 C 413.671875 171.113281 474.742188 201.652344 514.496094 254.945312 C 515.9375 256.960938 515.648438 260.128906 513.632812 261.570312 C 511.328125 263.296875 508.445312 262.722656 506.71875 260.707031 C 468.691406 209.714844 410.503906 180.621094 347.125 180.621094 C 237.371094 180.621094 147.78125 269.921875 147.78125 379.96875 C 147.78125 489.722656 237.371094 579.023438 347.125 579.023438 C 375.933594 579.023438 403.878906 572.976562 429.804688 561.164062 C 432.394531 560.011719 435.277344 561.164062 436.140625 563.46875 C 437.292969 566.0625 436.429688 568.941406 433.835938 569.804688 C 406.46875 582.480469 377.375 588.820312 347.125 588.820312 Z M 347.125 588.820312 " fill-opacity="1" fill-rule="evenodd"/><path fill="#ffffff" d="M 494.621094 243.421875 L 199.632812 243.421875 C 197.042969 243.421875 195.023438 241.40625 195.023438 238.8125 C 195.023438 235.929688 197.042969 233.914062 199.632812 233.914062 L 494.621094 233.914062 C 497.210938 233.914062 499.230469 235.929688 499.230469 238.8125 C 499.230469 241.40625 497.210938 243.421875 494.621094 243.421875 Z M 494.621094 243.421875 " fill-opacity="1" fill-rule="evenodd"/><path fill="#ffffff" d="M 364.121094 337.621094 L 148.644531 337.621094 C 145.765625 337.621094 143.746094 335.605469 143.746094 332.722656 C 143.746094 330.128906 145.765625 328.113281 148.644531 328.113281 L 364.121094 328.113281 C 366.714844 328.113281 368.730469 330.128906 368.730469 332.722656 C 368.730469 335.605469 366.714844 337.621094 364.121094 337.621094 Z M 364.121094 337.621094 " fill-opacity="1" fill-rule="evenodd"/><path fill="#ffffff" d="M 343.667969 431.820312 L 148.644531 431.820312 C 145.765625 431.820312 143.746094 429.515625 143.746094 426.921875 C 143.746094 424.332031 145.765625 422.027344 148.644531 422.027344 L 343.667969 422.027344 C 346.261719 422.027344 348.277344 424.332031 348.277344 426.921875 C 348.277344 429.515625 346.261719 431.820312 343.667969 431.820312 Z M 343.667969 431.820312 " fill-opacity="1" fill-rule="evenodd"/><path fill="#ffffff" d="M 387.457031 525.730469 L 199.632812 525.730469 C 197.042969 525.730469 195.023438 523.714844 195.023438 521.121094 C 195.023438 518.242188 197.042969 516.226562 199.632812 516.226562 L 387.457031 516.226562 C 390.050781 516.226562 392.066406 518.242188 392.066406 521.121094 C 392.066406 523.714844 390.050781 525.730469 387.457031 525.730469 Z M 387.457031 525.730469 " fill-opacity="1" fill-rule="evenodd"/><path fill="#ffffff" d="M 347.125 588.820312 C 304.78125 588.820312 271.363281 496.925781 271.363281 379.96875 C 271.363281 262.722656 304.78125 171.113281 347.125 171.113281 C 376.222656 171.113281 401.574219 213.171875 414.535156 283.460938 C 415.113281 286.054688 413.382812 288.648438 410.789062 289.222656 C 407.910156 289.511719 405.605469 287.785156 405.027344 285.191406 C 393.507812 221.816406 370.75 180.621094 347.125 180.621094 C 315.152344 180.621094 280.871094 260.707031 280.871094 379.96875 C 280.871094 498.941406 315.152344 579.023438 347.125 579.023438 C 362.683594 579.023438 378.816406 560.300781 390.914062 527.460938 C 391.777344 524.867188 394.660156 523.714844 397.25 524.578125 C 399.554688 525.445312 400.996094 528.324219 399.84375 530.917969 C 386.015625 568.078125 367.292969 588.820312 347.125 588.820312 Z M 347.125 588.820312 " fill-opacity="1" fill-rule="evenodd"/><path fill="#ffffff" d="M 497.789062 597.171875 C 496.636719 597.171875 495.195312 596.597656 494.332031 595.734375 L 404.164062 505.566406 C 352.601562 454 352.601562 370.171875 404.164062 318.609375 C 429.226562 293.832031 462.355469 280.007812 497.789062 280.007812 C 533.222656 280.007812 566.347656 293.832031 591.410156 318.609375 C 642.976562 370.171875 642.976562 454 591.410156 505.566406 L 501.246094 595.734375 C 500.09375 596.597656 498.941406 597.171875 497.789062 597.171875 Z M 497.789062 481.367188 C 479.351562 481.367188 461.78125 474.167969 448.816406 461.203125 C 435.851562 447.953125 428.652344 430.667969 428.652344 412.230469 C 428.652344 393.792969 435.851562 376.222656 448.816406 363.257812 C 461.78125 350.007812 479.351562 342.804688 497.789062 342.804688 C 516.226562 342.804688 533.507812 350.007812 546.761719 363.257812 C 559.722656 376.222656 566.925781 393.507812 566.925781 412.230469 C 566.925781 430.667969 559.722656 447.953125 546.761719 461.203125 C 533.507812 474.167969 516.226562 481.367188 497.789062 481.367188 Z M 497.789062 507.007812 C 472.4375 507.007812 448.527344 497.210938 430.667969 479.351562 C 412.808594 461.203125 402.726562 437.582031 402.726562 412.230469 C 402.726562 386.878906 412.808594 362.972656 430.667969 345.109375 C 443.632812 332.148438 459.761719 323.21875 477.335938 319.472656 C 479.929688 318.894531 482.519531 320.625 483.097656 323.21875 C 483.671875 325.808594 481.945312 328.113281 479.351562 328.691406 C 463.507812 332.433594 449.105469 340.214844 437.292969 351.734375 C 404.164062 385.152344 404.164062 439.308594 437.292969 472.4375 C 470.710938 505.855469 524.867188 505.855469 557.996094 472.4375 C 574.128906 456.304688 583.058594 434.988281 583.058594 412.230469 C 583.058594 389.472656 574.128906 367.867188 557.996094 351.734375 C 554.25 347.992188 550.21875 344.535156 545.894531 341.652344 C 543.59375 340.214844 543.015625 337.042969 544.457031 335.027344 C 546.183594 332.722656 549.066406 332.148438 551.371094 333.585938 C 555.980469 337.042969 560.589844 340.789062 564.910156 345.109375 C 582.769531 362.972656 592.5625 386.878906 592.5625 412.230469 C 592.5625 437.582031 582.769531 461.203125 564.910156 479.351562 C 547.046875 497.210938 523.140625 507.007812 497.789062 507.007812 Z M 497.789062 352.601562 C 481.945312 352.601562 466.964844 358.648438 455.730469 369.882812 C 444.207031 381.121094 438.15625 396.097656 438.15625 412.230469 C 438.15625 428.074219 444.207031 443.054688 455.730469 454.289062 C 466.964844 465.523438 481.945312 471.863281 497.789062 471.863281 C 513.632812 471.863281 528.613281 465.523438 539.847656 454.289062 C 551.082031 443.054688 557.417969 428.074219 557.417969 412.230469 C 557.417969 396.097656 551.082031 381.121094 539.847656 369.882812 C 528.613281 358.648438 513.632812 352.601562 497.789062 352.601562 Z M 497.789062 352.601562 " fill-opacity="1" fill-rule="evenodd"/></svg>